<svg xmlns="http://www.w3.org/2000/svg" viewBox="0 0 394.91 443.82"><g id="Capa_2" data-name="Capa 2"><g id="Vectorportal.com"><path d="M43.41,136.83H110.8v6.29H43.41v-6.29Zm240.7,0H351.5v6.29H284.11Z" style="fill:#272b28;fill-rule:evenodd"/><rect width="394.91" height="137.17" rx="4.97" style="fill:#666a6c"/><path d="M394.91,82.13V5.1a5.11,5.11,0,0,0-5.1-5.1H4.38A4.38,4.38,0,0,0,0,4.38V82.13Z" style="fill:#727679;fill-rule:evenodd"/><path d="M43.47,87.81h0a12.92,12.92,0,0,1,12.88,12.88v36.48H30.58V100.69A12.93,12.93,0,0,1,43.47,87.81Z" style="fill:#393d3b;fill-rule:evenodd"/><path d="M43.47,87.81h0a12.93,12.93,0,0,0-12.89,12.88v36.48h4V101.69A12.93,12.93,0,0,1,47.47,88.81h0c.36,0,.72,0,1.08,0A12.86,12.86,0,0,0,43.47,87.81Z" style="fill:#1e1e1d;fill-rule:evenodd"/><path d="M94.8,87.81h0a12.93,12.93,0,0,1,12.88,12.89v36.47H81.91V100.7A12.93,12.93,0,0,1,94.8,87.81Z" style="fill:#393d3b;fill-rule:evenodd"/><path d="M146.12,87.81h0A12.93,12.93,0,0,1,159,100.7v36.47H133.24V100.7A12.93,12.93,0,0,1,146.12,87.81Z" style="fill:#393d3b;fill-rule:evenodd"/><path d="M197.45,87.81h0a12.93,12.93,0,0,1,12.89,12.89v36.47H184.57V100.7A12.93,12.93,0,0,1,197.45,87.81Z" style="fill:#393d3b;fill-rule:evenodd"/><path d="M248.79,87.81h0a12.93,12.93,0,0,1,12.88,12.89v36.47H235.9V100.7A12.93,12.93,0,0,1,248.79,87.81Z" style="fill:#393d3b;fill-rule:evenodd"/><path d="M300.11,87.81h0A12.93,12.93,0,0,1,313,100.7v36.47H287.23V100.7A12.92,12.92,0,0,1,300.11,87.81Z" style="fill:#393d3b;fill-rule:evenodd"/><path d="M351.44,87.81h0a12.93,12.93,0,0,1,12.89,12.88v36.48H338.56V100.69A12.92,12.92,0,0,1,351.44,87.81Z" style="fill:#393d3b;fill-rule:evenodd"/><rect x="11.79" y="13.17" width="370.89" height="60.66" rx="2.91" style="fill:#393d3b"/><polygon points="373.5 64.47 297.27 64.47 297.27 22.53 373.5 22.53 373.5 64.47 373.5 64.47" style="fill:#c0c2c9;fill-rule:evenodd"/><rect x="205.1" y="22.53" width="76.23" height="41.94" style="fill:#74787b"/><polygon points="331.63 64.47 297.27 64.47 297.27 22.53 359.52 22.53 331.63 64.47 331.63 64.47" style="fill:#666a6c;fill-rule:evenodd"/><polygon points="224.6 64.47 252.5 22.53 281.33 22.53 281.33 64.47 224.6 64.47" style="fill:#c0c2c9;fill-rule:evenodd"/><path d="M51.59,50.31a6.81,6.81,0,1,0-6.81-6.81A6.82,6.82,0,0,0,51.59,50.31Z" style="fill:#ec9223;fill-rule:evenodd"/><path d="M51.59,43.5c2,0,3.63-1.29,3.63-2.88s-1.63-2.88-3.63-2.88S48,39,48,40.62,49.58,43.5,51.59,43.5Z" style="fill:#f4b863;fill-rule:evenodd"/><path d="M72.74,50.31a6.81,6.81,0,1,0-6.8-6.81A6.82,6.82,0,0,0,72.74,50.31Z" style="fill:#ec9223;fill-rule:evenodd"/><path d="M72.74,43.5c2,0,3.64-1.29,3.64-2.88s-1.63-2.88-3.64-2.88-3.63,1.3-3.63,2.88S70.74,43.5,72.74,43.5Z" style="fill:#f4b863;fill-rule:evenodd"/><path d="M93.9,50.31a6.81,6.81,0,1,0-6.8-6.81A6.82,6.82,0,0,0,93.9,50.31Z" style="fill:#ec9223;fill-rule:evenodd"/><path d="M93.9,43.5c2,0,3.64-1.29,3.64-2.88s-1.64-2.88-3.64-2.88-3.63,1.3-3.63,2.88S91.9,43.5,93.9,43.5Z" style="fill:#f4b863;fill-rule:evenodd"/><path d="M115.32,50.31a6.81,6.81,0,1,0-6.81-6.81A6.82,6.82,0,0,0,115.32,50.31Z" style="fill:#ec9223;fill-rule:evenodd"/><path d="M115.32,43.5c2,0,3.63-1.29,3.63-2.88s-1.63-2.88-3.63-2.88-3.63,1.3-3.63,2.88S113.32,43.5,115.32,43.5Z" style="fill:#f4b863;fill-rule:evenodd"/><path d="M94.77,87.81h0a12.93,12.93,0,0,0-12.89,12.88v36.48h4V101.69A12.93,12.93,0,0,1,98.77,88.81h0c.36,0,.72,0,1.08,0A12.86,12.86,0,0,0,94.77,87.81Z" style="fill:#1e1e1d;fill-rule:evenodd"/><path d="M146.07,87.81h0a12.93,12.93,0,0,0-12.89,12.88v36.48h4V101.69a12.93,12.93,0,0,1,12.89-12.88h0c.37,0,.73,0,1.08,0A12.86,12.86,0,0,0,146.07,87.81Z" style="fill:#1e1e1d;fill-rule:evenodd"/><path d="M197.51,87.81h0a12.93,12.93,0,0,0-12.89,12.88v36.48h4V101.69a12.93,12.93,0,0,1,12.89-12.88h0c.37,0,.72,0,1.08,0A12.86,12.86,0,0,0,197.51,87.81Z" style="fill:#1e1e1d;fill-rule:evenodd"/><path d="M248.81,87.81h0a12.93,12.93,0,0,0-12.89,12.88v36.48h4V101.69a12.93,12.93,0,0,1,12.89-12.88h0c.37,0,.73,0,1.08,0A12.82,12.82,0,0,0,248.81,87.81Z" style="fill:#1e1e1d;fill-rule:evenodd"/><path d="M300.25,87.81h0a12.93,12.93,0,0,0-12.89,12.88v36.48h4V101.69a12.93,12.93,0,0,1,12.89-12.88h0c.37,0,.73,0,1.08,0A12.86,12.86,0,0,0,300.25,87.81Z" style="fill:#1e1e1d;fill-rule:evenodd"/><path d="M351.55,87.81h0a12.93,12.93,0,0,0-12.89,12.88v36.48h4V101.69a12.93,12.93,0,0,1,12.89-12.88h0c.37,0,.73,0,1.09,0A12.91,12.91,0,0,0,351.55,87.81Z" style="fill:#1e1e1d;fill-rule:evenodd"/><path d="M43.41,279.81H110.8v6.29H43.41v-6.29Zm240.7,0H351.5v6.29H284.11Z" style="fill:#272b28;fill-rule:evenodd"/><rect y="142.98" width="394.91" height="137.17" rx="4.97" style="fill:#666a6c"/><path d="M394.91,225.1v-77a5.11,5.11,0,0,0-5.1-5.09H4.38A4.38,4.38,0,0,0,0,147.36V225.1Z" style="fill:#727679;fill-rule:evenodd"/><path d="M43.47,230.78h0a12.93,12.93,0,0,1,12.88,12.89v36.48H30.58V243.67A12.93,12.93,0,0,1,43.47,230.78Z" style="fill:#393d3b;fill-rule:evenodd"/><path d="M43.47,230.78h0a12.93,12.93,0,0,0-12.89,12.89v36.48h4V244.67a12.93,12.93,0,0,1,12.89-12.89h0c.36,0,.72,0,1.08.06A12.69,12.69,0,0,0,43.47,230.78Z" style="fill:#1e1e1d;fill-rule:evenodd"/><path d="M94.8,230.78h0a12.93,12.93,0,0,1,12.88,12.89v36.48H81.91V243.67A12.93,12.93,0,0,1,94.8,230.78Z" style="fill:#393d3b;fill-rule:evenodd"/><path d="M146.12,230.78h0A12.93,12.93,0,0,1,159,243.67v36.48H133.24V243.67A12.93,12.93,0,0,1,146.12,230.78Z" style="fill:#393d3b;fill-rule:evenodd"/><path d="M197.45,230.78h0a12.93,12.93,0,0,1,12.89,12.89v36.48H184.57V243.67A12.93,12.93,0,0,1,197.45,230.78Z" style="fill:#393d3b;fill-rule:evenodd"/><path d="M248.79,230.78h0a12.93,12.93,0,0,1,12.88,12.89v36.48H235.9V243.67A12.93,12.93,0,0,1,248.79,230.78Z" style="fill:#393d3b;fill-rule:evenodd"/><path d="M300.11,230.78h0A12.93,12.93,0,0,1,313,243.67v36.48H287.23V243.67A12.92,12.92,0,0,1,300.11,230.78Z" style="fill:#393d3b;fill-rule:evenodd"/><path d="M351.44,230.78h0a12.93,12.93,0,0,1,12.89,12.89v36.48H338.56V243.67A12.93,12.93,0,0,1,351.44,230.78Z" style="fill:#393d3b;fill-rule:evenodd"/><rect x="11.79" y="156.15" width="370.89" height="60.66" rx="2.91" style="fill:#393d3b"/><polygon points="373.5 207.45 297.27 207.45 297.27 165.51 373.5 165.51 373.5 207.45 373.5 207.45" style="fill:#c0c2c9;fill-rule:evenodd"/><rect x="205.1" y="165.51" width="76.23" height="41.94" style="fill:#74787b"/><polygon points="331.63 207.45 297.27 207.45 297.27 165.51 359.52 165.51 331.63 207.45 331.63 207.45" style="fill:#666a6c;fill-rule:evenodd"/><polygon points="224.6 207.45 252.5 165.51 281.33 165.51 281.33 207.45 224.6 207.45" style="fill:#c0c2c9;fill-rule:evenodd"/><path d="M51.59,193.28a6.81,6.81,0,1,0-6.81-6.8A6.81,6.81,0,0,0,51.59,193.28Z" style="fill:#ec9223;fill-rule:evenodd"/><path d="M51.59,186.48c2,0,3.63-1.3,3.63-2.88s-1.63-2.88-3.63-2.88S48,182,48,183.6,49.58,186.48,51.59,186.48Z" style="fill:#f4b863;fill-rule:evenodd"/><path d="M72.74,193.28a6.81,6.81,0,1,0-6.8-6.8A6.82,6.82,0,0,0,72.74,193.28Z" style="fill:#ec9223;fill-rule:evenodd"/><path d="M72.74,186.48c2,0,3.64-1.3,3.64-2.88s-1.63-2.88-3.64-2.88-3.63,1.3-3.63,2.88S70.74,186.48,72.74,186.48Z" style="fill:#f4b863;fill-rule:evenodd"/><path d="M93.9,193.28a6.81,6.81,0,1,0-6.8-6.8A6.82,6.82,0,0,0,93.9,193.28Z" style="fill:#ec9223;fill-rule:evenodd"/><path d="M93.9,186.48c2,0,3.64-1.3,3.64-2.88s-1.64-2.88-3.64-2.88-3.63,1.3-3.63,2.88S91.9,186.48,93.9,186.48Z" style="fill:#f4b863;fill-rule:evenodd"/><path d="M115.32,193.28a6.81,6.81,0,1,0-6.81-6.8A6.82,6.82,0,0,0,115.32,193.28Z" style="fill:#ec9223;fill-rule:evenodd"/><path d="M115.32,186.48c2,0,3.63-1.3,3.63-2.88s-1.63-2.88-3.63-2.88-3.63,1.3-3.63,2.88S113.32,186.48,115.32,186.48Z" style="fill:#f4b863;fill-rule:evenodd"/><path d="M94.77,230.78h0a12.93,12.93,0,0,0-12.89,12.89v36.48h4V244.67a12.93,12.93,0,0,1,12.89-12.89h0c.36,0,.72,0,1.08.06A12.69,12.69,0,0,0,94.77,230.78Z" style="fill:#1e1e1d;fill-rule:evenodd"/><path d="M146.07,230.78h0a12.93,12.93,0,0,0-12.89,12.89v36.48h4V244.67a12.93,12.93,0,0,1,12.89-12.89h0c.37,0,.73,0,1.08.06A12.69,12.69,0,0,0,146.07,230.78Z" style="fill:#1e1e1d;fill-rule:evenodd"/><path d="M197.51,230.78h0a12.93,12.93,0,0,0-12.89,12.89v36.48h4V244.67a12.93,12.93,0,0,1,12.89-12.89h0c.37,0,.72,0,1.08.06A12.69,12.69,0,0,0,197.51,230.78Z" style="fill:#1e1e1d;fill-rule:evenodd"/><path d="M248.81,230.78h0a12.93,12.93,0,0,0-12.89,12.89v36.48h4V244.67a12.93,12.93,0,0,1,12.89-12.89h0c.37,0,.73,0,1.08.06A12.66,12.66,0,0,0,248.81,230.78Z" style="fill:#1e1e1d;fill-rule:evenodd"/><path d="M300.25,230.78h0a12.93,12.93,0,0,0-12.89,12.89v36.48h4V244.67a12.93,12.93,0,0,1,12.89-12.89h0c.37,0,.73,0,1.08.06A12.69,12.69,0,0,0,300.25,230.78Z" style="fill:#1e1e1d;fill-rule:evenodd"/><path d="M351.55,230.78h0a12.93,12.93,0,0,0-12.89,12.89v36.48h4V244.67a12.93,12.93,0,0,1,12.89-12.89h0c.37,0,.73,0,1.09.06A12.74,12.74,0,0,0,351.55,230.78Z" style="fill:#1e1e1d;fill-rule:evenodd"/><path d="M43.41,422.36H110.8v6.29H43.41v-6.29Zm240.7,0H351.5v6.29H284.11Z" style="fill:#272b28;fill-rule:evenodd"/><rect y="285.53" width="394.91" height="137.17" rx="4.97" style="fill:#666a6c"/><path d="M394.91,367.66v-77a5.11,5.11,0,0,0-5.1-5.1H4.38A4.38,4.38,0,0,0,0,289.91v77.75Z" style="fill:#727679;fill-rule:evenodd"/><path d="M43.47,373.34h0a12.92,12.92,0,0,1,12.88,12.88V422.7H30.58V386.22A12.93,12.93,0,0,1,43.47,373.34Z" style="fill:#393d3b;fill-rule:evenodd"/><path d="M43.47,373.34h0a12.93,12.93,0,0,0-12.89,12.88V422.7h4V387.22a12.93,12.93,0,0,1,12.89-12.88h0c.36,0,.72,0,1.08.05A12.86,12.86,0,0,0,43.47,373.34Z" style="fill:#1e1e1d;fill-rule:evenodd"/><path d="M94.8,373.34h0a12.93,12.93,0,0,1,12.88,12.89V422.7H81.91V386.23A12.93,12.93,0,0,1,94.8,373.34Z" style="fill:#393d3b;fill-rule:evenodd"/><path d="M146.12,373.34h0A12.93,12.93,0,0,1,159,386.23V422.7H133.24V386.23A12.93,12.93,0,0,1,146.12,373.34Z" style="fill:#393d3b;fill-rule:evenodd"/><path d="M197.45,373.34h0a12.93,12.93,0,0,1,12.89,12.89V422.7H184.57V386.23A12.93,12.93,0,0,1,197.45,373.34Z" style="fill:#393d3b;fill-rule:evenodd"/><path d="M248.79,373.34h0a12.93,12.93,0,0,1,12.88,12.89V422.7H235.9V386.23A12.93,12.93,0,0,1,248.79,373.34Z" style="fill:#393d3b;fill-rule:evenodd"/><path d="M300.11,373.34h0A12.93,12.93,0,0,1,313,386.23V422.7H287.23V386.23A12.92,12.92,0,0,1,300.11,373.34Z" style="fill:#393d3b;fill-rule:evenodd"/><path d="M351.44,373.34h0a12.93,12.93,0,0,1,12.89,12.88V422.7H338.56V386.22A12.92,12.92,0,0,1,351.44,373.34Z" style="fill:#393d3b;fill-rule:evenodd"/><rect x="11.79" y="298.7" width="370.89" height="60.66" rx="2.91" style="fill:#393d3b"/><polygon points="373.5 350 297.27 350 297.27 308.06 373.5 308.06 373.5 350 373.5 350" style="fill:#c0c2c9;fill-rule:evenodd"/><rect x="205.1" y="308.06" width="76.23" height="41.94" style="fill:#74787b"/><polygon points="331.63 350 297.27 350 297.27 308.06 359.52 308.06 331.63 350 331.63 350" style="fill:#666a6c;fill-rule:evenodd"/><polygon points="224.6 350 252.5 308.06 281.33 308.06 281.33 350 224.6 350" style="fill:#c0c2c9;fill-rule:evenodd"/><path d="M51.59,335.84A6.81,6.81,0,1,0,44.78,329,6.82,6.82,0,0,0,51.59,335.84Z" style="fill:#ec9223;fill-rule:evenodd"/><path d="M51.59,329c2,0,3.63-1.29,3.63-2.88s-1.63-2.88-3.63-2.88S48,324.57,48,326.15,49.58,329,51.59,329Z" style="fill:#f4b863;fill-rule:evenodd"/><path d="M72.74,335.84a6.81,6.81,0,1,0-6.8-6.81A6.82,6.82,0,0,0,72.74,335.84Z" style="fill:#ec9223;fill-rule:evenodd"/><path d="M72.74,329c2,0,3.64-1.29,3.64-2.88s-1.63-2.88-3.64-2.88-3.63,1.3-3.63,2.88S70.74,329,72.74,329Z" style="fill:#f4b863;fill-rule:evenodd"/><path d="M93.9,335.84A6.81,6.81,0,1,0,87.1,329,6.82,6.82,0,0,0,93.9,335.84Z" style="fill:#ec9223;fill-rule:evenodd"/><path d="M93.9,329c2,0,3.64-1.29,3.64-2.88s-1.64-2.88-3.64-2.88-3.63,1.3-3.63,2.88S91.9,329,93.9,329Z" style="fill:#f4b863;fill-rule:evenodd"/><path d="M115.32,335.84a6.81,6.81,0,1,0-6.81-6.81A6.82,6.82,0,0,0,115.32,335.84Z" style="fill:#ec9223;fill-rule:evenodd"/><path d="M115.32,329c2,0,3.63-1.29,3.63-2.88s-1.63-2.88-3.63-2.88-3.63,1.3-3.63,2.88S113.32,329,115.32,329Z" style="fill:#f4b863;fill-rule:evenodd"/><path d="M94.77,373.34h0a12.93,12.93,0,0,0-12.89,12.88V422.7h4V387.22a12.93,12.93,0,0,1,12.89-12.88h0c.36,0,.72,0,1.08.05A12.86,12.86,0,0,0,94.77,373.34Z" style="fill:#1e1e1d;fill-rule:evenodd"/><path d="M146.07,373.34h0a12.93,12.93,0,0,0-12.89,12.88V422.7h4V387.22a12.93,12.93,0,0,1,12.89-12.88h0c.37,0,.73,0,1.08.05A12.86,12.86,0,0,0,146.07,373.34Z" style="fill:#1e1e1d;fill-rule:evenodd"/><path d="M197.51,373.34h0a12.93,12.93,0,0,0-12.89,12.88V422.7h4V387.22a12.93,12.93,0,0,1,12.89-12.88h0c.37,0,.72,0,1.08.05A12.86,12.86,0,0,0,197.51,373.34Z" style="fill:#1e1e1d;fill-rule:evenodd"/><path d="M248.81,373.34h0a12.93,12.93,0,0,0-12.89,12.88V422.7h4V387.22a12.93,12.93,0,0,1,12.89-12.88h0c.37,0,.73,0,1.08.05A12.82,12.82,0,0,0,248.81,373.34Z" style="fill:#1e1e1d;fill-rule:evenodd"/><path d="M300.25,373.34h0a12.93,12.93,0,0,0-12.89,12.88V422.7h4V387.22a12.93,12.93,0,0,1,12.89-12.88h0c.37,0,.73,0,1.08.05A12.86,12.86,0,0,0,300.25,373.34Z" style="fill:#1e1e1d;fill-rule:evenodd"/><path d="M351.55,373.34h0a12.93,12.93,0,0,0-12.89,12.88V422.7h4V387.22a12.93,12.93,0,0,1,12.89-12.88h0c.37,0,.73,0,1.09.05A12.91,12.91,0,0,0,351.55,373.34Z" style="fill:#1e1e1d;fill-rule:evenodd"/><rect x="72.49" y="258.76" width="253.62" height="141.89" rx="5.09" style="fill:#dbdce2"/><rect x="82.9" y="269.17" width="232.79" height="121.06" rx="4.31" style="fill:#393535"/><rect x="170.83" y="400.65" width="56.94" height="33.13" style="fill:#dbdce2"/><path d="M121.43,428.94H277.17c5,0,9.08,3.35,9.08,7.44h0c0,4.09-4.08,7.44-9.08,7.44H121.43c-5,0-9.08-3.35-9.08-7.44h0C112.35,432.29,116.43,428.94,121.43,428.94Z" style="fill:#ced0d7;fill-rule:evenodd"/><rect x="170.83" y="400.65" width="56.94" height="11.27" style="fill:#c2c4cb"/><path d="M117.42,298.28H128.6A2.43,2.43,0,0,1,131,300.7h0a2.43,2.43,0,0,1-2.42,2.42H117.42A2.43,2.43,0,0,1,115,300.7h0a2.43,2.43,0,0,1,2.42-2.42ZM98.14,284.87a2.64,2.64,0,1,1,3.73-3.73l8.74,8.74a2.64,2.64,0,0,1,0,3.73l-8.74,8.74a2.64,2.64,0,1,1-3.73-3.73l6.87-6.88Z" style="fill:#fff;fill-rule:evenodd"/></g></g></svg>