<svg xmlns="http://www.w3.org/2000/svg" viewBox="0 0 1556.35 2180.15"><g id="Capa_2" data-name="Capa 2"><g id="Capa_1-2" data-name="Capa 1"><path d="M0,429.26,145.9,2009.9l632.27,170.25,632.26-170.25L1556.35,429.26ZM1291.26,1907,779.6,2044.76l-1.43-.39-1.43.39L265.07,1907,147,557.29H1409.36ZM419.34,197V103H556.6V0H316.39V291H556.6V197ZM803.52,103h96V0H659.25V103c32.14,32.14,48.9,47.52,95.39,94-27.18,0-95.39.1-95.39.09V291H899.48V197l-96-94.08ZM1144,103h96V0H999.72V103c32.14,32.14,48.91,47.52,95.4,94-27.17,0-95.4.1-95.4.09V291H1240V197L1144,103Zm118.31,647.69h0L1243,941.52h0l-465.4,199-1.1.48h450.08l-51.48,591.93L778.32,1848.73l-398.94-118-25.74-298.12H551l12.87,154.43,212.35,53.62,220.9-62.19,15-248.8-671.32-2.14,0-.28-.67.28-15-186.59L777.6,952.51h0l26.39-11H307.91L284.32,750.64h978Z"/></g></g></svg>