<svg xmlns="http://www.w3.org/2000/svg" viewBox="0 0 35.02 35.01">
    <title>dinamico</title>
    <g id="Capa_2" data-name="Capa 2">
        <g id="Capa_1-2" data-name="Capa 1">
            <path d="M21.08,6.67c-.36.32-.89-.21-.53-.53,2.12-1.87,4.91-3.73,7.84-3.93.48,0,.48.72,0,.75-2.72.18-5.35,2-7.31,3.71ZM31,2.46a.5.5,0,1,0-.37.6A.5.5,0,0,0,31,2.46Zm-9.57,19h0a.43.43,0,0,0-.58-.2l-2.56,1.26a.43.43,0,0,0-.2.58h0a.43.43,0,0,0,.58.2l2.56-1.26A.43.43,0,0,0,21.43,21.49Zm-4,2h0a.43.43,0,0,0-.58-.2l-.56.27a.43.43,0,0,0-.2.58h0a.43.43,0,0,0,.58.2l.56-.27A.43.43,0,0,0,17.41,23.46Zm5.43-2.68h0a.43.43,0,0,0-.58-.2h0a.43.43,0,0,0-.2.58h0a.43.43,0,0,0,.58.2h0A.43.43,0,0,0,22.85,20.79Zm2.55,1a11.58,11.58,0,0,1-1,.88,1.72,1.72,0,0,1,.12.35c.54,2.33-.75,9.79-9.47,12l-.13,0a.55.55,0,0,1-.44-.87c2.18-3,3-5.38,2.69-7.46l-.7.41a.55.55,0,0,1-.67-.08l-.86-.86-1.61,1.6a.55.55,0,0,1-.77,0L7.17,22.4a.55.55,0,0,1,0-.77L8.77,20l-.86-.86a.55.55,0,0,1-.08-.68c.15-.24.3-.49.44-.75-2.07-.32-4.45.55-7.41,2.69A.55.55,0,0,1,0,19.86c2.18-8.71,9.67-10,12-9.44l.3.09a11.47,11.47,0,0,1,.82-.93C21.25,1.5,30.29-2.14,33.72,1.29A4.86,4.86,0,0,1,35,4.87C35,9.34,31.24,16,25.4,21.81ZM11.58,11.44a4.58,4.58,0,0,0-.58,0,9.52,9.52,0,0,0-3.66.81,10.62,10.62,0,0,0-5.82,6.44c2.79-1.77,5.13-2.4,7.27-1.95Zm2.57,13.94-.63-.62-4-4L8.33,22l4.6,4.59Zm9.34-1.91L18.2,26.26c.45,2.13-.18,4.46-2,7.24a10.62,10.62,0,0,0,6.48-5.83A8.7,8.7,0,0,0,23.49,23.47ZM24.63,21c5.56-5.54,9.29-12,9.29-16.16a3.81,3.81,0,0,0-1-2.81C30-.83,21.33,3,13.91,10.35a11.92,11.92,0,0,0-1.58,2l-2.22,4.19C9.75,17.29,9.38,18,9,18.7l7.27,7.24C17.1,25.45,18,25,19,24.55A20.24,20.24,0,0,0,24.63,21ZM28,7a3.28,3.28,0,0,1,0,4.65,3.31,3.31,0,0,1-4.66,0,3.28,3.28,0,0,1,0-4.65A3.31,3.31,0,0,1,28,7Zm-.13,2.32a2.17,2.17,0,0,0-.64-1.55,2.22,2.22,0,0,0-3.12,0,2.18,2.18,0,0,0,0,3.1,2.21,2.21,0,0,0,3.12,0A2.17,2.17,0,0,0,27.91,9.36ZM9,26.57,3.54,32a.55.55,0,1,1-.77-.77l5.47-5.45a.55.55,0,0,1,.77.77ZM2.74,28.27a.55.55,0,0,1,0-.77l3.6-3.59a.55.55,0,0,1,.77.77l-3.6,3.59a.55.55,0,0,1-.77,0Zm8.15-.6a.55.55,0,0,1,0,.77L7.29,32a.55.55,0,0,1-.77-.77l3.6-3.59A.55.55,0,0,1,10.9,27.68Z"/>
        </g>
    </g>
</svg>