<svg xmlns="http://www.w3.org/2000/svg" viewBox="0 0 35.18 35.17"><g id="Capa_2" data-name="Capa 2"><g id="Capa_1-2" data-name="Capa 1"><g id="Capa_2-2" data-name="Capa 2"><g id="Capa_1-3" data-name="Capa 1"><path id="Trazado_338" data-name="Trazado 338" d="M16.43,20.2h2.88a.44.44,0,0,1,.43.44h0a.43.43,0,0,1-.43.43H16.43a.43.43,0,0,1-.43-.43h0A.44.44,0,0,1,16.43,20.2Zm4,.44h0a.43.43,0,0,0,.43.43h.62a.43.43,0,0,0,.43-.43h0a.44.44,0,0,0-.43-.44h-.62a.42.42,0,0,0-.39.44Zm-6.1,0h0a.43.43,0,0,0,.43.43h0a.43.43,0,0,0,.43-.43h0a.44.44,0,0,0-.43-.44h0a.44.44,0,0,0-.39.44ZM13.61,2.15h0a.44.44,0,0,0,.44.44h2.87a.44.44,0,0,0,.44-.44h0a.44.44,0,0,0-.44-.43H14.1a.42.42,0,0,0-.48.38.11.11,0,0,0,0,0Zm-1.6,0h0a.44.44,0,0,0,.44.44h0a.44.44,0,0,0,.43-.44h0a.43.43,0,0,0-.43-.43h0a.44.44,0,0,0-.43.43ZM1.72,29.32h0a.26.26,0,0,0,.26.26H2a.26.26,0,0,0,.26-.26h0A.27.27,0,0,0,2,29.09H2a.27.27,0,0,0-.29.25h0Zm0,1.24a3.1,3.1,0,0,0,.5,2,2.64,2.64,0,0,0,2.08,1,.27.27,0,0,0,.27-.27A.28.28,0,0,0,4.3,33a2.09,2.09,0,0,1-1.78-1,2.85,2.85,0,0,1-.2-1.44.27.27,0,1,0-.54,0ZM2.21,21a.51.51,0,0,1,.52-.51H7.86a.5.5,0,0,1,.4.6.51.51,0,0,1-.4.4H2.79a.52.52,0,0,1-.52-.46Zm0,2.78a.52.52,0,0,1,.52-.52H7.86a.52.52,0,0,1,0,1H2.79a.52.52,0,0,1-.52-.46Zm0,2.77a.51.51,0,0,1,.52-.51H7.86a.52.52,0,0,1,.6.41.52.52,0,0,1-.41.6H2.79a.52.52,0,0,1-.52-.47Zm2.48-24a.51.51,0,0,1-.51.51H2.79a.52.52,0,0,1-.41-.6.51.51,0,0,1,.41-.41H4.17A.52.52,0,0,1,4.69,2.6Zm30,18a.51.51,0,0,1,.52.51h0V34.65a.51.51,0,0,1-.52.51H30.11a.51.51,0,0,1-.51-.51h0V32.87l-2.73,1.46a7.23,7.23,0,0,1-3.35.84H20.86a.53.53,0,0,1-.41-.61.51.51,0,0,1,.41-.4h2.66a6.18,6.18,0,0,0,2.86-.71l3.22-1.72v-8l-3.43-3.31a4.5,4.5,0,0,1-1.36-3.21v-2.9a1.49,1.49,0,0,0-1.42-1.5,1.47,1.47,0,0,0-1.5,1.42v4.66a.51.51,0,0,1-.51.51H12.89a1.49,1.49,0,0,0-1.5,1.42,1.47,1.47,0,0,0,1.42,1.5h1.62a.5.5,0,0,1,.4.6.51.51,0,0,1-.4.4H11.57a1.49,1.49,0,0,0-1.5,1.45,1.46,1.46,0,0,0,1.42,1.5h2.94a.52.52,0,0,1,0,1H12.85a1.46,1.46,0,0,0-1.46,1.46v0a1.5,1.5,0,0,0,1.5,1.46h1.28a.51.51,0,0,1,.4.6.51.51,0,0,1-.4.4,1.46,1.46,0,0,0-1.46,1.46v0a1.49,1.49,0,0,0,1.5,1.42h4.24a.51.51,0,0,1,0,1H1.9A1.9,1.9,0,0,1,0,33.27V10.54a.52.52,0,0,1,.4-.6.53.53,0,0,1,.61.41.61.61,0,0,1,0,.19V33.27a.85.85,0,0,0,.85.86H12.13a2.45,2.45,0,0,1,0-3,2.51,2.51,0,0,1-1.86-2.33,2.45,2.45,0,0,1,.54-1.61,2.5,2.5,0,0,1-1.69-3.11,2.47,2.47,0,0,1,1.76-1.71,2.52,2.52,0,0,1-.55-1.62,2.4,2.4,0,0,1,.5-1.39h-8a.51.51,0,0,1-.52-.51h0V7a.51.51,0,0,1,.52-.51h7.46a.51.51,0,0,1,0,1h-6l5.47,4.7L15.1,7.56H12.62a.52.52,0,0,1-.41-.6.51.51,0,0,1,.41-.41h3.86a.51.51,0,0,1,.51.51h0V18.31h1.19V5.23H1V8.14a.52.52,0,0,1-1,0V1.89A1.89,1.89,0,0,1,1.9,0H17.33a1.89,1.89,0,0,1,1.89,1.89V4.68h0V18.31H20.9V14.22a2.49,2.49,0,0,1,2.49-2.5h.07a2.54,2.54,0,0,1,2.43,2.54v2.9a3.43,3.43,0,0,0,1,2.46l2.68,2.72V21.07a.51.51,0,0,1,.51-.51h4.58ZM3.26,17.71l5.56-4.78L3.26,8.16Zm11.84.6-5.48-4.7-5.49,4.7ZM16,8.15l-5.57,4.78L16,17.71ZM18.2,1.88A.85.85,0,0,0,17.37,1H1.9A.84.84,0,0,0,1,1.83a.06.06,0,0,0,0,.06V4.17h17.1Zm16,19.71H30.63V34.14h3.52Z"/></g></g></g></g></svg>