<svg xmlns="http://www.w3.org/2000/svg" viewBox="0 0 20.6 35.2"><defs><style>.cls-1{fill:#020202;}</style></defs><title>facebook</title><g id="Capa_2" data-name="Capa 2"><g id="Capa_1-2" data-name="Capa 1"><path class="cls-1" d="M11.59,32.73h0a.35.35,0,0,1-.35-.35V26.72a.35.35,0,0,1,.35-.35h0a.35.35,0,0,1,.35.35v5.66A.35.35,0,0,1,11.59,32.73ZM8.41,8.38a.5.5,0,1,0-.28-.65A.5.5,0,0,0,8.41,8.38Zm3,17a.5.5,0,1,0-.28-.65A.5.5,0,0,0,11.41,25.38Zm2.2-8.44h6.65V11.71H13.63V9c0-1.71,1.06-3.53,4-3.53H20.6V0H14.53A7.78,7.78,0,0,0,6.67,6a19.13,19.13,0,0,0-.53,5.7H0v5.22H6.63V35.2h7Zm-6-.2a.82.82,0,0,0-.82-.82H1V12.71H6.32a.83.83,0,0,0,.59-.25.82.82,0,0,0,.23-.58,18.49,18.49,0,0,1,.49-5.58A6.83,6.83,0,0,1,14.53,1H19.6V4.42H17.66c-3.47,0-5,2.28-5,4.53v2.93a.82.82,0,0,0,.82.82h5.82v3.24H13.43a.82.82,0,0,0-.82.82V34.2h-5ZM6.14,11.89h0Zm3-5.13a5.37,5.37,0,0,1,5.3-4.14.38.38,0,0,0,0-.75,6.13,6.13,0,0,0-6,4.69.38.38,0,0,0,.72.2Zm10.6.36"/></g></g></svg>