<svg xmlns="http://www.w3.org/2000/svg" viewBox="0 0 280.27 227.01"><defs><style>.cls-1{fill:#fff;}</style></defs><title>fondo-dots</title><g id="Capa_2" data-name="Capa 2"><g id="Layer_1" data-name="Layer 1"><path class="cls-1" d="M279.56,3.76a.71.71,0,1,1-.71.71A.71.71,0,0,1,279.56,3.76Zm-.71,9.88a.71.71,0,1,0,.71-.71A.71.71,0,0,0,278.85,13.64Zm.1,9.17a.61.61,0,1,0,.61-.61A.61.61,0,0,0,278.95,22.81ZM279,32a.53.53,0,1,0,.53-.53A.53.53,0,0,0,279,32Zm.1,9.17a.43.43,0,1,0,.43-.43A.43.43,0,0,0,279.13,41.15Zm.08,9.17a.36.36,0,1,0,.36-.36A.36.36,0,0,0,279.2,50.32Zm.1,9.17a.25.25,0,1,0,.25-.25A.25.25,0,0,0,279.31,59.49Zm.08,9.17a.18.18,0,1,0,.18-.18A.18.18,0,0,0,279.38,68.66Zm.1,9.17a.08.08,0,1,0,.08-.08A.08.08,0,0,0,279.48,77.83ZM269.55,9.06a.84.84,0,1,0,.84-.84A.84.84,0,0,0,269.55,9.06Zm.1,9.17a.74.74,0,1,0,.74-.74A.74.74,0,0,0,269.65,18.23Zm.08,9.17a.66.66,0,1,0,.66-.66A.66.66,0,0,0,269.73,27.4Zm.1,9.17a.56.56,0,1,0,.56-.56A.56.56,0,0,0,269.83,36.57Zm.08,9.17a.48.48,0,1,0,.48-.48A.48.48,0,0,0,269.91,45.74Zm.1,9.17a.38.38,0,1,0,.38-.38A.38.38,0,0,0,270,54.91Zm.08,9.17a.31.31,0,1,0,.31-.31A.31.31,0,0,0,270.09,64.08Zm.1,9.17a.2.2,0,1,0,.2-.2A.2.2,0,0,0,270.19,73.25Zm.08,9.17a.13.13,0,1,0,.13-.13A.13.13,0,0,0,270.26,82.42Zm.1,9.17a0,0,0,1,0,.05,0,0,0,0,0,0-.05,0A0,0,0,0,0,270.37,91.59ZM260.25,4.48a1,1,0,1,0,1-1A1,1,0,0,0,260.25,4.48Zm0,9.17a1,1,0,1,0,1-1A1,1,0,0,0,260.25,13.64Zm.1,9.17a.86.86,0,1,0,.86-.86A.86.86,0,0,0,260.36,22.81Zm.08,9.17a.79.79,0,1,0,.79-.79A.79.79,0,0,0,260.43,32Zm.1,9.17a.69.69,0,1,0,.69-.69A.69.69,0,0,0,260.53,41.15Zm.08,9.17a.61.61,0,1,0,.61-.61A.61.61,0,0,0,260.61,50.32Zm.1,9.17a.51.51,0,1,0,.51-.51A.51.51,0,0,0,260.71,59.49Zm.08,9.17a.43.43,0,1,0,.43-.43A.43.43,0,0,0,260.79,68.66Zm.1,9.17a.33.33,0,1,0,.33-.33A.33.33,0,0,0,260.89,77.83ZM261,87a.25.25,0,1,0,.25-.25A.25.25,0,0,0,261,87Zm.1,9.17a.15.15,0,1,0,.15-.15A.15.15,0,0,0,261.07,96.17Zm.08,9.17a.08.08,0,1,0,.08-.08A.08.08,0,0,0,261.14,105.34ZM251,9.06A1.09,1.09,0,1,0,252.05,8,1.09,1.09,0,0,0,251,9.06Zm.1,9.17a1,1,0,1,0,1-1A1,1,0,0,0,251.06,18.23Zm.08,9.17a.92.92,0,1,0,.92-.92A.92.92,0,0,0,251.14,27.4Zm.1,9.17a.81.81,0,1,0,.81-.81A.81.81,0,0,0,251.24,36.57Zm.08,9.17a.74.74,0,1,0,.74-.74A.74.74,0,0,0,251.31,45.74Zm.1,9.17a.64.64,0,1,0,.64-.64A.64.64,0,0,0,251.42,54.91Zm.08,9.17a.56.56,0,1,0,.56-.56A.56.56,0,0,0,251.49,64.08Zm.1,9.17a.46.46,0,1,0,.46-.46A.46.46,0,0,0,251.59,73.25Zm.08,9.17a.38.38,0,1,0,.38-.38A.38.38,0,0,0,251.67,82.42Zm.1,9.17a.28.28,0,1,0,.28-.28A.28.28,0,0,0,251.77,91.59Zm.08,9.17a.2.2,0,1,0,.2-.2A.2.2,0,0,0,251.85,100.75Zm.1,9.17a.1.1,0,1,0,.1-.1A.1.1,0,0,0,251.95,109.92Zm.08,9.17a0,0,0,1,0,.05,0,0,0,0,0,0-.05,0A0,0,0,0,0,252,119.09ZM241.66,4.48a1.22,1.22,0,1,0,1.22-1.22A1.22,1.22,0,0,0,241.66,4.48Zm0,9.17a1.22,1.22,0,1,0,1.22-1.22A1.22,1.22,0,0,0,241.66,13.64Zm.1,9.17a1.12,1.12,0,1,0,1.12-1.12A1.12,1.12,0,0,0,241.76,22.81Zm.08,9.17a1,1,0,1,0,1-1A1,1,0,0,0,241.84,32Zm.1,9.17a.94.94,0,1,0,.94-.94A.94.94,0,0,0,241.94,41.15Zm.08,9.17a.86.86,0,1,0,.86-.86A.86.86,0,0,0,242,50.32Zm.1,9.17a.76.76,0,1,0,.76-.76A.76.76,0,0,0,242.12,59.49Zm.08,9.17a.69.69,0,1,0,.69-.69A.69.69,0,0,0,242.2,68.66Zm.1,9.17a.58.58,0,1,0,.58-.58A.58.58,0,0,0,242.3,77.83Zm.08,9.17a.51.51,0,1,0,.51-.51A.51.51,0,0,0,242.37,87Zm.1,9.17a.41.41,0,1,0,.41-.41A.41.41,0,0,0,242.48,96.17Zm.08,9.17a.33.33,0,1,0,.33-.33A.33.33,0,0,0,242.55,105.34Zm.1,9.17a.23.23,0,1,0,.23-.23A.23.23,0,0,0,242.65,114.51Zm.08,9.17a.15.15,0,1,0,.15-.15A.15.15,0,0,0,242.73,123.68Zm.1,9.17a.05.05,0,1,0,.05-.05A.05.05,0,0,0,242.83,132.85ZM232.39,9.06a1.32,1.32,0,1,0,1.32-1.32A1.32,1.32,0,0,0,232.39,9.06Zm.08,9.17A1.25,1.25,0,1,0,233.71,17,1.25,1.25,0,0,0,232.47,18.23Zm.1,9.17a1.14,1.14,0,1,0,1.14-1.14A1.14,1.14,0,0,0,232.57,27.4Zm.08,9.17a1.07,1.07,0,1,0,1.07-1.07A1.07,1.07,0,0,0,232.64,36.57Zm.08,9.17a1,1,0,1,0,1-1A1,1,0,0,0,232.72,45.74Zm.1,9.17a.89.89,0,1,0,.89-.89A.89.89,0,0,0,232.82,54.91Zm.08,9.17a.81.81,0,1,0,.81-.81A.81.81,0,0,0,232.9,64.08Zm.1,9.17a.71.71,0,1,0,.71-.71A.71.71,0,0,0,233,73.25Zm.08,9.17a.64.64,0,1,0,.64-.64A.64.64,0,0,0,233.08,82.42Zm.1,9.17a.53.53,0,1,0,.53-.53A.53.53,0,0,0,233.18,91.59Zm.08,9.17a.46.46,0,1,0,.46-.46A.46.46,0,0,0,233.25,100.75Zm.1,9.17a.36.36,0,1,0,.36-.36A.36.36,0,0,0,233.36,109.92Zm.08,9.17a.28.28,0,1,0,.28-.28A.28.28,0,0,0,233.43,119.09Zm.1,9.17a.18.18,0,1,0,.18-.18A.18.18,0,0,0,233.53,128.26Zm.08,9.17a.1.1,0,1,0,.1-.1A.1.1,0,0,0,233.61,137.43Zm-10.52-133A1.45,1.45,0,1,0,224.54,3,1.45,1.45,0,0,0,223.09,4.48Zm0,9.17a1.45,1.45,0,1,0,1.45-1.45A1.45,1.45,0,0,0,223.09,13.64Zm.08,9.17a1.37,1.37,0,1,0,1.37-1.37A1.37,1.37,0,0,0,223.17,22.81Zm.1,9.17a1.27,1.27,0,1,0,1.27-1.27A1.27,1.27,0,0,0,223.27,32Zm.08,9.17a1.2,1.2,0,1,0,1.2-1.2A1.2,1.2,0,0,0,223.35,41.15Zm.08,9.17a1.12,1.12,0,1,0,1.12-1.12A1.12,1.12,0,0,0,223.42,50.32Zm.1,9.17a1,1,0,1,0,1-1A1,1,0,0,0,223.53,59.49Zm.08,9.17a.94.94,0,1,0,.94-.94A.94.94,0,0,0,223.6,68.66Zm.1,9.17a.84.84,0,1,0,.84-.84A.84.84,0,0,0,223.7,77.83Zm.08,9.17a.76.76,0,1,0,.76-.76A.76.76,0,0,0,223.78,87Zm.1,9.17a.66.66,0,1,0,.66-.66A.66.66,0,0,0,223.88,96.17Zm.08,9.17a.58.58,0,1,0,.58-.58A.58.58,0,0,0,224,105.34Zm.1,9.17a.48.48,0,1,0,.48-.48A.48.48,0,0,0,224.06,114.51Zm.08,9.17a.41.41,0,1,0,.41-.41A.41.41,0,0,0,224.14,123.68Zm.1,9.17a.31.31,0,1,0,.31-.31A.31.31,0,0,0,224.24,132.85Zm.08,9.17a.23.23,0,1,0,.23-.23A.23.23,0,0,0,224.31,142Zm.1,9.17a.13.13,0,1,0,.13-.13A.13.13,0,0,0,224.42,151.19Zm.08,9.17a.05.05,0,1,0,.05-.05A.05.05,0,0,0,224.49,160.36ZM213.8,9.06a1.58,1.58,0,1,0,1.58-1.58A1.58,1.58,0,0,0,213.8,9.06Zm.08,9.17a1.5,1.5,0,1,0,1.5-1.5A1.5,1.5,0,0,0,213.87,18.23Zm.1,9.17a1.4,1.4,0,1,0,1.4-1.4A1.4,1.4,0,0,0,214,27.4Zm.08,9.17a1.32,1.32,0,1,0,1.32-1.32A1.32,1.32,0,0,0,214.05,36.57Zm.08,9.17a1.25,1.25,0,1,0,1.25-1.25A1.25,1.25,0,0,0,214.13,45.74Zm.1,9.17a1.14,1.14,0,1,0,1.14-1.14A1.14,1.14,0,0,0,214.23,54.91Zm.08,9.17A1.07,1.07,0,1,0,215.37,63,1.07,1.07,0,0,0,214.31,64.08Zm.1,9.17a1,1,0,1,0,1-1A1,1,0,0,0,214.41,73.25Zm.08,9.17a.89.89,0,1,0,.89-.89A.89.89,0,0,0,214.48,82.42Zm.1,9.17a.79.79,0,1,0,.79-.79A.79.79,0,0,0,214.59,91.59Zm.08,9.17a.71.71,0,1,0,.71-.71A.71.71,0,0,0,214.66,100.75Zm.1,9.17a.61.61,0,1,0,.61-.61A.61.61,0,0,0,214.76,109.92Zm.08,9.17a.53.53,0,1,0,.53-.53A.53.53,0,0,0,214.84,119.09Zm.1,9.17a.43.43,0,1,0,.43-.43A.43.43,0,0,0,214.94,128.26Zm.08,9.17a.36.36,0,1,0,.36-.36A.36.36,0,0,0,215,137.43Zm.1,9.17a.25.25,0,1,0,.25-.25A.25.25,0,0,0,215.12,146.6Zm.08,9.17a.18.18,0,1,0,.18-.18A.18.18,0,0,0,215.2,155.77Zm.1,9.17a.08.08,0,1,0,.08-.08A.08.08,0,0,0,215.3,164.94ZM204.5,4.48a1.7,1.7,0,1,0,1.7-1.7A1.7,1.7,0,0,0,204.5,4.48Zm0,9.17a1.7,1.7,0,1,0,1.7-1.7A1.7,1.7,0,0,0,204.5,13.64Zm.08,9.17a1.63,1.63,0,1,0,1.63-1.63A1.63,1.63,0,0,0,204.58,22.81Zm.1,9.17a1.53,1.53,0,1,0,1.53-1.53A1.53,1.53,0,0,0,204.68,32Zm.08,9.17a1.45,1.45,0,1,0,1.45-1.45A1.45,1.45,0,0,0,204.75,41.15Zm.1,9.17A1.35,1.35,0,1,0,206.2,49,1.35,1.35,0,0,0,204.86,50.32Zm.08,9.17a1.27,1.27,0,1,0,1.27-1.27A1.27,1.27,0,0,0,204.93,59.49Zm.08,9.17a1.2,1.2,0,1,0,1.2-1.2A1.2,1.2,0,0,0,205,68.66Zm.1,9.17a1.09,1.09,0,1,0,1.09-1.09A1.09,1.09,0,0,0,205.11,77.83Zm.08,9.17a1,1,0,1,0,1-1A1,1,0,0,0,205.19,87Zm.1,9.17a.92.92,0,1,0,.92-.92A.92.92,0,0,0,205.29,96.17Zm.08,9.17a.84.84,0,1,0,.84-.84A.84.84,0,0,0,205.36,105.34Zm.1,9.17a.74.74,0,1,0,.74-.74A.74.74,0,0,0,205.47,114.51Zm.08,9.17a.66.66,0,1,0,.66-.66A.66.66,0,0,0,205.54,123.68Zm.1,9.17a.56.56,0,1,0,.56-.56A.56.56,0,0,0,205.64,132.85Zm.08,9.17a.48.48,0,1,0,.48-.48A.48.48,0,0,0,205.72,142Zm.1,9.17a.38.38,0,1,0,.38-.38A.38.38,0,0,0,205.82,151.19Zm.08,9.17a.31.31,0,1,0,.31-.31A.31.31,0,0,0,205.9,160.36Zm.1,9.17a.2.2,0,1,0,.2-.2A.2.2,0,0,0,206,169.53Zm.08,9.17a.13.13,0,1,0,.13-.13A.13.13,0,0,0,206.08,178.7Zm.1,9.17a0,0,0,1,0,.05,0,0,0,0,0,0-.05,0A0,0,0,0,0,206.18,187.87ZM195.2,9.06A1.83,1.83,0,1,0,197,7.23,1.83,1.83,0,0,0,195.2,9.06Zm.08,9.17A1.75,1.75,0,1,0,197,16.47,1.75,1.75,0,0,0,195.28,18.23Zm.1,9.17A1.65,1.65,0,1,0,197,25.75,1.65,1.65,0,0,0,195.38,27.4Zm.08,9.17A1.58,1.58,0,1,0,197,35,1.58,1.58,0,0,0,195.46,36.57Zm.1,9.17A1.47,1.47,0,1,0,197,44.26,1.47,1.47,0,0,0,195.56,45.74Zm.08,9.17a1.4,1.4,0,1,0,1.4-1.4A1.4,1.4,0,0,0,195.64,54.91Zm.08,9.17A1.32,1.32,0,1,0,197,62.75,1.32,1.32,0,0,0,195.71,64.08Zm.1,9.17A1.22,1.22,0,1,0,197,72,1.22,1.22,0,0,0,195.81,73.25Zm.08,9.17A1.14,1.14,0,1,0,197,81.27,1.14,1.14,0,0,0,195.89,82.42Zm.1,9.17a1,1,0,1,0,1-1A1,1,0,0,0,196,91.59Zm.08,9.17a1,1,0,1,0,1-1A1,1,0,0,0,196.07,100.75Zm.1,9.17a.86.86,0,1,0,.86-.86A.86.86,0,0,0,196.17,109.92Zm.08,9.17a.79.79,0,1,0,.79-.79A.79.79,0,0,0,196.25,119.09Zm.1,9.17a.69.69,0,1,0,.69-.69A.69.69,0,0,0,196.35,128.26Zm.08,9.17a.61.61,0,1,0,.61-.61A.61.61,0,0,0,196.42,137.43Zm.1,9.17a.51.51,0,1,0,.51-.51A.51.51,0,0,0,196.53,146.6Zm.08,9.17a.43.43,0,1,0,.43-.43A.43.43,0,0,0,196.6,155.77Zm.1,9.17a.33.33,0,1,0,.33-.33A.33.33,0,0,0,196.7,164.94Zm.08,9.17a.25.25,0,1,0,.25-.25A.25.25,0,0,0,196.78,174.11Zm.1,9.17a.15.15,0,1,0,.15-.15A.15.15,0,0,0,196.88,183.28Zm.08,9.17a.08.08,0,1,0,.08-.08A.08.08,0,0,0,197,192.45Zm-11.05-188a2,2,0,1,0,2-2A2,2,0,0,0,185.91,4.48Zm0,9.17a2,2,0,1,0,2-2A2,2,0,0,0,185.91,13.64Zm.08,9.17a1.88,1.88,0,1,0,1.88-1.88A1.88,1.88,0,0,0,186,22.81Zm.1,9.17a1.78,1.78,0,1,0,1.78-1.78A1.78,1.78,0,0,0,186.09,32Zm.08,9.17a1.7,1.7,0,1,0,1.7-1.7A1.7,1.7,0,0,0,186.16,41.15Zm.1,9.17a1.6,1.6,0,1,0,1.6-1.6A1.6,1.6,0,0,0,186.26,50.32Zm.08,9.17A1.53,1.53,0,1,0,187.87,58,1.53,1.53,0,0,0,186.34,59.49Zm.1,9.17a1.42,1.42,0,1,0,1.42-1.42A1.42,1.42,0,0,0,186.44,68.66Zm.08,9.17a1.35,1.35,0,1,0,1.35-1.35A1.35,1.35,0,0,0,186.52,77.83Zm.08,9.17a1.27,1.27,0,1,0,1.27-1.27A1.27,1.27,0,0,0,186.59,87Zm.1,9.17A1.17,1.17,0,1,0,187.87,95,1.17,1.17,0,0,0,186.7,96.17Zm.08,9.17a1.09,1.09,0,1,0,1.09-1.09A1.09,1.09,0,0,0,186.77,105.34Zm.1,9.17a1,1,0,1,0,1-1A1,1,0,0,0,186.87,114.51Zm.08,9.17a.92.92,0,1,0,.92-.92A.92.92,0,0,0,186.95,123.68Zm.1,9.17a.81.81,0,1,0,.81-.81A.81.81,0,0,0,187.05,132.85Zm.08,9.17a.74.74,0,1,0,.74-.74A.74.74,0,0,0,187.13,142Zm.1,9.17a.64.64,0,1,0,.64-.64A.64.64,0,0,0,187.23,151.19Zm.08,9.17a.56.56,0,1,0,.56-.56A.56.56,0,0,0,187.31,160.36Zm.1,9.17a.46.46,0,1,0,.46-.46A.46.46,0,0,0,187.41,169.53Zm.08,9.17a.38.38,0,1,0,.38-.38A.38.38,0,0,0,187.48,178.7Zm.1,9.17a.28.28,0,1,0,.28-.28A.28.28,0,0,0,187.59,187.87Zm.08,9.17a.2.2,0,1,0,.2-.2A.2.2,0,0,0,187.66,197Zm.1,9.17a.1.1,0,1,0,.1-.1A.1.1,0,0,0,187.76,206.2Zm.08,9.17a0,0,0,1,0,.05,0,0,0,0,0,0-.05,0A0,0,0,0,0,187.84,215.37ZM176.61,9.06A2.08,2.08,0,1,0,178.7,7,2.08,2.08,0,0,0,176.61,9.06Zm.08,9.17a2,2,0,1,0,2-2A2,2,0,0,0,176.69,18.23Zm.1,9.17a1.91,1.91,0,1,0,1.91-1.91A1.91,1.91,0,0,0,176.79,27.4Zm.08,9.17a1.83,1.83,0,1,0,1.83-1.83A1.83,1.83,0,0,0,176.86,36.57Zm.1,9.17A1.73,1.73,0,1,0,178.7,44,1.73,1.73,0,0,0,177,45.74Zm.08,9.17a1.65,1.65,0,1,0,1.65-1.65A1.65,1.65,0,0,0,177,54.91Zm.1,9.17a1.55,1.55,0,1,0,1.55-1.55A1.55,1.55,0,0,0,177.14,64.08Zm.08,9.17a1.47,1.47,0,1,0,1.47-1.47A1.47,1.47,0,0,0,177.22,73.25Zm.1,9.17A1.37,1.37,0,1,0,178.7,81,1.37,1.37,0,0,0,177.32,82.42Zm.08,9.17a1.3,1.3,0,1,0,1.3-1.3A1.3,1.3,0,0,0,177.4,91.59Zm.08,9.17a1.22,1.22,0,1,0,1.22-1.22A1.22,1.22,0,0,0,177.48,100.75Zm.1,9.17a1.12,1.12,0,1,0,1.12-1.12A1.12,1.12,0,0,0,177.58,109.92Zm.08,9.17a1,1,0,1,0,1-1A1,1,0,0,0,177.65,119.09Zm.1,9.17a.94.94,0,1,0,.94-.94A.94.94,0,0,0,177.75,128.26Zm.08,9.17a.86.86,0,1,0,.86-.86A.86.86,0,0,0,177.83,137.43Zm.1,9.17a.76.76,0,1,0,.76-.76A.76.76,0,0,0,177.93,146.6Zm.08,9.17a.69.69,0,1,0,.69-.69A.69.69,0,0,0,178,155.77Zm.1,9.17a.58.58,0,1,0,.58-.58A.58.58,0,0,0,178.11,164.94Zm.08,9.17a.51.51,0,1,0,.51-.51A.51.51,0,0,0,178.19,174.11Zm.1,9.17a.41.41,0,1,0,.41-.41A.41.41,0,0,0,178.29,183.28Zm.08,9.17a.33.33,0,1,0,.33-.33A.33.33,0,0,0,178.36,192.45Zm.1,9.17a.23.23,0,1,0,.23-.23A.23.23,0,0,0,178.47,201.62Zm.08,9.17a.15.15,0,1,0,.15-.15A.15.15,0,0,0,178.54,210.79Zm.1,9.17a.05.05,0,1,0,.05-.05A.05.05,0,0,0,178.64,220ZM167.31,4.48a2.21,2.21,0,1,0,2.21-2.21A2.21,2.21,0,0,0,167.31,4.48Zm0,9.17a2.21,2.21,0,1,0,2.21-2.21A2.21,2.21,0,0,0,167.31,13.64Zm.08,9.17a2.14,2.14,0,1,0,2.14-2.14A2.14,2.14,0,0,0,167.39,22.81Zm.1,9.17a2,2,0,1,0,2-2A2,2,0,0,0,167.49,32Zm.08,9.17a2,2,0,1,0,2-2A2,2,0,0,0,167.57,41.15Zm.1,9.17a1.86,1.86,0,1,0,1.86-1.86A1.86,1.86,0,0,0,167.67,50.32Zm.08,9.17a1.78,1.78,0,1,0,1.78-1.78A1.78,1.78,0,0,0,167.75,59.49Zm.1,9.17A1.68,1.68,0,1,0,169.53,67,1.68,1.68,0,0,0,167.85,68.66Zm.08,9.17a1.6,1.6,0,1,0,1.6-1.6A1.6,1.6,0,0,0,167.92,77.83ZM168,87a1.5,1.5,0,1,0,1.5-1.5A1.5,1.5,0,0,0,168,87Zm.08,9.17a1.42,1.42,0,1,0,1.42-1.42A1.42,1.42,0,0,0,168.1,96.17Zm.08,9.17a1.35,1.35,0,1,0,1.35-1.35A1.35,1.35,0,0,0,168.18,105.34Zm.1,9.17a1.25,1.25,0,1,0,1.25-1.25A1.25,1.25,0,0,0,168.28,114.51Zm.08,9.17a1.17,1.17,0,1,0,1.17-1.17A1.17,1.17,0,0,0,168.36,123.68Zm.1,9.17a1.07,1.07,0,1,0,1.07-1.07A1.07,1.07,0,0,0,168.46,132.85Zm.08,9.17a1,1,0,1,0,1-1A1,1,0,0,0,168.53,142Zm.1,9.17a.89.89,0,1,0,.89-.89A.89.89,0,0,0,168.64,151.19Zm.08,9.17a.81.81,0,1,0,.81-.81A.81.81,0,0,0,168.71,160.36Zm.1,9.17a.71.71,0,1,0,.71-.71A.71.71,0,0,0,168.81,169.53Zm.08,9.17a.64.64,0,1,0,.64-.64A.64.64,0,0,0,168.89,178.7Zm.1,9.17a.53.53,0,1,0,.53-.53A.53.53,0,0,0,169,187.87Zm.08,9.17a.46.46,0,1,0,.46-.46A.46.46,0,0,0,169.07,197Zm.1,9.17a.36.36,0,1,0,.36-.36A.36.36,0,0,0,169.17,206.2Zm.08,9.17a.28.28,0,1,0,.28-.28A.28.28,0,0,0,169.25,215.37Zm.1,9.17a.18.18,0,1,0,.18-.18A.18.18,0,0,0,169.35,224.54ZM158,9.06a2.34,2.34,0,1,0,2.34-2.34A2.34,2.34,0,0,0,158,9.06Zm.08,9.17A2.26,2.26,0,1,0,160.36,16,2.26,2.26,0,0,0,158.09,18.23Zm.1,9.17a2.16,2.16,0,1,0,2.16-2.16A2.16,2.16,0,0,0,158.2,27.4Zm.08,9.17a2.08,2.08,0,1,0,2.08-2.08A2.08,2.08,0,0,0,158.27,36.57Zm.1,9.17a2,2,0,1,0,2-2A2,2,0,0,0,158.37,45.74Zm.08,9.17A1.91,1.91,0,1,0,160.36,53,1.91,1.91,0,0,0,158.45,54.91Zm.1,9.17a1.81,1.81,0,1,0,1.81-1.81A1.81,1.81,0,0,0,158.55,64.08Zm.08,9.17a1.73,1.73,0,1,0,1.73-1.73A1.73,1.73,0,0,0,158.63,73.25Zm.1,9.17a1.63,1.63,0,1,0,1.63-1.63A1.63,1.63,0,0,0,158.73,82.42Zm.08,9.17A1.55,1.55,0,1,0,160.36,90,1.55,1.55,0,0,0,158.81,91.59Zm.08,9.17a1.47,1.47,0,1,0,1.47-1.47A1.47,1.47,0,0,0,158.88,100.75Zm.1,9.17a1.37,1.37,0,1,0,1.37-1.37A1.37,1.37,0,0,0,159,109.92Zm.08,9.17a1.3,1.3,0,1,0,1.3-1.3A1.3,1.3,0,0,0,159.06,119.09Zm.1,9.17a1.2,1.2,0,1,0,1.2-1.2A1.2,1.2,0,0,0,159.16,128.26Zm.08,9.17a1.12,1.12,0,1,0,1.12-1.12A1.12,1.12,0,0,0,159.24,137.43Zm.1,9.17a1,1,0,1,0,1-1A1,1,0,0,0,159.34,146.6Zm.08,9.17a.94.94,0,1,0,.94-.94A.94.94,0,0,0,159.42,155.77Zm.1,9.17a.84.84,0,1,0,.84-.84A.84.84,0,0,0,159.52,164.94Zm.08,9.17a.76.76,0,1,0,.76-.76A.76.76,0,0,0,159.59,174.11Zm.1,9.17a.66.66,0,1,0,.66-.66A.66.66,0,0,0,159.7,183.28Zm.08,9.17a.58.58,0,1,0,.58-.58A.58.58,0,0,0,159.77,192.45Zm.1,9.17a.48.48,0,1,0,.48-.48A.48.48,0,0,0,159.87,201.62Zm.08,9.17a.41.41,0,1,0,.41-.41A.41.41,0,0,0,159.95,210.79Zm.1,9.17a.31.31,0,1,0,.31-.31A.31.31,0,0,0,160.05,220ZM148.72,4.48A2.47,2.47,0,1,0,151.19,2,2.47,2.47,0,0,0,148.72,4.48Zm0,9.17a2.47,2.47,0,1,0,2.47-2.47A2.47,2.47,0,0,0,148.72,13.64Zm.08,9.17a2.39,2.39,0,1,0,2.39-2.39A2.39,2.39,0,0,0,148.8,22.81Zm.1,9.17a2.29,2.29,0,1,0,2.29-2.29A2.29,2.29,0,0,0,148.9,32Zm.08,9.17a2.21,2.21,0,1,0,2.21-2.21A2.21,2.21,0,0,0,149,41.15Zm.1,9.17a2.11,2.11,0,1,0,2.11-2.11A2.11,2.11,0,0,0,149.08,50.32Zm.08,9.17a2,2,0,1,0,2-2A2,2,0,0,0,149.15,59.49Zm.1,9.17a1.93,1.93,0,1,0,1.93-1.93A1.93,1.93,0,0,0,149.25,68.66Zm.08,9.17A1.86,1.86,0,1,0,151.19,76,1.86,1.86,0,0,0,149.33,77.83Zm.1,9.17a1.75,1.75,0,1,0,1.75-1.75A1.75,1.75,0,0,0,149.43,87Zm.08,9.17a1.68,1.68,0,1,0,1.68-1.68A1.68,1.68,0,0,0,149.51,96.17Zm.1,9.17a1.58,1.58,0,1,0,1.58-1.58A1.58,1.58,0,0,0,149.61,105.34Zm.08,9.17a1.5,1.5,0,1,0,1.5-1.5A1.5,1.5,0,0,0,149.69,114.51Zm.1,9.17a1.4,1.4,0,1,0,1.4-1.4A1.4,1.4,0,0,0,149.79,123.68Zm.08,9.17a1.32,1.32,0,1,0,1.32-1.32A1.32,1.32,0,0,0,149.86,132.85Zm.08,9.17a1.25,1.25,0,1,0,1.25-1.25A1.25,1.25,0,0,0,149.94,142Zm.1,9.17a1.14,1.14,0,1,0,1.14-1.14A1.14,1.14,0,0,0,150,151.19Zm.08,9.17a1.07,1.07,0,1,0,1.07-1.07A1.07,1.07,0,0,0,150.12,160.36Zm.1,9.17a1,1,0,1,0,1-1A1,1,0,0,0,150.22,169.53Zm.08,9.17a.89.89,0,1,0,.89-.89A.89.89,0,0,0,150.3,178.7Zm.1,9.17a.79.79,0,1,0,.79-.79A.79.79,0,0,0,150.4,187.87Zm.08,9.17a.71.71,0,1,0,.71-.71A.71.71,0,0,0,150.48,197Zm.1,9.17a.61.61,0,1,0,.61-.61A.61.61,0,0,0,150.58,206.2Zm.08,9.17a.53.53,0,1,0,.53-.53A.53.53,0,0,0,150.65,215.37Zm.1,9.17a.43.43,0,1,0,.43-.43A.43.43,0,0,0,150.75,224.54ZM139.42,9.06A2.59,2.59,0,1,0,142,6.47,2.59,2.59,0,0,0,139.42,9.06Zm.08,9.17A2.52,2.52,0,1,0,142,15.71,2.52,2.52,0,0,0,139.5,18.23Zm.1,9.17A2.42,2.42,0,1,0,142,25,2.42,2.42,0,0,0,139.6,27.4Zm.08,9.17A2.34,2.34,0,1,0,142,34.23,2.34,2.34,0,0,0,139.68,36.57Zm.1,9.17A2.24,2.24,0,1,0,142,43.5,2.24,2.24,0,0,0,139.78,45.74Zm.08,9.17A2.16,2.16,0,1,0,142,52.75,2.16,2.16,0,0,0,139.86,54.91Zm.1,9.17A2.06,2.06,0,1,0,142,62,2.06,2.06,0,0,0,140,64.08Zm.08,9.17a2,2,0,1,0,2-2A2,2,0,0,0,140,73.25Zm.1,9.17A1.88,1.88,0,1,0,142,80.53,1.88,1.88,0,0,0,140.14,82.42Zm.08,9.17A1.81,1.81,0,1,0,142,89.78,1.81,1.81,0,0,0,140.21,91.59Zm.1,9.17a1.7,1.7,0,1,0,1.7-1.7A1.7,1.7,0,0,0,140.31,100.75Zm.08,9.17A1.63,1.63,0,1,0,142,108.3,1.63,1.63,0,0,0,140.39,109.92Zm.1,9.17a1.53,1.53,0,1,0,1.53-1.53A1.53,1.53,0,0,0,140.49,119.09Zm.08,9.17a1.45,1.45,0,1,0,1.45-1.45A1.45,1.45,0,0,0,140.57,128.26Zm.08,9.17a1.37,1.37,0,1,0,1.37-1.37A1.37,1.37,0,0,0,140.64,137.43Zm.1,9.17a1.27,1.27,0,1,0,1.27-1.27A1.27,1.27,0,0,0,140.75,146.6Zm.08,9.17a1.2,1.2,0,1,0,1.2-1.2A1.2,1.2,0,0,0,140.82,155.77Zm.1,9.17a1.09,1.09,0,1,0,1.09-1.09A1.09,1.09,0,0,0,140.92,164.94Zm.08,9.17a1,1,0,1,0,1-1A1,1,0,0,0,141,174.11Zm.1,9.17a.92.92,0,1,0,.92-.92A.92.92,0,0,0,141.1,183.28Zm.08,9.17a.84.84,0,1,0,.84-.84A.84.84,0,0,0,141.18,192.45Zm.1,9.17a.74.74,0,1,0,.74-.74A.74.74,0,0,0,141.28,201.62Zm.08,9.17a.66.66,0,1,0,.66-.66A.66.66,0,0,0,141.36,210.79Zm.1,9.17a.56.56,0,1,0,.56-.56A.56.56,0,0,0,141.46,220ZM130.13,4.48a2.72,2.72,0,1,0,2.72-2.72A2.72,2.72,0,0,0,130.13,4.48Zm0,9.17a2.72,2.72,0,1,0,2.72-2.72A2.72,2.72,0,0,0,130.13,13.64Zm.08,9.17a2.64,2.64,0,1,0,2.64-2.64A2.64,2.64,0,0,0,130.2,22.81Zm.1,9.17a2.54,2.54,0,1,0,2.54-2.54A2.54,2.54,0,0,0,130.31,32Zm.08,9.17a2.47,2.47,0,1,0,2.47-2.47A2.47,2.47,0,0,0,130.38,41.15Zm.1,9.17A2.36,2.36,0,1,0,132.85,48,2.36,2.36,0,0,0,130.48,50.32Zm.08,9.17a2.29,2.29,0,1,0,2.29-2.29A2.29,2.29,0,0,0,130.56,59.49Zm.1,9.17a2.19,2.19,0,1,0,2.19-2.19A2.19,2.19,0,0,0,130.66,68.66Zm.08,9.17a2.11,2.11,0,1,0,2.11-2.11A2.11,2.11,0,0,0,130.74,77.83Zm.1,9.17a2,2,0,1,0,2-2A2,2,0,0,0,130.84,87Zm.08,9.17a1.93,1.93,0,1,0,1.93-1.93A1.93,1.93,0,0,0,130.92,96.17Zm.1,9.17a1.83,1.83,0,1,0,1.83-1.83A1.83,1.83,0,0,0,131,105.34Zm.08,9.17a1.75,1.75,0,1,0,1.75-1.75A1.75,1.75,0,0,0,131.09,114.51Zm.1,9.17a1.65,1.65,0,1,0,1.65-1.65A1.65,1.65,0,0,0,131.2,123.68Zm.08,9.17a1.58,1.58,0,1,0,1.58-1.58A1.58,1.58,0,0,0,131.27,132.85Zm.08,9.17a1.5,1.5,0,1,0,1.5-1.5A1.5,1.5,0,0,0,131.35,142Zm.1,9.17a1.4,1.4,0,1,0,1.4-1.4A1.4,1.4,0,0,0,131.45,151.19Zm.08,9.17a1.32,1.32,0,1,0,1.32-1.32A1.32,1.32,0,0,0,131.53,160.36Zm.1,9.17a1.22,1.22,0,1,0,1.22-1.22A1.22,1.22,0,0,0,131.63,169.53Zm.08,9.17a1.14,1.14,0,1,0,1.14-1.14A1.14,1.14,0,0,0,131.7,178.7Zm.1,9.17a1,1,0,1,0,1-1A1,1,0,0,0,131.81,187.87Zm.08,9.17a1,1,0,1,0,1-1A1,1,0,0,0,131.88,197Zm.1,9.17a.86.86,0,1,0,.86-.86A.86.86,0,0,0,132,206.2Zm.08,9.17a.79.79,0,1,0,.79-.79A.79.79,0,0,0,132.06,215.37Zm.1,9.17a.69.69,0,1,0,.69-.69A.69.69,0,0,0,132.16,224.54ZM120.83,9.06a2.85,2.85,0,1,0,2.85-2.85A2.85,2.85,0,0,0,120.83,9.06Zm.08,9.17a2.77,2.77,0,1,0,2.77-2.77A2.77,2.77,0,0,0,120.91,18.23Zm.1,9.17a2.67,2.67,0,1,0,2.67-2.67A2.67,2.67,0,0,0,121,27.4Zm.08,9.17A2.59,2.59,0,1,0,123.68,34,2.59,2.59,0,0,0,121.09,36.57Zm.1,9.17a2.49,2.49,0,1,0,2.49-2.49A2.49,2.49,0,0,0,121.19,45.74Zm.08,9.17a2.42,2.42,0,1,0,2.42-2.42A2.42,2.42,0,0,0,121.26,54.91Zm.1,9.17a2.31,2.31,0,1,0,2.31-2.31A2.31,2.31,0,0,0,121.36,64.08Zm.08,9.17A2.24,2.24,0,1,0,123.68,71,2.24,2.24,0,0,0,121.44,73.25Zm.1,9.17a2.14,2.14,0,1,0,2.14-2.14A2.14,2.14,0,0,0,121.54,82.42Zm.08,9.17a2.06,2.06,0,1,0,2.06-2.06A2.06,2.06,0,0,0,121.62,91.59Zm.1,9.17a2,2,0,1,0,2-2A2,2,0,0,0,121.72,100.75Zm.08,9.17a1.88,1.88,0,1,0,1.88-1.88A1.88,1.88,0,0,0,121.8,109.92Zm.1,9.17a1.78,1.78,0,1,0,1.78-1.78A1.78,1.78,0,0,0,121.9,119.09Zm.08,9.17a1.7,1.7,0,1,0,1.7-1.7A1.7,1.7,0,0,0,122,128.26Zm.1,9.17a1.6,1.6,0,1,0,1.6-1.6A1.6,1.6,0,0,0,122.08,137.43Zm.08,9.17a1.53,1.53,0,1,0,1.53-1.53A1.53,1.53,0,0,0,122.15,146.6Zm.1,9.17a1.42,1.42,0,1,0,1.42-1.42A1.42,1.42,0,0,0,122.25,155.77Zm.08,9.17a1.35,1.35,0,1,0,1.35-1.35A1.35,1.35,0,0,0,122.33,164.94Zm.08,9.17a1.27,1.27,0,1,0,1.27-1.27A1.27,1.27,0,0,0,122.41,174.11Zm.1,9.17a1.17,1.17,0,1,0,1.17-1.17A1.17,1.17,0,0,0,122.51,183.28Zm.08,9.17a1.09,1.09,0,1,0,1.09-1.09A1.09,1.09,0,0,0,122.59,192.45Zm.1,9.17a1,1,0,1,0,1-1A1,1,0,0,0,122.69,201.62Zm.08,9.17a.92.92,0,1,0,.92-.92A.92.92,0,0,0,122.76,210.79Zm.1,9.17a.81.81,0,1,0,.81-.81A.81.81,0,0,0,122.86,220ZM111.53,4.48a3,3,0,1,0,3-3A3,3,0,0,0,111.53,4.48Zm0,9.17a3,3,0,1,0,3-3A3,3,0,0,0,111.53,13.64Zm.08,9.17a2.9,2.9,0,1,0,2.9-2.9A2.9,2.9,0,0,0,111.61,22.81Zm.1,9.17a2.8,2.8,0,1,0,2.8-2.8A2.8,2.8,0,0,0,111.71,32Zm.08,9.17a2.72,2.72,0,1,0,2.72-2.72A2.72,2.72,0,0,0,111.79,41.15Zm.1,9.17a2.62,2.62,0,1,0,2.62-2.62A2.62,2.62,0,0,0,111.89,50.32Zm.08,9.17a2.54,2.54,0,1,0,2.54-2.54A2.54,2.54,0,0,0,112,59.49Zm.1,9.17a2.44,2.44,0,1,0,2.44-2.44A2.44,2.44,0,0,0,112.07,68.66Zm.08,9.17a2.36,2.36,0,1,0,2.36-2.36A2.36,2.36,0,0,0,112.14,77.83Zm.1,9.17a2.26,2.26,0,1,0,2.26-2.26A2.26,2.26,0,0,0,112.25,87Zm.08,9.17A2.19,2.19,0,1,0,114.51,94,2.19,2.19,0,0,0,112.32,96.17Zm.1,9.17a2.08,2.08,0,1,0,2.08-2.08A2.08,2.08,0,0,0,112.42,105.34Zm.08,9.17a2,2,0,1,0,2-2A2,2,0,0,0,112.5,114.51Zm.1,9.17a1.91,1.91,0,1,0,1.91-1.91A1.91,1.91,0,0,0,112.6,123.68Zm.08,9.17a1.83,1.83,0,1,0,1.83-1.83A1.83,1.83,0,0,0,112.68,132.85Zm.1,9.17a1.73,1.73,0,1,0,1.73-1.73A1.73,1.73,0,0,0,112.78,142Zm.08,9.17a1.65,1.65,0,1,0,1.65-1.65A1.65,1.65,0,0,0,112.86,151.19Zm.1,9.17a1.55,1.55,0,1,0,1.55-1.55A1.55,1.55,0,0,0,113,160.36Zm.08,9.17a1.47,1.47,0,1,0,1.47-1.47A1.47,1.47,0,0,0,113,169.53Zm.08,9.17a1.4,1.4,0,1,0,1.4-1.4A1.4,1.4,0,0,0,113.11,178.7Zm.1,9.17a1.3,1.3,0,1,0,1.3-1.3A1.3,1.3,0,0,0,113.21,187.87Zm.08,9.17a1.22,1.22,0,1,0,1.22-1.22A1.22,1.22,0,0,0,113.29,197Zm.1,9.17a1.12,1.12,0,1,0,1.12-1.12A1.12,1.12,0,0,0,113.39,206.2Zm.08,9.17a1,1,0,1,0,1-1A1,1,0,0,0,113.47,215.37Zm.1,9.17a.94.94,0,1,0,.94-.94A.94.94,0,0,0,113.57,224.54ZM102.24,9.06a3.1,3.1,0,1,0,3.1-3.1A3.1,3.1,0,0,0,102.24,9.06Zm.08,9.17a3,3,0,1,0,3-3A3,3,0,0,0,102.31,18.23Zm.1,9.17a2.92,2.92,0,1,0,2.92-2.92A2.92,2.92,0,0,0,102.42,27.4Zm.08,9.17a2.85,2.85,0,1,0,2.85-2.85A2.85,2.85,0,0,0,102.49,36.57Zm.1,9.17A2.75,2.75,0,1,0,105.34,43,2.75,2.75,0,0,0,102.59,45.74Zm.08,9.17a2.67,2.67,0,1,0,2.67-2.67A2.67,2.67,0,0,0,102.67,54.91Zm.1,9.17a2.57,2.57,0,1,0,2.57-2.57A2.57,2.57,0,0,0,102.77,64.08Zm.08,9.17a2.49,2.49,0,1,0,2.49-2.49A2.49,2.49,0,0,0,102.85,73.25Zm.1,9.17A2.39,2.39,0,1,0,105.34,80,2.39,2.39,0,0,0,102.95,82.42Zm.08,9.17a2.31,2.31,0,1,0,2.31-2.31A2.31,2.31,0,0,0,103,91.59Zm.1,9.17a2.21,2.21,0,1,0,2.21-2.21A2.21,2.21,0,0,0,103.13,100.75Zm.08,9.17a2.14,2.14,0,1,0,2.14-2.14A2.14,2.14,0,0,0,103.2,109.92Zm.1,9.17a2,2,0,1,0,2-2A2,2,0,0,0,103.31,119.09Zm.08,9.17a2,2,0,1,0,2-2A2,2,0,0,0,103.38,128.26Zm.1,9.17a1.86,1.86,0,1,0,1.86-1.86A1.86,1.86,0,0,0,103.48,137.43Zm.08,9.17a1.78,1.78,0,1,0,1.78-1.78A1.78,1.78,0,0,0,103.56,146.6Zm.1,9.17a1.68,1.68,0,1,0,1.68-1.68A1.68,1.68,0,0,0,103.66,155.77Zm.08,9.17a1.6,1.6,0,1,0,1.6-1.6A1.6,1.6,0,0,0,103.74,164.94Zm.08,9.17a1.53,1.53,0,1,0,1.53-1.53A1.53,1.53,0,0,0,103.81,174.11Zm.1,9.17a1.42,1.42,0,1,0,1.42-1.42A1.42,1.42,0,0,0,103.92,183.28Zm.08,9.17a1.35,1.35,0,1,0,1.35-1.35A1.35,1.35,0,0,0,104,192.45Zm.1,9.17a1.25,1.25,0,1,0,1.25-1.25A1.25,1.25,0,0,0,104.09,201.62Zm.08,9.17a1.17,1.17,0,1,0,1.17-1.17A1.17,1.17,0,0,0,104.17,210.79Zm.1,9.17a1.07,1.07,0,1,0,1.07-1.07A1.07,1.07,0,0,0,104.27,220ZM92.94,4.48a3.23,3.23,0,1,0,3.23-3.23A3.23,3.23,0,0,0,92.94,4.48Zm0,9.17a3.23,3.23,0,1,0,3.23-3.23A3.23,3.23,0,0,0,92.94,13.64Zm.1,9.17a3.13,3.13,0,1,0,3.13-3.13A3.13,3.13,0,0,0,93,22.81ZM93.12,32a3.05,3.05,0,1,0,3.05-3.05A3.05,3.05,0,0,0,93.12,32Zm.08,9.17a3,3,0,1,0,3-3A3,3,0,0,0,93.2,41.15Zm.1,9.17a2.87,2.87,0,1,0,2.87-2.87A2.87,2.87,0,0,0,93.3,50.32Zm.08,9.17a2.8,2.8,0,1,0,2.8-2.8A2.8,2.8,0,0,0,93.37,59.49Zm.1,9.17a2.7,2.7,0,1,0,2.7-2.7A2.7,2.7,0,0,0,93.47,68.66Zm.08,9.17a2.62,2.62,0,1,0,2.62-2.62A2.62,2.62,0,0,0,93.55,77.83Zm.1,9.17a2.52,2.52,0,1,0,2.52-2.52A2.52,2.52,0,0,0,93.65,87Zm.08,9.17a2.44,2.44,0,1,0,2.44-2.44A2.44,2.44,0,0,0,93.73,96.17Zm.1,9.17A2.34,2.34,0,1,0,96.17,103,2.34,2.34,0,0,0,93.83,105.34Zm.08,9.17a2.26,2.26,0,1,0,2.26-2.26A2.26,2.26,0,0,0,93.91,114.51Zm.1,9.17a2.16,2.16,0,1,0,2.16-2.16A2.16,2.16,0,0,0,94,123.68Zm.08,9.17a2.08,2.08,0,1,0,2.08-2.08A2.08,2.08,0,0,0,94.09,132.85Zm.1,9.17a2,2,0,1,0,2-2A2,2,0,0,0,94.19,142Zm.08,9.17a1.91,1.91,0,1,0,1.91-1.91A1.91,1.91,0,0,0,94.26,151.19Zm.1,9.17a1.81,1.81,0,1,0,1.81-1.81A1.81,1.81,0,0,0,94.36,160.36Zm.08,9.17a1.73,1.73,0,1,0,1.73-1.73A1.73,1.73,0,0,0,94.44,169.53Zm.1,9.17a1.63,1.63,0,1,0,1.63-1.63A1.63,1.63,0,0,0,94.54,178.7Zm.08,9.17a1.55,1.55,0,1,0,1.55-1.55A1.55,1.55,0,0,0,94.62,187.87ZM94.7,197a1.47,1.47,0,1,0,1.47-1.47A1.47,1.47,0,0,0,94.7,197Zm.1,9.17a1.37,1.37,0,1,0,1.37-1.37A1.37,1.37,0,0,0,94.8,206.2Zm.08,9.17a1.3,1.3,0,1,0,1.3-1.3A1.3,1.3,0,0,0,94.87,215.37Zm.1,9.17a1.2,1.2,0,1,0,1.2-1.2A1.2,1.2,0,0,0,95,224.54ZM83.64,9.06A3.36,3.36,0,1,0,87,5.7,3.36,3.36,0,0,0,83.64,9.06Zm.1,9.17A3.25,3.25,0,1,0,87,15,3.25,3.25,0,0,0,83.75,18.23Zm.08,9.17A3.18,3.18,0,1,0,87,24.22,3.18,3.18,0,0,0,83.82,27.4Zm.1,9.17A3.08,3.08,0,1,0,87,33.49,3.08,3.08,0,0,0,83.92,36.57ZM84,45.74a3,3,0,1,0,3-3A3,3,0,0,0,84,45.74Zm.08,9.17A2.92,2.92,0,1,0,87,52,2.92,2.92,0,0,0,84.08,54.91Zm.1,9.17A2.82,2.82,0,1,0,87,61.25,2.82,2.82,0,0,0,84.18,64.08Zm.08,9.17A2.75,2.75,0,1,0,87,70.5,2.75,2.75,0,0,0,84.25,73.25Zm.1,9.17A2.64,2.64,0,1,0,87,79.77,2.64,2.64,0,0,0,84.36,82.42Zm.08,9.17A2.57,2.57,0,1,0,87,89,2.57,2.57,0,0,0,84.43,91.59Zm.1,9.17A2.47,2.47,0,1,0,87,98.29,2.47,2.47,0,0,0,84.53,100.75Zm.08,9.17A2.39,2.39,0,1,0,87,107.53,2.39,2.39,0,0,0,84.61,109.92Zm.1,9.17A2.29,2.29,0,1,0,87,116.81,2.29,2.29,0,0,0,84.71,119.09Zm.08,9.17A2.21,2.21,0,1,0,87,126.05,2.21,2.21,0,0,0,84.79,128.26Zm.1,9.17A2.11,2.11,0,1,0,87,135.32,2.11,2.11,0,0,0,84.89,137.43ZM85,146.6a2,2,0,1,0,2-2A2,2,0,0,0,85,146.6Zm.1,9.17A1.93,1.93,0,1,0,87,153.84,1.93,1.93,0,0,0,85.07,155.77Zm.08,9.17A1.86,1.86,0,1,0,87,163.09,1.86,1.86,0,0,0,85.14,164.94Zm.1,9.17A1.75,1.75,0,1,0,87,172.36,1.75,1.75,0,0,0,85.25,174.11Zm.08,9.17A1.68,1.68,0,1,0,87,181.6,1.68,1.68,0,0,0,85.32,183.28Zm.08,9.17a1.6,1.6,0,1,0,1.6-1.6A1.6,1.6,0,0,0,85.4,192.45Zm.1,9.17a1.5,1.5,0,1,0,1.5-1.5A1.5,1.5,0,0,0,85.5,201.62Zm.08,9.17A1.42,1.42,0,1,0,87,209.36,1.42,1.42,0,0,0,85.58,210.79Zm.1,9.17A1.32,1.32,0,1,0,87,218.64,1.32,1.32,0,0,0,85.68,220ZM74.35,4.48A3.48,3.48,0,1,0,77.83,1,3.48,3.48,0,0,0,74.35,4.48Zm0,9.17a3.48,3.48,0,1,0,3.48-3.48A3.48,3.48,0,0,0,74.35,13.64Zm.1,9.17a3.38,3.38,0,1,0,3.38-3.38A3.38,3.38,0,0,0,74.45,22.81ZM74.53,32a3.31,3.31,0,1,0,3.31-3.31A3.31,3.31,0,0,0,74.53,32Zm.1,9.17a3.2,3.2,0,1,0,3.2-3.2A3.2,3.2,0,0,0,74.63,41.15Zm.08,9.17a3.13,3.13,0,1,0,3.13-3.13A3.13,3.13,0,0,0,74.7,50.32Zm.08,9.17a3.05,3.05,0,1,0,3.05-3.05A3.05,3.05,0,0,0,74.78,59.49Zm.1,9.17a2.95,2.95,0,1,0,2.95-2.95A2.95,2.95,0,0,0,74.88,68.66ZM75,77.83A2.87,2.87,0,1,0,77.83,75,2.87,2.87,0,0,0,75,77.83Zm.1,9.17a2.77,2.77,0,1,0,2.77-2.77A2.77,2.77,0,0,0,75.06,87Zm.08,9.17a2.7,2.7,0,1,0,2.7-2.7A2.7,2.7,0,0,0,75.14,96.17Zm.1,9.17a2.59,2.59,0,1,0,2.59-2.59A2.59,2.59,0,0,0,75.24,105.34Zm.08,9.17A2.52,2.52,0,1,0,77.83,112,2.52,2.52,0,0,0,75.31,114.51Zm.1,9.17a2.42,2.42,0,1,0,2.42-2.42A2.42,2.42,0,0,0,75.42,123.68Zm.08,9.17a2.34,2.34,0,1,0,2.34-2.34A2.34,2.34,0,0,0,75.49,132.85Zm.1,9.17a2.24,2.24,0,1,0,2.24-2.24A2.24,2.24,0,0,0,75.59,142Zm.08,9.17A2.16,2.16,0,1,0,77.83,149,2.16,2.16,0,0,0,75.67,151.19Zm.1,9.17a2.06,2.06,0,1,0,2.06-2.06A2.06,2.06,0,0,0,75.77,160.36Zm.08,9.17a2,2,0,1,0,2-2A2,2,0,0,0,75.85,169.53Zm.1,9.17a1.88,1.88,0,1,0,1.88-1.88A1.88,1.88,0,0,0,75.95,178.7Zm.08,9.17a1.81,1.81,0,1,0,1.81-1.81A1.81,1.81,0,0,0,76,187.87ZM76.1,197a1.73,1.73,0,1,0,1.73-1.73A1.73,1.73,0,0,0,76.1,197Zm.1,9.17a1.63,1.63,0,1,0,1.63-1.63A1.63,1.63,0,0,0,76.2,206.2Zm.08,9.17a1.55,1.55,0,1,0,1.55-1.55A1.55,1.55,0,0,0,76.28,215.37Zm.1,9.17a1.45,1.45,0,1,0,1.45-1.45A1.45,1.45,0,0,0,76.38,224.54ZM65.05,9.06a3.61,3.61,0,1,0,3.61-3.61A3.61,3.61,0,0,0,65.05,9.06Zm.1,9.17a3.51,3.51,0,1,0,3.51-3.51A3.51,3.51,0,0,0,65.15,18.23Zm.08,9.17A3.43,3.43,0,1,0,68.66,24,3.43,3.43,0,0,0,65.23,27.4Zm.1,9.17a3.33,3.33,0,1,0,3.33-3.33A3.33,3.33,0,0,0,65.33,36.57Zm.08,9.17a3.25,3.25,0,1,0,3.25-3.25A3.25,3.25,0,0,0,65.41,45.74Zm.1,9.17a3.15,3.15,0,1,0,3.15-3.15A3.15,3.15,0,0,0,65.51,54.91Zm.08,9.17A3.08,3.08,0,1,0,68.66,61,3.08,3.08,0,0,0,65.58,64.08Zm.08,9.17a3,3,0,1,0,3-3A3,3,0,0,0,65.66,73.25Zm.1,9.17a2.9,2.9,0,1,0,2.9-2.9A2.9,2.9,0,0,0,65.76,82.42Zm.08,9.17a2.82,2.82,0,1,0,2.82-2.82A2.82,2.82,0,0,0,65.84,91.59Zm.1,9.17A2.72,2.72,0,1,0,68.66,98,2.72,2.72,0,0,0,65.94,100.75Zm.08,9.17a2.64,2.64,0,1,0,2.64-2.64A2.64,2.64,0,0,0,66,109.92Zm.1,9.17a2.54,2.54,0,1,0,2.54-2.54A2.54,2.54,0,0,0,66.12,119.09Zm.08,9.17a2.47,2.47,0,1,0,2.47-2.47A2.47,2.47,0,0,0,66.2,128.26Zm.1,9.17a2.36,2.36,0,1,0,2.36-2.36A2.36,2.36,0,0,0,66.3,137.43Zm.08,9.17a2.29,2.29,0,1,0,2.29-2.29A2.29,2.29,0,0,0,66.37,146.6Zm.1,9.17a2.19,2.19,0,1,0,2.19-2.19A2.19,2.19,0,0,0,66.47,155.77Zm.08,9.17a2.11,2.11,0,1,0,2.11-2.11A2.11,2.11,0,0,0,66.55,164.94Zm.1,9.17a2,2,0,1,0,2-2A2,2,0,0,0,66.65,174.11Zm.08,9.17a1.93,1.93,0,1,0,1.93-1.93A1.93,1.93,0,0,0,66.73,183.28Zm.1,9.17a1.83,1.83,0,1,0,1.83-1.83A1.83,1.83,0,0,0,66.83,192.45Zm.08,9.17a1.75,1.75,0,1,0,1.75-1.75A1.75,1.75,0,0,0,66.91,201.62Zm.1,9.17a1.65,1.65,0,1,0,1.65-1.65A1.65,1.65,0,0,0,67,210.79Zm.08,9.17a1.58,1.58,0,1,0,1.58-1.58A1.58,1.58,0,0,0,67.09,220ZM55.75,4.48A3.74,3.74,0,1,0,59.49.74,3.74,3.74,0,0,0,55.75,4.48Zm0,9.17a3.74,3.74,0,1,0,3.74-3.74A3.74,3.74,0,0,0,55.75,13.64Zm.1,9.17a3.64,3.64,0,1,0,3.64-3.64A3.64,3.64,0,0,0,55.86,22.81ZM55.93,32a3.56,3.56,0,1,0,3.56-3.56A3.56,3.56,0,0,0,55.93,32Zm.1,9.17a3.46,3.46,0,1,0,3.46-3.46A3.46,3.46,0,0,0,56,41.15Zm.08,9.17a3.38,3.38,0,1,0,3.38-3.38A3.38,3.38,0,0,0,56.11,50.32Zm.1,9.17a3.28,3.28,0,1,0,3.28-3.28A3.28,3.28,0,0,0,56.21,59.49Zm.08,9.17a3.2,3.2,0,1,0,3.2-3.2A3.2,3.2,0,0,0,56.29,68.66Zm.1,9.17a3.1,3.1,0,1,0,3.1-3.1A3.1,3.1,0,0,0,56.39,77.83ZM56.47,87a3,3,0,1,0,3-3A3,3,0,0,0,56.47,87Zm.08,9.17a2.95,2.95,0,1,0,2.95-2.95A2.95,2.95,0,0,0,56.54,96.17Zm.1,9.17a2.85,2.85,0,1,0,2.85-2.85A2.85,2.85,0,0,0,56.64,105.34Zm.08,9.17a2.77,2.77,0,1,0,2.77-2.77A2.77,2.77,0,0,0,56.72,114.51Zm.1,9.17A2.67,2.67,0,1,0,59.49,121,2.67,2.67,0,0,0,56.82,123.68Zm.08,9.17a2.59,2.59,0,1,0,2.59-2.59A2.59,2.59,0,0,0,56.9,132.85ZM57,142a2.49,2.49,0,1,0,2.49-2.49A2.49,2.49,0,0,0,57,142Zm.08,9.17a2.42,2.42,0,1,0,2.42-2.42A2.42,2.42,0,0,0,57.08,151.19Zm.1,9.17A2.31,2.31,0,1,0,59.49,158,2.31,2.31,0,0,0,57.18,160.36Zm.08,9.17a2.24,2.24,0,1,0,2.24-2.24A2.24,2.24,0,0,0,57.25,169.53Zm.1,9.17a2.14,2.14,0,1,0,2.14-2.14A2.14,2.14,0,0,0,57.36,178.7Zm.08,9.17a2.06,2.06,0,1,0,2.06-2.06A2.06,2.06,0,0,0,57.43,187.87Zm.1,9.17a2,2,0,1,0,2-2A2,2,0,0,0,57.53,197Zm.08,9.17a1.88,1.88,0,1,0,1.88-1.88A1.88,1.88,0,0,0,57.61,206.2Zm.1,9.17a1.78,1.78,0,1,0,1.78-1.78A1.78,1.78,0,0,0,57.71,215.37Zm.08,9.17a1.7,1.7,0,1,0,1.7-1.7A1.7,1.7,0,0,0,57.79,224.54ZM46.46,9.06a3.86,3.86,0,1,0,3.86-3.86A3.86,3.86,0,0,0,46.46,9.06Zm.1,9.17a3.76,3.76,0,1,0,3.76-3.76A3.76,3.76,0,0,0,46.56,18.23Zm.08,9.17a3.69,3.69,0,1,0,3.69-3.69A3.69,3.69,0,0,0,46.64,27.4Zm.1,9.17A3.59,3.59,0,1,0,50.32,33,3.59,3.59,0,0,0,46.74,36.57Zm.08,9.17a3.51,3.51,0,1,0,3.51-3.51A3.51,3.51,0,0,0,46.81,45.74Zm.1,9.17a3.41,3.41,0,1,0,3.41-3.41A3.41,3.41,0,0,0,46.92,54.91ZM47,64.08a3.33,3.33,0,1,0,3.33-3.33A3.33,3.33,0,0,0,47,64.08Zm.1,9.17A3.23,3.23,0,1,0,50.32,70,3.23,3.23,0,0,0,47.09,73.25Zm.08,9.17a3.15,3.15,0,1,0,3.15-3.15A3.15,3.15,0,0,0,47.17,82.42Zm.08,9.17a3.08,3.08,0,1,0,3.08-3.08A3.08,3.08,0,0,0,47.25,91.59Zm.1,9.17a3,3,0,1,0,3-3A3,3,0,0,0,47.35,100.75Zm.08,9.17a2.9,2.9,0,1,0,2.9-2.9A2.9,2.9,0,0,0,47.42,109.92Zm.1,9.17a2.8,2.8,0,1,0,2.8-2.8A2.8,2.8,0,0,0,47.53,119.09Zm.08,9.17a2.72,2.72,0,1,0,2.72-2.72A2.72,2.72,0,0,0,47.6,128.26Zm.1,9.17a2.62,2.62,0,1,0,2.62-2.62A2.62,2.62,0,0,0,47.7,137.43Zm.08,9.17a2.54,2.54,0,1,0,2.54-2.54A2.54,2.54,0,0,0,47.78,146.6Zm.1,9.17a2.44,2.44,0,1,0,2.44-2.44A2.44,2.44,0,0,0,47.88,155.77Zm.08,9.17a2.36,2.36,0,1,0,2.36-2.36A2.36,2.36,0,0,0,48,164.94Zm.1,9.17a2.26,2.26,0,1,0,2.26-2.26A2.26,2.26,0,0,0,48.06,174.11Zm.08,9.17a2.19,2.19,0,1,0,2.19-2.19A2.19,2.19,0,0,0,48.14,183.28Zm.1,9.17a2.08,2.08,0,1,0,2.08-2.08A2.08,2.08,0,0,0,48.24,192.45Zm.08,9.17a2,2,0,1,0,2-2A2,2,0,0,0,48.31,201.62Zm.1,9.17a1.91,1.91,0,1,0,1.91-1.91A1.91,1.91,0,0,0,48.42,210.79Zm.08,9.17a1.83,1.83,0,1,0,1.83-1.83A1.83,1.83,0,0,0,48.49,220ZM37.19,4.48a4,4,0,1,0,4-4A4,4,0,0,0,37.19,4.48Zm0,9.17a4,4,0,1,0,4-4A4,4,0,0,0,37.19,13.64Zm.08,9.17a3.89,3.89,0,1,0,3.89-3.89A3.89,3.89,0,0,0,37.26,22.81ZM37.34,32a3.81,3.81,0,1,0,3.81-3.81A3.81,3.81,0,0,0,37.34,32Zm.1,9.17a3.71,3.71,0,1,0,3.71-3.71A3.71,3.71,0,0,0,37.44,41.15Zm.08,9.17a3.64,3.64,0,1,0,3.64-3.64A3.64,3.64,0,0,0,37.52,50.32Zm.1,9.17A3.53,3.53,0,1,0,41.15,56,3.53,3.53,0,0,0,37.62,59.49Zm.08,9.17a3.46,3.46,0,1,0,3.46-3.46A3.46,3.46,0,0,0,37.7,68.66Zm.1,9.17a3.36,3.36,0,1,0,3.36-3.36A3.36,3.36,0,0,0,37.8,77.83ZM37.87,87a3.28,3.28,0,1,0,3.28-3.28A3.28,3.28,0,0,0,37.87,87Zm.1,9.17A3.18,3.18,0,1,0,41.15,93,3.18,3.18,0,0,0,38,96.17Zm.08,9.17a3.1,3.1,0,1,0,3.1-3.1A3.1,3.1,0,0,0,38.05,105.34Zm.08,9.17a3,3,0,1,0,3-3A3,3,0,0,0,38.13,114.51Zm.1,9.17a2.92,2.92,0,1,0,2.92-2.92A2.92,2.92,0,0,0,38.23,123.68Zm.08,9.17A2.85,2.85,0,1,0,41.15,130,2.85,2.85,0,0,0,38.31,132.85Zm.1,9.17a2.75,2.75,0,1,0,2.75-2.75A2.75,2.75,0,0,0,38.41,142Zm.08,9.17a2.67,2.67,0,1,0,2.67-2.67A2.67,2.67,0,0,0,38.48,151.19Zm.1,9.17a2.57,2.57,0,1,0,2.57-2.57A2.57,2.57,0,0,0,38.58,160.36Zm.08,9.17A2.49,2.49,0,1,0,41.15,167,2.49,2.49,0,0,0,38.66,169.53Zm.1,9.17a2.39,2.39,0,1,0,2.39-2.39A2.39,2.39,0,0,0,38.76,178.7Zm.08,9.17a2.31,2.31,0,1,0,2.31-2.31A2.31,2.31,0,0,0,38.84,187.87Zm.1,9.17a2.21,2.21,0,1,0,2.21-2.21A2.21,2.21,0,0,0,38.94,197ZM39,206.2a2.14,2.14,0,1,0,2.14-2.14A2.14,2.14,0,0,0,39,206.2Zm.1,9.17a2,2,0,1,0,2-2A2,2,0,0,0,39.12,215.37Zm.08,9.17a2,2,0,1,0,2-2A2,2,0,0,0,39.2,224.54ZM27.89,9.06A4.09,4.09,0,1,0,32,5,4.09,4.09,0,0,0,27.89,9.06ZM28,18.23a4,4,0,1,0,4-4A4,4,0,0,0,28,18.23ZM28,27.4A3.94,3.94,0,1,0,32,23.46,3.94,3.94,0,0,0,28,27.4Zm.1,9.17A3.84,3.84,0,1,0,32,32.73,3.84,3.84,0,0,0,28.14,36.57Zm.08,9.17A3.76,3.76,0,1,0,32,42,3.76,3.76,0,0,0,28.22,45.74Zm.1,9.17A3.66,3.66,0,1,0,32,51.25,3.66,3.66,0,0,0,28.32,54.91Zm.08,9.17A3.59,3.59,0,1,0,32,60.49,3.59,3.59,0,0,0,28.4,64.08Zm.1,9.17A3.48,3.48,0,1,0,32,69.76,3.48,3.48,0,0,0,28.5,73.25Zm.08,9.17A3.41,3.41,0,1,0,32,79,3.41,3.41,0,0,0,28.58,82.42Zm.1,9.17A3.31,3.31,0,1,0,32,88.28,3.31,3.31,0,0,0,28.68,91.59Zm.08,9.17A3.23,3.23,0,1,0,32,97.53,3.23,3.23,0,0,0,28.75,100.75Zm.1,9.17A3.13,3.13,0,1,0,32,106.8,3.13,3.13,0,0,0,28.86,109.92Zm.08,9.17A3.05,3.05,0,1,0,32,116,3.05,3.05,0,0,0,28.93,119.09Zm.08,9.17a3,3,0,1,0,3-3A3,3,0,0,0,29,128.26Zm.1,9.17A2.87,2.87,0,1,0,32,134.56,2.87,2.87,0,0,0,29.11,137.43Zm.08,9.17a2.8,2.8,0,1,0,2.8-2.8A2.8,2.8,0,0,0,29.19,146.6Zm.1,9.17a2.7,2.7,0,1,0,2.7-2.7A2.7,2.7,0,0,0,29.29,155.77Zm.08,9.17A2.62,2.62,0,1,0,32,162.32,2.62,2.62,0,0,0,29.36,164.94Zm.1,9.17A2.52,2.52,0,1,0,32,171.59,2.52,2.52,0,0,0,29.47,174.11Zm.08,9.17A2.44,2.44,0,1,0,32,180.84,2.44,2.44,0,0,0,29.54,183.28Zm.1,9.17A2.34,2.34,0,1,0,32,190.11,2.34,2.34,0,0,0,29.64,192.45Zm.08,9.17A2.26,2.26,0,1,0,32,199.36,2.26,2.26,0,0,0,29.72,201.62Zm.1,9.17A2.16,2.16,0,1,0,32,208.63,2.16,2.16,0,0,0,29.82,210.79ZM29.9,220A2.08,2.08,0,1,0,32,217.87,2.08,2.08,0,0,0,29.9,220ZM18.59,4.48A4.22,4.22,0,1,0,22.81.25,4.22,4.22,0,0,0,18.59,4.48Zm0,9.17a4.22,4.22,0,1,0,4.22-4.22A4.22,4.22,0,0,0,18.59,13.64Zm.08,9.17a4.14,4.14,0,1,0,4.14-4.14A4.14,4.14,0,0,0,18.67,22.81ZM18.75,32a4.07,4.07,0,1,0,4.07-4.07A4.07,4.07,0,0,0,18.75,32Zm.1,9.17a4,4,0,1,0,4-4A4,4,0,0,0,18.85,41.15Zm.08,9.17a3.89,3.89,0,1,0,3.89-3.89A3.89,3.89,0,0,0,18.92,50.32Zm.1,9.17a3.79,3.79,0,1,0,3.79-3.79A3.79,3.79,0,0,0,19,59.49Zm.08,9.17a3.71,3.71,0,1,0,3.71-3.71A3.71,3.71,0,0,0,19.1,68.66Zm.1,9.17a3.61,3.61,0,1,0,3.61-3.61A3.61,3.61,0,0,0,19.2,77.83ZM19.28,87a3.53,3.53,0,1,0,3.53-3.53A3.53,3.53,0,0,0,19.28,87Zm.1,9.17a3.43,3.43,0,1,0,3.43-3.43A3.43,3.43,0,0,0,19.38,96.17Zm.08,9.17A3.36,3.36,0,1,0,22.81,102,3.36,3.36,0,0,0,19.46,105.34Zm.1,9.17a3.25,3.25,0,1,0,3.25-3.25A3.25,3.25,0,0,0,19.56,114.51Zm.08,9.17a3.18,3.18,0,1,0,3.18-3.18A3.18,3.18,0,0,0,19.64,123.68Zm.08,9.17a3.1,3.1,0,1,0,3.1-3.1A3.1,3.1,0,0,0,19.71,132.85Zm.1,9.17a3,3,0,1,0,3-3A3,3,0,0,0,19.81,142Zm.08,9.17a2.92,2.92,0,1,0,2.92-2.92A2.92,2.92,0,0,0,19.89,151.19Zm.1,9.17a2.82,2.82,0,1,0,2.82-2.82A2.82,2.82,0,0,0,20,160.36Zm.08,9.17a2.75,2.75,0,1,0,2.75-2.75A2.75,2.75,0,0,0,20.07,169.53Zm.1,9.17a2.64,2.64,0,1,0,2.64-2.64A2.64,2.64,0,0,0,20.17,178.7Zm.08,9.17a2.57,2.57,0,1,0,2.57-2.57A2.57,2.57,0,0,0,20.25,187.87Zm.1,9.17a2.47,2.47,0,1,0,2.47-2.47A2.47,2.47,0,0,0,20.35,197Zm.08,9.17a2.39,2.39,0,1,0,2.39-2.39A2.39,2.39,0,0,0,20.42,206.2Zm.1,9.17a2.29,2.29,0,1,0,2.29-2.29A2.29,2.29,0,0,0,20.53,215.37Zm.08,9.17a2.21,2.21,0,1,0,2.21-2.21A2.21,2.21,0,0,0,20.6,224.54ZM9.3,9.06a4.35,4.35,0,1,0,4.35-4.35A4.35,4.35,0,0,0,9.3,9.06Zm.08,9.17A4.27,4.27,0,1,0,13.64,14,4.27,4.27,0,0,0,9.37,18.23Zm.1,9.17a4.17,4.17,0,1,0,4.17-4.17A4.17,4.17,0,0,0,9.47,27.4Zm.08,9.17a4.09,4.09,0,1,0,4.09-4.09A4.09,4.09,0,0,0,9.55,36.57Zm.08,9.17a4,4,0,1,0,4-4A4,4,0,0,0,9.63,45.74Zm.1,9.17A3.92,3.92,0,1,0,13.64,51,3.92,3.92,0,0,0,9.73,54.91Zm.08,9.17a3.84,3.84,0,1,0,3.84-3.84A3.84,3.84,0,0,0,9.81,64.08Zm.1,9.17a3.74,3.74,0,1,0,3.74-3.74A3.74,3.74,0,0,0,9.91,73.25ZM10,82.42a3.66,3.66,0,1,0,3.66-3.66A3.66,3.66,0,0,0,10,82.42Zm.1,9.17A3.56,3.56,0,1,0,13.64,88,3.56,3.56,0,0,0,10.08,91.59Zm.08,9.17a3.48,3.48,0,1,0,3.48-3.48A3.48,3.48,0,0,0,10.16,100.75Zm.1,9.17a3.38,3.38,0,1,0,3.38-3.38A3.38,3.38,0,0,0,10.26,109.92Zm.08,9.17a3.31,3.31,0,1,0,3.31-3.31A3.31,3.31,0,0,0,10.34,119.09Zm.1,9.17a3.2,3.2,0,1,0,3.2-3.2A3.2,3.2,0,0,0,10.44,128.26Zm.08,9.17a3.13,3.13,0,1,0,3.13-3.13A3.13,3.13,0,0,0,10.52,137.43Zm.08,9.17a3.05,3.05,0,1,0,3.05-3.05A3.05,3.05,0,0,0,10.59,146.6Zm.1,9.17a2.95,2.95,0,1,0,2.95-2.95A2.95,2.95,0,0,0,10.69,155.77Zm.08,9.17a2.87,2.87,0,1,0,2.87-2.87A2.87,2.87,0,0,0,10.77,164.94Zm.1,9.17a2.77,2.77,0,1,0,2.77-2.77A2.77,2.77,0,0,0,10.87,174.11Zm.08,9.17a2.7,2.7,0,1,0,2.7-2.7A2.7,2.7,0,0,0,10.95,183.28Zm.1,9.17a2.59,2.59,0,1,0,2.59-2.59A2.59,2.59,0,0,0,11.05,192.45Zm.08,9.17a2.52,2.52,0,1,0,2.52-2.52A2.52,2.52,0,0,0,11.13,201.62Zm.1,9.17a2.42,2.42,0,1,0,2.42-2.42A2.42,2.42,0,0,0,11.23,210.79Zm.08,9.17a2.34,2.34,0,1,0,2.34-2.34A2.34,2.34,0,0,0,11.31,220ZM0,4.48A4.48,4.48,0,1,0,4.48,0,4.48,4.48,0,0,0,0,4.48Zm0,9.17A4.48,4.48,0,1,0,4.48,9.17,4.48,4.48,0,0,0,0,13.64Zm.08,9.17a4.4,4.4,0,1,0,4.4-4.4A4.4,4.4,0,0,0,.08,22.81ZM.18,32a4.3,4.3,0,1,0,4.3-4.3A4.3,4.3,0,0,0,.18,32Zm.08,9.17a4.22,4.22,0,1,0,4.22-4.22A4.22,4.22,0,0,0,.25,41.15Zm.1,9.17A4.12,4.12,0,1,0,4.48,46.2,4.12,4.12,0,0,0,.36,50.32Zm.08,9.17a4,4,0,1,0,4-4A4,4,0,0,0,.43,59.49Zm.08,9.17a4,4,0,1,0,4-4A4,4,0,0,0,.51,68.66Zm.1,9.17A3.86,3.86,0,1,0,4.48,74,3.86,3.86,0,0,0,.61,77.83ZM.69,87a3.79,3.79,0,1,0,3.79-3.79A3.79,3.79,0,0,0,.69,87Zm.1,9.17a3.69,3.69,0,1,0,3.69-3.69A3.69,3.69,0,0,0,.79,96.17Zm.08,9.17a3.61,3.61,0,1,0,3.61-3.61A3.61,3.61,0,0,0,.86,105.34Zm.1,9.17A3.51,3.51,0,1,0,4.48,111,3.51,3.51,0,0,0,1,114.51ZM1,123.68a3.43,3.43,0,1,0,3.43-3.43A3.43,3.43,0,0,0,1,123.68Zm.1,9.17a3.33,3.33,0,1,0,3.33-3.33A3.33,3.33,0,0,0,1.14,132.85ZM1.22,142a3.25,3.25,0,1,0,3.25-3.25A3.25,3.25,0,0,0,1.22,142Zm.1,9.17A3.15,3.15,0,1,0,4.48,148,3.15,3.15,0,0,0,1.32,151.19Zm.08,9.17a3.08,3.08,0,1,0,3.08-3.08A3.08,3.08,0,0,0,1.4,160.36Zm.08,9.17a3,3,0,1,0,3-3A3,3,0,0,0,1.47,169.53Zm.1,9.17a2.9,2.9,0,1,0,2.9-2.9A2.9,2.9,0,0,0,1.58,178.7Zm.08,9.17A2.82,2.82,0,1,0,4.48,185,2.82,2.82,0,0,0,1.65,187.87Zm.1,9.17a2.72,2.72,0,1,0,2.72-2.72A2.72,2.72,0,0,0,1.75,197Zm.08,9.17a2.64,2.64,0,1,0,2.64-2.64A2.64,2.64,0,0,0,1.83,206.2Zm.1,9.17a2.54,2.54,0,1,0,2.54-2.54A2.54,2.54,0,0,0,1.93,215.37ZM2,224.54a2.47,2.47,0,1,0,2.47-2.47A2.47,2.47,0,0,0,2,224.54Z"/></g></g></svg>