<svg xmlns="http://www.w3.org/2000/svg" viewBox="0 0 411.6 253.1"><g id="Capa_2" data-name="Capa 2"><g id="svg8"><g id="g6043"><path id="rect4674" d="M393.1,208c-1.6,0-2.9,1.7-2.9,3.9v27.3c0,2.2,1.3,3.9,2.9,3.9h15.6c1.6,0,2.9-1.7,2.9-3.9V211.9c0-2.2-1.3-3.9-2.9-3.9Zm1.8,6.1h10.8c1.1,0,2,1.3,2,2.9v17.3c0,1.6-.9,2.9-2,2.9H394.8c-1.1,0-2-1.3-2-2.9V217C392.9,215.4,393.8,214.1,394.9,214.1Z" style="fill:#dadada"/><path id="rect4672" d="M353.1,197.9v52.3a2.9,2.9,0,0,0,2.9,2.9h39.6a2.9,2.9,0,0,0,2.9-2.9V197.9Z" style="fill:#f4f4f4"/><path id="rect4680" d="M375.4,197.9v55.2H356a2.9,2.9,0,0,1-2.9-2.9V197.9Z" style="fill:#ccc;fill-opacity:0.5331000089645386"/><path id="path4723" d="M375.7,140.7c.7.6-1.1,4.4-4.6,9.9h0a8.85,8.85,0,0,0-.1,6c.7,2.3,3.1,4.2,6.2,6a7.46,7.46,0,0,1,1.2.7,14.94,14.94,0,0,1,6.2,20.2h0a22.82,22.82,0,0,1-5.2,7.1h0a21.54,21.54,0,0,1-2.3,1.8h0a1.6,1.6,0,0,1-.8.3h0a.76.76,0,0,0-.4-.1h-.1v-.1h0a.76.76,0,0,0-.1-.4h0a3.09,3.09,0,0,1,.2-.8h0a25.88,25.88,0,0,1,1.2-2.5h0a45.89,45.89,0,0,0,3-7.1h0c.6-2.3,1.1-5,.3-7.3-.6-2.2-2.6-4.1-5.2-5.9a4.05,4.05,0,0,0-.9-.5,16.36,16.36,0,0,1-8.6-9.8,14.56,14.56,0,0,1,1.5-10h0c4.5-5.2,7.7-8,8.5-7.5Z" style="fill:#e0e0e0;fill-opacity:0.6618000268936157"/></g><path id="rect4485" d="M8.6,0H338.4A8.6,8.6,0,0,1,347,8.6v173a8.6,8.6,0,0,1-8.6,8.6H8.6A8.6,8.6,0,0,1,0,181.6V8.6A8.66,8.66,0,0,1,8.6,0Z" style="fill:#0f1938"/><path id="rect4487" d="M150.9,190.2l-9.8,58.6h65l-9.8-58.6H150.9Z" style="fill:#d8d8d8"/><path id="rect4507" d="M13.9,8.6H333.2a2.22,2.22,0,0,1,2.2,2.2V155.7a2.22,2.22,0,0,1-2.2,2.2H13.9a2.22,2.22,0,0,1-2.2-2.2V10.8A2.22,2.22,0,0,1,13.9,8.6Z" style="fill:#fff"/><rect id="rect4495" x="11.6" y="152.7" width="323.8" height="5.3" style="fill:#6c5353"/><rect id="rect4497" x="11.6" y="123.4" width="323.8" height="29.3" style="fill:#f9f9f9"/><rect id="rect4499" x="11.7" y="118.5" width="323.8" height="5.3" style="fill:#ccc"/><rect id="rect4501" x="274.4" y="123.8" width="3.2" height="28.9" style="fill:#ececec"/><path id="rect4503" d="M18.5,128h6a.68.68,0,0,1,.7.7v.4a.68.68,0,0,1-.7.7h-6a.68.68,0,0,1-.7-.7v-.4A.68.68,0,0,1,18.5,128Z" style="fill:#ab37c8"/><path id="rect4505" d="M29.7,128h5.4a.68.68,0,0,1,.7.7v.4a.68.68,0,0,1-.7.7H29.7a.68.68,0,0,1-.7-.7v-.4A.84.84,0,0,1,29.7,128Z" style="fill:#ff7f2a"/><path id="rect4508" d="M41.1,128H64.4a.68.68,0,0,1,.7.7v.4a.68.68,0,0,1-.7.7H41.1a.68.68,0,0,1-.7-.7v-.4A.68.68,0,0,1,41.1,128Z" style="fill:#2a7fff"/><path id="rect4510" d="M18.5,133.3h6a.68.68,0,0,1,.7.7v.4a.68.68,0,0,1-.7.7h-6a.68.68,0,0,1-.7-.7V134A.68.68,0,0,1,18.5,133.3Z" style="fill:#ab37c8"/><path id="rect4512" d="M29.7,133.3h5.4a.68.68,0,0,1,.7.7v.4a.68.68,0,0,1-.7.7H29.7a.68.68,0,0,1-.7-.7V134A.84.84,0,0,1,29.7,133.3Z" style="fill:#ff7f2a"/><path id="rect4514" d="M41.1,133.3h5.7a.68.68,0,0,1,.7.7v.4a.68.68,0,0,1-.7.7H41.1a.68.68,0,0,1-.7-.7V134A.68.68,0,0,1,41.1,133.3Z" style="fill:#2a7fff"/><path id="rect4516" d="M52.9,133.3H63.8a.68.68,0,0,1,.7.7v.4a.68.68,0,0,1-.7.7H52.9a.68.68,0,0,1-.7-.7V134A.84.84,0,0,1,52.9,133.3Z" style="fill:#ff7f2a"/><path id="rect4518" d="M70.6,133.3H99.5a.68.68,0,0,1,.7.7v.4a.68.68,0,0,1-.7.7H70.6a.68.68,0,0,1-.7-.7V134A.84.84,0,0,1,70.6,133.3Z" style="fill:#333"/><path id="rect4520" d="M104.6,133.3h6a.68.68,0,0,1,.7.7v.4a.68.68,0,0,1-.7.7h-6a.68.68,0,0,1-.7-.7V134A.84.84,0,0,1,104.6,133.3Z" style="fill:#ab37c8"/><path id="rect4522" d="M71.1,128h6a.68.68,0,0,1,.7.7v.4a.68.68,0,0,1-.7.7h-6a.68.68,0,0,1-.7-.7v-.4A.84.84,0,0,1,71.1,128Z" style="fill:#ab37c8"/><path id="rect4509" d="M23.6,137.9H33.9a.68.68,0,0,1,.7.7v.4a.68.68,0,0,1-.7.7H23.6a.68.68,0,0,1-.7-.7v-.4A.68.68,0,0,1,23.6,137.9Z" style="fill:#ab37c8"/><path id="rect4511" d="M38.8,138H55.6a.68.68,0,0,1,.7.7v.4a.68.68,0,0,1-.7.7H38.8a.68.68,0,0,1-.7-.7v-.4A.84.84,0,0,1,38.8,138Z" style="fill:#ff7f2a"/><path id="rect4513" d="M59.7,138h5.4a.68.68,0,0,1,.7.7v.4a.68.68,0,0,1-.7.7H59.7a.68.68,0,0,1-.7-.7v-.4A.68.68,0,0,1,59.7,138Z" style="fill:#ff7f2a"/><path id="rect4515" d="M68.9,138.1h6.7a.68.68,0,0,1,.7.7v.4a.68.68,0,0,1-.7.7H68.9a.68.68,0,0,1-.7-.7v-.4A.68.68,0,0,1,68.9,138.1Z" style="fill:#333"/><path id="rect4517" d="M79.5,138.1H91a.68.68,0,0,1,.7.7v.4a.68.68,0,0,1-.7.7H79.5a.68.68,0,0,1-.7-.7v-.4A.68.68,0,0,1,79.5,138.1Z" style="fill:#333"/><path id="rect4519" d="M95,138.3h5.8a.68.68,0,0,1,.7.7v.4a.68.68,0,0,1-.7.7H95a.68.68,0,0,1-.7-.7v-.5A.67.67,0,0,1,95,138.3Z" style="fill:#2a7fff"/><path id="rect4521" d="M104.9,138.5h9.7a.68.68,0,0,1,.7.7v.4a.68.68,0,0,1-.7.7h-9.7a.68.68,0,0,1-.7-.7v-.4A.68.68,0,0,1,104.9,138.5Z" style="fill:#ab37c8"/><path id="rect4523" d="M18.5,143.7h6a.68.68,0,0,1,.7.7v.4a.68.68,0,0,1-.7.7h-6a.68.68,0,0,1-.7-.7v-.4A.68.68,0,0,1,18.5,143.7Z" style="fill:#ab37c8"/><path id="rect4525" d="M29.7,143.7h5.4a.68.68,0,0,1,.7.7v.4a.68.68,0,0,1-.7.7H29.7a.68.68,0,0,1-.7-.7v-.4A.84.84,0,0,1,29.7,143.7Z" style="fill:#ff7f2a"/><path id="rect4527" d="M41.4,143.7H52.3a.68.68,0,0,1,.7.7v.4a.68.68,0,0,1-.7.7H41.4a.68.68,0,0,1-.7-.7v-.4A.68.68,0,0,1,41.4,143.7Z" style="fill:#333"/><path id="rect4529" d="M58.6,143.7h6a.68.68,0,0,1,.7.7v.4a.68.68,0,0,1-.7.7h-6a.68.68,0,0,1-.7-.7v-.4A.68.68,0,0,1,58.6,143.7Z" style="fill:#ab37c8"/><path id="rect4531" d="M277.3,127.7v6.4a1.11,1.11,0,0,1-1.1,1.1h-.5a1.11,1.11,0,0,1-1.1-1.1v-6.4a1.11,1.11,0,0,1,1.1-1.1h.6A1.16,1.16,0,0,1,277.3,127.7Z" style="fill:#ccc"/><path id="rect4533" d="M286.3,128.9h-4.5a.68.68,0,0,1-.7-.7v-.4a.68.68,0,0,1,.7-.7h4.5a.68.68,0,0,1,.7.7v.4A.75.75,0,0,1,286.3,128.9Z" style="fill:#4d4d4d"/><path id="rect4537" d="M289.1,132.5h-4.4a.68.68,0,0,1-.7-.7v-.4a.68.68,0,0,1,.7-.7h4.5a.68.68,0,0,1,.7.7v.4A.85.85,0,0,1,289.1,132.5Z" style="fill:#f06"/><path id="rect4539" d="M297.5,132.5H293a.68.68,0,0,1-.7-.7v-.4a.68.68,0,0,1,.7-.7h4.5a.68.68,0,0,1,.7.7v.4A.75.75,0,0,1,297.5,132.5Z" style="fill:#4d4d4d"/><path id="rect4541" d="M292.2,136.9h-7.5a.68.68,0,0,1-.7-.7v-.4a.68.68,0,0,1,.7-.7h7.5a.68.68,0,0,1,.7.7v.4A.75.75,0,0,1,292.2,136.9Z" style="fill:#f06"/><path id="rect4543" d="M302.2,136.9h-4.5a.68.68,0,0,1-.7-.7v-.4a.68.68,0,0,1,.7-.7h4.5a.68.68,0,0,1,.7.7v.4A.84.84,0,0,1,302.2,136.9Z" style="fill:#4d4d4d"/><path id="rect4545" d="M290.4,140.5h-5.7a.68.68,0,0,1-.7-.7v-.4a.68.68,0,0,1,.7-.7h5.7a.68.68,0,0,1,.7.7v.4A.84.84,0,0,1,290.4,140.5Z" style="fill:#f06"/><path id="rect4547" d="M296.6,140.6h-2.7a.68.68,0,0,1-.7-.7v-.4a.68.68,0,0,1,.7-.7h2.7a.68.68,0,0,1,.7.7v.4A.68.68,0,0,1,296.6,140.6Z" style="fill:#4d4d4d"/><path id="rect4549" d="M286.3,147.4h-4.5a.68.68,0,0,1-.7-.7v-.4a.68.68,0,0,1,.7-.7h4.5a.68.68,0,0,1,.7.7v.4A.85.85,0,0,1,286.3,147.4Z" style="fill:#4d4d4d"/><path id="rect4551" d="M288.7,150.7h-4a.68.68,0,0,1-.7-.7v-.4a.68.68,0,0,1,.7-.7h4a.68.68,0,0,1,.7.7v.4A.68.68,0,0,1,288.7,150.7Z" style="fill:#f06"/><path id="rect4553" d="M296.6,150.8h-4.3a.68.68,0,0,1-.7-.7v-.4a.68.68,0,0,1,.7-.7h4.3a.68.68,0,0,1,.7.7v.4A.68.68,0,0,1,296.6,150.8Z" style="fill:#4d4d4d"/><path id="path4542" d="M103.8,248.3c-.6,0-.8.4-1.2.7l-4.5,3.4c-.4.3.5.7,1.2.7H247.7c.6,0,1.6-.4,1.2-.7l-4.5-3.4c-.4-.3-.5-.7-1.2-.7H103.8Z" style="fill:#70737e"/><g id="g4740"><path id="rect4734" d="M237.38,128.6h-7.07a.76.76,0,0,0-.76.76v.45a.76.76,0,0,0,.76.76h7.07a.76.76,0,0,0,.76-.76v-.45A.71.71,0,0,0,237.38,128.6Z" style="fill:#5aa02c"/><path id="rect4736" d="M203.93,128.6H187.35a.76.76,0,0,0-.76.76v.45a.76.76,0,0,0,.76.76h16.58a.77.77,0,0,0,.76-.76v-.45A.72.72,0,0,0,203.93,128.6Z" style="fill:#5aa02c"/><path id="rect4738" d="M225.6,128.6H209a.76.76,0,0,0-.76.76v.45a.76.76,0,0,0,.76.76H225.6a.77.77,0,0,0,.76-.76v-.45A.72.72,0,0,0,225.6,128.6Z" style="fill:#5aa02c"/></g><path id="rect4744" d="M203.9,133.7H187.3a.86.86,0,0,0-.8.8v.5a.86.86,0,0,0,.8.8h16.6a.86.86,0,0,0,.8-.8v-.5A.79.79,0,0,0,203.9,133.7Z" style="fill:#5aa02c"/><path id="rect4746" d="M254.9,133.7H209.1a.86.86,0,0,0-.8.8v.5a.86.86,0,0,0,.8.8h45.8a.86.86,0,0,0,.8-.8v-.5A.79.79,0,0,0,254.9,133.7Z" style="fill:#5aa02c"/><path id="rect4753" d="M225.7,138.5H187.3a.86.86,0,0,0-.8.8v.5a.86.86,0,0,0,.8.8h38.4a.86.86,0,0,0,.8-.8v-.5A.79.79,0,0,0,225.7,138.5Z" style="fill:#5aa02c"/><g id="path4803" style="opacity:0.6140000224113464;isolation:isolate"><polygon points="150.9 190.2 149.7 197 197.3 197 196.2 190.2 150.9 190.2" style="fill:#6d6f7a"/></g><path id="rect4663" d="M0,163.4v18.2a8.54,8.54,0,0,0,8.6,8.6H338.4a8.54,8.54,0,0,0,8.6-8.6V163.4Z" style="fill:#ececec"/><circle id="path4801" cx="173.5" cy="176.8" r="7.2" style="fill:#0b1229;fill-opacity:0.6287000179290771"/><rect id="rect4842" x="173.3" y="70.6" width="40.9" height="12.4" style="fill:#efd9ce"/><rect id="rect4844" x="173.3" y="89.8" width="40.9" height="5.4" style="fill:#efd9ce"/><rect id="rect4846" x="173.3" y="99.6" width="40.9" height="5.4" style="fill:#efd9ce"/><rect id="rect4848" x="173.3" y="109.5" width="40.9" height="5.4" style="fill:#efd9ce"/><rect id="rect4852" x="234.2" y="70.6" width="80.9" height="12.4" style="fill:#efd9ce"/><rect id="rect4854" x="234.2" y="89.8" width="80.9" height="5.4" style="fill:#efd9ce"/><rect id="rect4856" x="234.2" y="99.6" width="80.9" height="5.4" style="fill:#efd9ce"/><rect id="rect4858" x="234.2" y="109.5" width="80.9" height="5.4" style="fill:#efd9ce"/><rect id="rect4733" x="173.1" y="22.7" width="41.6" height="39" style="fill:#ffa69e;fill-opacity:0.7243000268936157"/><rect id="rect4735" x="233.8" y="22.7" width="82.1" height="39" style="fill:#ffa69e;fill-opacity:0.7243000268936157"/><path id="rect4540" d="M14.1,8.6h159V118.5H11.6V10.8A2.36,2.36,0,0,1,14.1,8.6Z" style="fill:#333"/><path id="rect4548" d="M30,19h6.5a.68.68,0,0,1,.7.7v.4a.68.68,0,0,1-.7.7H30a.68.68,0,0,1-.7-.7v-.4A.68.68,0,0,1,30,19Z" style="fill:#ab37c8"/><path id="rect4550" d="M42.2,19h5.9a.68.68,0,0,1,.7.7v.4a.68.68,0,0,1-.7.7H42.2a.68.68,0,0,1-.7-.7v-.4C41.4,19.3,41.8,19,42.2,19Z" style="fill:#d4aa00"/><path id="rect4552" d="M54.4,19H79.6a.68.68,0,0,1,.7.7v.4a.68.68,0,0,1-.7.7H54.4a.68.68,0,0,1-.7-.7v-.4A.68.68,0,0,1,54.4,19Z" style="fill:#d4aa00"/><path id="rect4554" d="M86.8,19h6.5a.68.68,0,0,1,.7.7v.4a.68.68,0,0,1-.7.7H86.8a.68.68,0,0,1-.7-.7v-.4A.68.68,0,0,1,86.8,19Z" style="fill:#d4aa00"/><g id="g4643"><g id="g4635"><path id="rect4556" d="M30,25h6.44a.7.7,0,0,1,.69.7v.41a.69.69,0,0,1-.69.69H30a.69.69,0,0,1-.7-.69v-.41C29.26,25.3,29.61,25,30,25Z" style="fill:#ab37c8"/><path id="rect4558" d="M42.15,25H48a.7.7,0,0,1,.7.7v.41a.69.69,0,0,1-.7.69H42.15a.69.69,0,0,1-.7-.69v-.41A.66.66,0,0,1,42.15,25Z" style="fill:#d4aa00"/></g><path id="rect4560" d="M54.41,25H64.8a.7.7,0,0,1,.69.7v.41a.69.69,0,0,1-.69.69H54.41a.69.69,0,0,1-.7-.69v-.41A.66.66,0,0,1,54.41,25Z" style="fill:#d4aa00"/><path id="rect4562" d="M91,25h14.75a.7.7,0,0,1,.69.7v.41a.68.68,0,0,1-.69.69H91a.69.69,0,0,1-.7-.69v-.41C90.21,25.3,90.56,25,91,25Z" style="fill:#d4aa00"/><path id="rect4564" d="M70.27,25H82.94a.69.69,0,0,1,.69.7v.41a.68.68,0,0,1-.69.69H70.27a.69.69,0,0,1-.7-.69v-.41A.63.63,0,0,1,70.27,25Z" style="fill:#d4aa00"/></g><g id="g4631"><path id="rect4566" d="M30,31h6.44a.69.69,0,0,1,.69.69v.41a.7.7,0,0,1-.69.7H30a.7.7,0,0,1-.7-.7v-.34A.67.67,0,0,1,30,31Z" style="fill:#ab37c8"/><path id="rect4568" d="M42.15,31h10a.68.68,0,0,1,.69.69v.41a.69.69,0,0,1-.69.7h-10a.7.7,0,0,1-.7-.7v-.34A.71.71,0,0,1,42.15,31Z" style="fill:#d4aa00"/></g><g id="g4627"><path id="rect4570" d="M40.42,37.07h6.44a.7.7,0,0,1,.69.7v.41a.69.69,0,0,1-.69.69H40.42a.69.69,0,0,1-.7-.69v-.41A.66.66,0,0,1,40.42,37.07Z" style="fill:#d4aa00"/><path id="rect4572" d="M52.54,37.07h5.88a.7.7,0,0,1,.7.7v.41a.69.69,0,0,1-.7.69H52.54a.69.69,0,0,1-.7-.69v-.41A.7.7,0,0,1,52.54,37.07Z" style="fill:#d4aa00"/><path id="rect4574" d="M64.8,37.07H75.18a.7.7,0,0,1,.7.7v.41a.69.69,0,0,1-.7.69H64.8a.69.69,0,0,1-.7-.69v-.41A.7.7,0,0,1,64.8,37.07Z" style="fill:#d4aa00"/></g><g id="g4622"><path id="rect4576" d="M40.42,43.1h6.44a.7.7,0,0,1,.69.69v.42a.7.7,0,0,1-.69.69H40.42a.7.7,0,0,1-.7-.69v-.42C39.65,43.45,40,43.1,40.42,43.1Z" style="fill:#d4aa00"/><path id="rect4578" d="M55.79,43.1H64a.7.7,0,0,1,.7.69v.42a.7.7,0,0,1-.7.69H55.79a.7.7,0,0,1-.69-.69v-.42A.7.7,0,0,1,55.79,43.1Z" style="fill:#d4aa00"/><path id="rect4580" d="M69.51,43.1h8.93a.69.69,0,0,1,.69.69v.42a.69.69,0,0,1-.69.69H69.51a.7.7,0,0,1-.7-.69v-.42C68.74,43.45,69.09,43.1,69.51,43.1Z" style="fill:#d4aa00"/><path id="rect4582" d="M83.77,43.1h36a.69.69,0,0,1,.69.69v.42a.69.69,0,0,1-.69.69H83.77a.7.7,0,0,1-.69-.69v-.42C83,43.45,83.36,43.1,83.77,43.1Z" style="fill:#d4aa00"/></g><g id="g4616"><path id="rect4584" d="M47.9,49.13h6.44a.7.7,0,0,1,.69.69v.42a.7.7,0,0,1-.69.69H47.9a.7.7,0,0,1-.7-.69v-.42A.75.75,0,0,1,47.9,49.13Z" style="fill:#d4aa00"/><path id="rect4586" d="M60.78,49.13H69a.69.69,0,0,1,.69.69v.42a.69.69,0,0,1-.69.69H60.78a.69.69,0,0,1-.69-.69v-.42A.65.65,0,0,1,60.78,49.13Z" style="fill:#d4aa00"/><path id="rect4588" d="M72.69,49.13h4.36a.7.7,0,0,1,.7.69v.42a.7.7,0,0,1-.7.69H72.69a.7.7,0,0,1-.69-.69v-.42C71.93,49.48,72.28,49.13,72.69,49.13Z" style="fill:#d4aa00"/></g><g id="g4611"><path id="rect4590" d="M47.9,55.21h6.44a.69.69,0,0,1,.69.69v.41a.7.7,0,0,1-.69.7H47.9a.7.7,0,0,1-.7-.7V55.9A.69.69,0,0,1,47.9,55.21Z" style="fill:#d4aa00"/><path id="rect4592" d="M60.78,55.21H69a.68.68,0,0,1,.69.69v.41A.69.69,0,0,1,69,57H60.78a.69.69,0,0,1-.69-.7V55.9C60,55.48,60.36,55.21,60.78,55.21Z" style="fill:#d4aa00"/></g><g id="g4607"><path id="rect4596" d="M47.9,61.2h6.44a.7.7,0,0,1,.69.69v.42a.7.7,0,0,1-.69.69H47.9a.69.69,0,0,1-.7-.69v-.42A.75.75,0,0,1,47.9,61.2Z" style="fill:#d4aa00"/><path id="rect4598" d="M60.78,61.2h28.6a.7.7,0,0,1,.7.69v.42a.7.7,0,0,1-.7.69H60.78a.68.68,0,0,1-.69-.69v-.42A.65.65,0,0,1,60.78,61.2Z" style="fill:#d4aa00"/></g><g id="g4603"><path id="rect4600" d="M30,67.26h6.44a.7.7,0,0,1,.69.7v.41a.7.7,0,0,1-.69.7H30a.7.7,0,0,1-.7-.7V68A.66.66,0,0,1,30,67.26Z" style="fill:#ab37c8"/><path id="rect4602" d="M42.15,67.26h10a.69.69,0,0,1,.69.7v.41a.69.69,0,0,1-.69.7h-10a.7.7,0,0,1-.7-.7V68A.7.7,0,0,1,42.15,67.26Z" style="fill:#d4aa00"/></g><g id="g4599"><path id="rect4604" d="M71.44,73.3H65a.69.69,0,0,0-.69.69v.41a.7.7,0,0,0,.69.7h6.44a.7.7,0,0,0,.7-.7V74A.74.74,0,0,0,71.44,73.3Z" style="fill:#5aa02c"/><path id="rect4606" d="M58.56,73.3H30a.69.69,0,0,0-.7.69v.41a.7.7,0,0,0,.7.7h28.6a.69.69,0,0,0,.69-.7V74A.64.64,0,0,0,58.56,73.3Z" style="fill:#5aa02c"/></g><g id="g4595"><path id="rect4608" d="M75.6,79.32H69.16a.69.69,0,0,0-.69.69v.42a.69.69,0,0,0,.69.69H75.6a.69.69,0,0,0,.69-.69V80A.74.74,0,0,0,75.6,79.32Z" style="fill:#5aa02c"/><path id="rect4610" d="M45.06,79.32H30a.7.7,0,0,0-.7.69v.42a.7.7,0,0,0,.7.69h15.1a.7.7,0,0,0,.69-.69V80C45.82,79.67,45.47,79.32,45.06,79.32Z" style="fill:#5aa02c"/><path id="rect4612" d="M64.8,79.32H49.7A.7.7,0,0,0,49,80v.42a.7.7,0,0,0,.7.69H64.8a.7.7,0,0,0,.69-.69V80C65.56,79.67,65.21,79.32,64.8,79.32Z" style="fill:#5aa02c"/></g><g id="g4590"><path id="rect4614" d="M30,85.34h6.44a.69.69,0,0,1,.69.69v.42a.7.7,0,0,1-.69.69H30a.7.7,0,0,1-.7-.69V86.1A.67.67,0,0,1,30,85.34Z" style="fill:#ab37c8"/><path id="rect4616" d="M42.15,85.34h10a.68.68,0,0,1,.69.69v.42a.69.69,0,0,1-.69.69h-10a.7.7,0,0,1-.7-.69V86.1A.71.71,0,0,1,42.15,85.34Z" style="fill:#d4aa00"/></g><g id="g4586"><path id="rect4618" d="M43.25,91.41H49.7a.7.7,0,0,1,.69.7v.41a.69.69,0,0,1-.69.69H43.25a.69.69,0,0,1-.69-.69v-.41A.62.62,0,0,1,43.25,91.41Z" style="fill:#d4aa00"/><path id="rect4620" d="M56.07,91.41h8.17a.69.69,0,0,1,.69.7v.41a.68.68,0,0,1-.69.69H56.07a.68.68,0,0,1-.69-.69v-.41A.65.65,0,0,1,56.07,91.41Z" style="fill:#d4aa00"/><path id="rect4622" d="M68,91.41h4.36a.7.7,0,0,1,.7.7v.41a.69.69,0,0,1-.7.69H68a.69.69,0,0,1-.69-.69v-.41A.7.7,0,0,1,68,91.41Z" style="fill:#d4aa00"/></g><path id="rect4581" d="M30,97.4h6.5a.68.68,0,0,1,.7.7v.4a.68.68,0,0,1-.7.7H30a.68.68,0,0,1-.7-.7v-.4A.75.75,0,0,1,30,97.4Z" style="fill:#ab37c8"/><g id="g4701"><path id="rect4697" d="M30,107.42h6.44a.69.69,0,0,1,.69.69v.42a.7.7,0,0,1-.69.69H30a.7.7,0,0,1-.7-.69v-.42C29.26,107.76,29.61,107.42,30,107.42Z" style="fill:#ab37c8"/><path id="rect4699" d="M42.15,107.42h10a.68.68,0,0,1,.69.69v.42a.69.69,0,0,1-.69.69h-10a.7.7,0,0,1-.7-.69v-.42A.69.69,0,0,1,42.15,107.42Z" style="fill:#d4aa00"/></g><g id="g4709"><path id="rect4703" d="M40.42,113.47h6.44a.69.69,0,0,1,.69.69v.41a.7.7,0,0,1-.69.7H40.42a.7.7,0,0,1-.7-.7v-.41C39.65,113.74,40,113.47,40.42,113.47Z" style="fill:#d4aa00"/><path id="rect4705" d="M52.54,113.47h5.88a.69.69,0,0,1,.7.69v.41a.7.7,0,0,1-.7.7H52.54a.7.7,0,0,1-.7-.7v-.41A.65.65,0,0,1,52.54,113.47Z" style="fill:#d4aa00"/><path id="rect4707" d="M64.8,113.47H75.18a.69.69,0,0,1,.7.69v.41a.7.7,0,0,1-.7.7H64.8a.7.7,0,0,1-.7-.7v-.41A.65.65,0,0,1,64.8,113.47Z" style="fill:#d4aa00"/></g><path d="M14.3,20.8h-1a.47.47,0,0,1-.5-.5v-1a.47.47,0,0,1,.5-.5h1a.47.47,0,0,1,.5.5v1A.47.47,0,0,1,14.3,20.8Z" style="fill:#fff"/><path d="M14.3,26.9h-1a.47.47,0,0,1-.5-.5v-1a.47.47,0,0,1,.5-.5h1a.47.47,0,0,1,.5.5v1A.47.47,0,0,1,14.3,26.9Z" style="fill:#fff"/><path d="M14.3,32.9h-1a.47.47,0,0,1-.5-.5v-1a.47.47,0,0,1,.5-.5h1a.47.47,0,0,1,.5.5v1A.47.47,0,0,1,14.3,32.9Z" style="fill:#fff"/><path d="M14.3,39h-1a.47.47,0,0,1-.5-.5v-1a.47.47,0,0,1,.5-.5h1a.47.47,0,0,1,.5.5v1A.47.47,0,0,1,14.3,39Z" style="fill:#fff"/><path d="M14.3,45h-1a.47.47,0,0,1-.5-.5v-1a.47.47,0,0,1,.5-.5h1a.47.47,0,0,1,.5.5v1A.47.47,0,0,1,14.3,45Z" style="fill:#fff"/><path d="M14.3,51h-1a.47.47,0,0,1-.5-.5v-1a.47.47,0,0,1,.5-.5h1a.47.47,0,0,1,.5.5v1A.47.47,0,0,1,14.3,51Z" style="fill:#fff"/><path d="M14.3,57.1h-1a.47.47,0,0,1-.5-.5v-1a.47.47,0,0,1,.5-.5h1a.47.47,0,0,1,.5.5v1A.47.47,0,0,1,14.3,57.1Z" style="fill:#fff"/><path d="M14.3,63.2h-1a.47.47,0,0,1-.5-.5v-1a.47.47,0,0,1,.5-.5h1a.47.47,0,0,1,.5.5v1A.54.54,0,0,1,14.3,63.2Z" style="fill:#fff"/><path d="M14.3,69.2h-1a.47.47,0,0,1-.5-.5v-1a.47.47,0,0,1,.5-.5h1a.47.47,0,0,1,.5.5v1A.47.47,0,0,1,14.3,69.2Z" style="fill:#fff"/><path d="M14.3,75.3h-1a.47.47,0,0,1-.5-.5v-1a.47.47,0,0,1,.5-.5h1a.47.47,0,0,1,.5.5v1A.54.54,0,0,1,14.3,75.3Z" style="fill:#fff"/><path d="M14.3,81.2h-1a.47.47,0,0,1-.5-.5v-1a.47.47,0,0,1,.5-.5h1a.47.47,0,0,1,.5.5v1A.47.47,0,0,1,14.3,81.2Z" style="fill:#fff"/><path d="M14.3,87.2h-1a.47.47,0,0,1-.5-.5v-1a.47.47,0,0,1,.5-.5h1a.47.47,0,0,1,.5.5v1A.47.47,0,0,1,14.3,87.2Z" style="fill:#fff"/><path d="M13.8,93.3h-1a.47.47,0,0,1-.5-.5v-1a.47.47,0,0,1,.5-.5h1a.47.47,0,0,1,.5.5v1C14.2,93.1,14,93.3,13.8,93.3Z" style="fill:#fff"/><path d="M14.3,93.3h-1a.47.47,0,0,1-.5-.5v-1a.47.47,0,0,1,.5-.5h1a.47.47,0,0,1,.5.5v1A.47.47,0,0,1,14.3,93.3Z" style="fill:#fff"/><path d="M14.3,99.4h-1a.47.47,0,0,1-.5-.5v-1a.47.47,0,0,1,.5-.5h1a.47.47,0,0,1,.5.5v1A.47.47,0,0,1,14.3,99.4Z" style="fill:#fff"/><path d="M14.3,109.3h-1a.47.47,0,0,1-.5-.5v-1a.47.47,0,0,1,.5-.5h1a.47.47,0,0,1,.5.5v1A.47.47,0,0,1,14.3,109.3Z" style="fill:#fff"/><path d="M14.3,115.3h-1a.47.47,0,0,1-.5-.5v-1a.47.47,0,0,1,.5-.5h1a.47.47,0,0,1,.5.5v1A.47.47,0,0,1,14.3,115.3Z" style="fill:#fff"/><rect x="16.9" y="8.6" width="0.8" height="109.9" style="fill:#545454"/></g></g></svg>