<svg xmlns="http://www.w3.org/2000/svg" viewBox="0 0 28.75 35.1">
    <defs> 
        <style>
            .github-fill{fill-rule:evenodd;}
        </style>
    </defs>
    <title>github</title>
    <g id="Capa_2" data-name="Capa 2">
        <g id="Capa_1-2" data-name="Capa 1">
            <path class="github-fill" d="M2.43,12.48a.5.5,0,1,1,.28.65A.5.5,0,0,1,2.43,12.48ZM17.71,27.13a.5.5,0,1,0-.28-.65A.5.5,0,0,0,17.71,27.13ZM20,34.38l.38-.1V26.76a5.23,5.23,0,0,0-1.17-3.55q.55-.08,1-.18a16.45,16.45,0,0,0,2.1-.59,10.56,10.56,0,0,0,2-.94,8.53,8.53,0,0,0,1.74-1.42,8.39,8.39,0,0,0,1.4-2,10.76,10.76,0,0,0,.88-2.63,16.19,16.19,0,0,0,.32-3.33,8.75,8.75,0,0,0-2.16-5.92A8.27,8.27,0,0,0,26.26.39L26.15.11,25.3,0A5.65,5.65,0,0,0,23,.52a16.29,16.29,0,0,0-3.26,1.73A21.42,21.42,0,0,0,9,2.25,19,19,0,0,0,6.94,1,11.73,11.73,0,0,0,5.18.3,6.34,6.34,0,0,0,3.91.05,3.81,3.81,0,0,0,3.1,0L2.79.1,2.57.17,2.49.39a8.27,8.27,0,0,0-.33,5.82A8.74,8.74,0,0,0,0,12.13a16.22,16.22,0,0,0,.32,3.33,10.83,10.83,0,0,0,.88,2.63,8.37,8.37,0,0,0,1.4,2A8.51,8.51,0,0,0,4.34,21.5a10.58,10.58,0,0,0,2,.94,16.5,16.5,0,0,0,2.1.59c.33.07.68.13,1.05.18a5.27,5.27,0,0,0-1.15,3.55v7.57l.38.09A23.3,23.3,0,0,0,20,34.38ZM9.35,26.76a3.9,3.9,0,0,1,1.59-3.5l1.15-.78-1.38-.13A19.55,19.55,0,0,1,8.65,22a15.53,15.53,0,0,1-2-.55,9.56,9.56,0,0,1-1.83-.85,7.52,7.52,0,0,1-1.53-1.26,7.36,7.36,0,0,1-1.23-1.75,9.81,9.81,0,0,1-.8-2.39A15.23,15.23,0,0,1,1,12.13,7.77,7.77,0,0,1,3.1,6.66l.21-.23L3.2,6.14A7.09,7.09,0,0,1,3.32,1h0l.51,0a5.31,5.31,0,0,1,1.07.21,11,11,0,0,1,1.6.67A18.44,18.44,0,0,1,8.66,3.21l.19.13.22-.06a20.37,20.37,0,0,1,10.62,0l.22.06.19-.13a15.7,15.7,0,0,1,3.24-1.75A4.81,4.81,0,0,1,25.18,1l.25,0a7.11,7.11,0,0,1,.11,5.1l-.11.29.21.23a7.78,7.78,0,0,1,2.1,5.47,15.2,15.2,0,0,1-.3,3.12,9.78,9.78,0,0,1-.8,2.39,7.38,7.38,0,0,1-1.23,1.75,7.53,7.53,0,0,1-1.53,1.26,9.54,9.54,0,0,1-1.83.85,15.47,15.47,0,0,1-2,.55,19.55,19.55,0,0,1-2.06.3l-1.37.13,1.14.78a3.91,3.91,0,0,1,1.62,3.5V33.5a22.41,22.41,0,0,1-10.07,0Zm8.95,5.13V28.76a.38.38,0,0,0-.75,0v3.13a.38.38,0,0,0,.75,0ZM2.55,14.79a7.75,7.75,0,0,0,5.09,5.85c.45.17.65-.56.2-.72a7,7,0,0,1-4.56-5.33c-.11-.47-.83-.27-.72.2Z"/>
        </g>
    </g>
</svg>