<svg xmlns="http://www.w3.org/2000/svg" viewBox="0 0 1766.69 2493.68"><g id="Capa_2" data-name="Capa 2"><g id="Capa_1-2" data-name="Capa 1"><path d="M160.78,2293.39l721.48,200.29,723.48-200.56,161-1803H0ZM1605.48,637.51,1468,2178.3l-584.53,162v0h-.08v0l-584.53-162L161.28,637.51ZM164.37,0h112.4V111.05H379.58V0H492V336.27H379.59V223.67H276.77v112.6H164.38V0ZM639.79,111.52H540.85V0H851.2V111.52h-99V336.27H639.81V111.52h0ZM900.45,0h117.2l72.09,118.16L1161.76,0H1279V336.27H1167.06V169.6l-77.32,119.56h-1.94L1010.42,169.6V336.27h-110Zm434.49,0h112.43V225.12h158.06V336.27h-270.5V0Zm101.67,858.69L1431.33,918l-10.08,112.12-4.44,49.71H570.46l20.22,226.48h806l-5.4,59.39-52,582.28-3.32,37.36L883.34,2110.82v0l-1,.28L429.27,1985.37l-31-347.27h222l15.75,176.39L882.38,1881l.2,0v0l246.67-66.57,25.68-286.85H388.41L334,918l-5.29-59.34H1436.61Z"/></g></g></svg>