<svg xmlns="http://www.w3.org/2000/svg" viewBox="0 0 106.03 129.39">
    <g id="bdf67f2f-620d-410a-8803-28e3d0849d45" data-name="Capa 2">
        <path id="f138964d-bf94-492c-9efc-fef3c24dc82a" data-name="Trazado 347" d="M10.1,90.83h0A1.1,1.1,0,0,1,8.79,90h0L5.54,73.59a1.11,1.11,0,0,1,.83-1.32h0a1.13,1.13,0,0,1,1.31.88l3.36,16.4a1.09,1.09,0,0,1-.89,1.27Zm1.79,3.65h0a1.1,1.1,0,0,0-1.27-.88h0a1.1,1.1,0,0,0-.84,1.28h0a1.09,1.09,0,0,0,1.27.88h0a1.11,1.11,0,0,0,.88-1.29,1,1,0,0,0,0-.14Zm80.63,5.26c-.55,2.66-1.1,5.33-1.61,8-.32,1.57-.62,3.18-.87,4.79s-.8,3.36-2.23,3.87a2.35,2.35,0,0,1-1.39,0H86c-1.36-.48-1.94,1.64-.59,2.12a4.94,4.94,0,0,0,6-3A22.62,22.62,0,0,0,92.71,110l1.2-6.06.77-3.65c.25-1.39-1.86-2-2.12-.58ZM80.84,119.13a1.46,1.46,0,1,0-1.68-1.21,1.6,1.6,0,0,0,.22.56A1.47,1.47,0,0,0,80.84,119.13Zm16.47,8.4h0a1.87,1.87,0,0,0-1.87-1.86H10.1a1.86,1.86,0,0,0-1.86,1.86h0a1.86,1.86,0,0,0,1.86,1.86H95.44a1.87,1.87,0,0,0,1.87-1.86.76.76,0,0,0,0-.15Zm-41.23-32a2.93,2.93,0,0,0-2.92-2.93h0a2.92,2.92,0,1,0,2.92,2.92ZM106,72.17l-9.86,48.16a4.31,4.31,0,0,1-4.2,3.4H14.27a4.29,4.29,0,0,1-4.2-3.4L.1,72.17a5,5,0,0,1,4.86-6H17.81a9.38,9.38,0,0,1,7.05-8.1s5.36-2.19,12-4.56a8.08,8.08,0,0,0,5.18-8l-1-1.06A19,19,0,0,1,37.86,37,4.31,4.31,0,0,1,37,37a4.23,4.23,0,0,1-3.47-1.72,16.81,16.81,0,0,1-1.64-6.76,3.62,3.62,0,0,1,1.79-3.28,5.58,5.58,0,0,1,2.59-.7c0-2-.33-10.73,0-13.94A10.52,10.52,0,0,1,45.53.23,81.54,81.54,0,0,1,61.15.56a10.22,10.22,0,0,1,7.64,9.71c0,6.79.18,12.6.18,14.39a5,5,0,0,1,2.63.66,3.66,3.66,0,0,1,1.79,3.32,16.69,16.69,0,0,1-1.68,6.9,4.36,4.36,0,0,1-3.65,1.68h-.84A18.39,18.39,0,0,1,64,44.74l-.26.26h0a8.39,8.39,0,0,0,5.19,8.61c6.75,2.41,12.26,4.64,12.3,4.64a9.75,9.75,0,0,1,7.74,8h11.83a4.9,4.9,0,0,1,3.84,1.82A5,5,0,0,1,106,72.17ZM68,34.45a1.8,1.8,0,0,0,1.5-.51,15.62,15.62,0,0,0,1.17-5.3,1,1,0,0,0-.47-1A2.24,2.24,0,0,0,69,27.4,67.33,67.33,0,0,1,68,34.45Zm-30.74,0a57.86,57.86,0,0,1-1-7.05,2.63,2.63,0,0,0-1.13.29.94.94,0,0,0-.47.95A16,16,0,0,0,35.74,34a1.73,1.73,0,0,0,1.5.37Zm1.53-11a3.33,3.33,0,0,0,1.72-3.18V11.66l1.9,1.06a21.89,21.89,0,0,0,19.9,0l2.15-1.32-.11,3.25a35.92,35.92,0,0,0,0,4.64,4.52,4.52,0,0,0,2.19,3.65c0-2.62,0-7.3-.18-12.85a7.69,7.69,0,0,0-5.66-7.3,85.51,85.51,0,0,0-15,0C40.27,3.11,39,9.07,38.81,11a121,121,0,0,0,0,12.24Zm4.34,19.43,1.1,1.17c1.54,1.68,3.33,3.65,4.2,3.65H57c.8,0,2.33-1.68,3.65-3.18L62.11,43c2-2.08,3.94-11,4.2-16.58a7.5,7.5,0,0,1-4.64-7V16a25,25,0,0,1-18.51-.22V20A5.85,5.85,0,0,1,39,25.9c.11,5.81,2.12,14.64,4.13,16.76Zm18.26,5A6.59,6.59,0,0,1,57,50.48H48.41a5.87,5.87,0,0,1-3.83-2,11.54,11.54,0,0,1-1.9,4.42,11.35,11.35,0,0,0,10,4.45h.55a11.36,11.36,0,0,0,10-4.45,11.34,11.34,0,0,1-2-5.37ZM39.76,55.51a14.59,14.59,0,0,0,13.07,5.92h.4A14.6,14.6,0,0,0,66.3,55.51a8.59,8.59,0,0,1-1-.73A14.31,14.31,0,0,1,53.3,60h-.55a14.3,14.3,0,0,1-12-5.19,9.48,9.48,0,0,1-1,.48Zm-19,9.75H86.09a7.31,7.31,0,0,0-5.44-4.45c-.36,0-5.77-2.3-12.49-4.67h-.25a16.4,16.4,0,0,1-14.61,7h-.4a16.45,16.45,0,0,1-14.6-7H38c-6.94,2.34-12.38,4.56-12.38,4.6a6.6,6.6,0,0,0-4.86,4.53ZM104,71.8a3.27,3.27,0,0,0-.62-2.63A3.21,3.21,0,0,0,101,68H5.07a3.2,3.2,0,0,0-2.45,1.13A3.23,3.23,0,0,0,2,71.8L11.86,120a2.44,2.44,0,0,0,2.41,1.93H91.75A2.44,2.44,0,0,0,94.16,120ZM53.09,10.38a.84.84,0,0,0,0,1.65,20.7,20.7,0,0,0,4.64-.4,13.18,13.18,0,0,0,4.78-2.42.89.89,0,0,0,.29-1.1.81.81,0,0,0-1.09-.32l0,0A11.56,11.56,0,0,1,57.28,10a16,16,0,0,1-4.2.37Zm-2.81,2a1.1,1.1,0,1,0-.89-1.28,1.41,1.41,0,0,0,0,.2A1.1,1.1,0,0,0,50.28,12.39Zm2.55-2.7a23.12,23.12,0,0,0,2.74-.62,6,6,0,0,0,3-1.72.87.87,0,0,0,0-1.17.8.8,0,0,0-1.13,0l0,0-.22.26h-.33L56,7.35h0l-1.1.18c-.88.26-1.75.4-2.63.59a.82.82,0,0,0-.56,1,.83.83,0,0,0,1,.56Z" />
    </g>
</svg>