<svg xmlns="http://www.w3.org/2000/svg" viewBox="0 0 73 72.67"><g id="e467b308-7dbc-4fb8-8b07-3107622779f9" data-name="Capa 2"><g id="fe2c1ca3-3719-41dc-b89c-def5bb37bf03" data-name="Capa 2"><g id="b296f814-be64-40af-b00e-63d5b15b7303" data-name="Capa 1"><path id="b06b129e-59e5-4545-b9a9-35843d2bfc14" data-name="Trazado 350" d="M5.41,43.48h0a1,1,0,0,1-1-1V25.67a1,1,0,0,1,1-1h0a1,1,0,0,1,1,1V42.45a1,1,0,0,1-1,1Zm1.1,3.75h0a1.09,1.09,0,0,0-1.1-1.09h0a1.09,1.09,0,0,0-1.09,1.09h0a1.09,1.09,0,0,0,1.09,1.09h0A1.09,1.09,0,0,0,6.51,47.23Zm-1-31.34A1.1,1.1,0,1,0,6.57,17h0A1.09,1.09,0,0,0,5.48,15.89Zm4.38,0A1.1,1.1,0,1,0,11,17h0A1.09,1.09,0,0,0,9.86,15.89Zm4.39,0A1.1,1.1,0,1,0,15.34,17h0A1.09,1.09,0,0,0,14.25,15.89ZM59.17,60.28V67a3.49,3.49,0,0,1-3.48,3.46h-50A3.48,3.48,0,0,1,2.19,67h0V22.38H15.05c.27-.7.53-1.38.84-2.06H2.18V17.19a3.51,3.51,0,0,1,3.5-3.48H20a26.6,26.6,0,0,1,1.93-2.18H5.68A5.68,5.68,0,0,0,0,17.19V67a5.68,5.68,0,0,0,5.68,5.66h50A5.68,5.68,0,0,0,61.36,67V59c-.71.45-1.43.91-2.19,1.32ZM73,33.06a28.82,28.82,0,1,0-28.94,28.7h.18A28.82,28.82,0,0,0,73,33.06Zm-2.06,0A26.76,26.76,0,1,1,44,6.46h.16A26.76,26.76,0,0,1,70.94,33.06ZM44.18,57A24.28,24.28,0,0,0,58.1,52.56c.8-.58,0-1.92-.78-1.34a22.84,22.84,0,0,1-13.14,4.22.78.78,0,0,0-.64.9.76.76,0,0,0,.64.64ZM50.68,1.4h0A1.46,1.46,0,0,0,49.28,0H39.81a1.46,1.46,0,0,0-1.48,1.44v0h0a1.48,1.48,0,0,0,1.48,1.48h9.47a1.46,1.46,0,0,0,1.47-1.46v0Zm18.92,10h0a1.44,1.44,0,0,0-.17-2l0,0L64.66,5.44a1.43,1.43,0,0,0-2,.17l0,0h0a1.45,1.45,0,0,0,.17,2l0,0,4.8,4a1.47,1.47,0,0,0,2.06-.2h0ZM52.2,26.15a1,1,0,0,0-1.44,0L45.29,31.7v-19a1,1,0,1,0-2.06,0V34.13a.86.86,0,0,0,0,.39.9.9,0,0,0,.54.54.77.77,0,0,0,.37,0h0a.77.77,0,0,0,.37,0,1.15,1.15,0,0,0,.33-.21l7.26-7.26a1,1,0,0,0,.11-1.44ZM41,56.22h0a1.09,1.09,0,0,0-1.09-1.09h0a1.09,1.09,0,0,0-1.1,1.09h0a1.09,1.09,0,0,0,1.1,1.09h0A1.09,1.09,0,0,0,41,56.22Z"/></g></g></g></svg>