<svg xmlns="http://www.w3.org/2000/svg" viewBox="0 0 73 72.73"><g id="b4843456-2aa1-4b1b-88c4-af924c061075" data-name="Capa 2"><g id="f7a0cfdd-b999-4c3a-a0a1-4da8a74463f5" data-name="Capa 2"><g id="bbdfd4a1-1dd1-4493-8821-d1b48c92b4c6" data-name="Capa 1"><path id="a68ce711-530b-4fa7-a4be-028e8daf0435" data-name="Trazado 346" d="M5.39,43.68h0a1,1,0,0,1-1-1V26a1,1,0,0,1,1-1h0a1,1,0,0,1,1,1h0v16.7A1,1,0,0,1,5.39,43.68Zm1.08,3.75h0a1.08,1.08,0,0,0-1.08-1.09h0A1.09,1.09,0,0,0,4.3,47.43h0a1.09,1.09,0,0,0,1.09,1.09h0a1.08,1.08,0,0,0,1.08-1.09Zm-1-31.2a1.11,1.11,0,1,0,0,2.21h0a1.08,1.08,0,0,0,1.09-1v0a1.08,1.08,0,0,0-1-1.12Zm4.36,0a1.09,1.09,0,0,0,0,2.17,1.09,1.09,0,1,0,0-2.17Zm4.37,0a1.09,1.09,0,1,0,1.08,1.08,1.08,1.08,0,0,0-1.08-1.08Zm44.7,41.94V67.1a3.46,3.46,0,0,1-3.46,3.46H5.66A3.48,3.48,0,0,1,2.17,67.1V22.7H26.76V20.65H2.17V17.52a3.49,3.49,0,0,1,3.48-3.47h21V11.88h-21A5.66,5.66,0,0,0,0,17.52V67.1a5.65,5.65,0,0,0,5.66,5.63H55.42a5.66,5.66,0,0,0,5.66-5.63V58.17ZM65.75,19.5l-21,21h21v-21m1.53-3.7V42.08H41ZM62.86,27.21,52.61,38H62.86Zm-1,2.56v7.11H55Zm-12.66-.43-7,4H19.67a4.46,4.46,0,0,1-4.45-4.46,4.2,4.2,0,0,1,4.1-4.26H42.1ZM20.49,26.18H19.32a2.67,2.67,0,0,0-2.66,2.67h0a2.93,2.93,0,0,0,2.91,2.93h.92ZM42,29.77H22.07v2.05H42Zm0-3.58H22.07v2H42Zm1.64,4.67,2.81-1.6-2.81-1.91ZM59.72,6.15H41V7.81H59.7Zm2.73,3.54H38v1.84H62.45ZM56.3,13.56H44.23v1.87h12ZM73,0V52.92a3.57,3.57,0,0,1-3.57,3.57H27.23c-5.92,0-7.48-6.89-7.48-10.53v-1h8.69V34.83h2v10.1h33V46c0,.3-.45,7.64,5.33,8.4h.72a1.51,1.51,0,0,0,1.51-1.52V2.05H30.49v21h-2V0ZM64.15,54.44A10.94,10.94,0,0,1,61.32,47H21.86c.2,2.27,1.15,7.46,5.37,7.46Z"/></g></g></g></svg>