<svg xmlns="http://www.w3.org/2000/svg" viewBox="0 0 379.06 449">
    
    <title>icon-developer</title>
    <g id="Capa_2" data-name="Capa 2">
        <g id="Capa_1-2" data-name="Capa 1">
            <path class="dev-svg-color-class" d="M258.57,374.91,226,348a6.51,6.51,0,0,0-8,0,4.11,4.11,0,0,0,0,6.58l28.64,23.69L218.09,402a4.11,4.11,0,0,0,0,6.58,6.51,6.51,0,0,0,8,0l32.53-26.9a4.3,4.3,0,0,0,0-6.73Z"/>
            <path class="dev-svg-color-class" d="M151.39,348a6.5,6.5,0,0,0-7.95,0l-32.53,26.9a4.3,4.3,0,0,0,0,6.73l32.53,26.9a6.5,6.5,0,0,0,7.95,0,4.11,4.11,0,0,0,0-6.58l-28.64-23.69,28.64-23.69A4.11,4.11,0,0,0,151.39,348Z"/>
            <path class="dev-svg-color-class" d="M203.52,345.7a8.35,8.35,0,0,0-6.76,3.73l-34.52,63.45c-1.11,2.05.1,3.74,2.7,3.74a8.35,8.35,0,0,0,6.76-3.73l34.52-63.45C207.33,347.38,206.11,345.7,203.52,345.7Z"/>
            <path class="dev-svg-color-class" d="M378.94,442.61c0-.5-.94-49.91-2.77-87.17-1.62-33.47-26.61-48.07-38.67-50.81-.28-.12-28.91-11.77-64.33-24.21-30.49-10.71-27.68-44.65-27.55-46.08l-.45,0c.62-.67,1.18-1.3,1.82-2,13.36-14.08,23.24-59.66,25.48-90.19a13.19,13.19,0,0,1,7.28,1.41c1.31.79,2.8,2.17,2.8,5.9,0,10-4.44,25.62-6.16,28.18s-3.28,4-8.12,2.55l-3.62,12a24,24,0,0,0,6.92,1.1c6,0,11.07-2.8,15-8.39s8.48-24.46,8.48-35.45c0-7.27-3.15-13.17-8.85-16.63a25.06,25.06,0,0,0-13.74-3.21c0-8.72-.14-40-.92-75.74l-.2-1.4C260.82,10.62,229.71,4.38,219.5,2.32c-1.07-.21-1.9-.36-2.41-.53-8.53-3-45.83-1.63-66.52-.34-33.44,2.08-53,25.37-53.86,26.37L86.44,40.27l16-2.25a38.47,38.47,0,0,1,4-.3,156.7,156.7,0,0,0-18,19.09l-12.84,16,27-8.36V128.9A27.15,27.15,0,0,0,89,132.43c-5.82,3.51-9,9.37-9,16.52,0,11,4.52,29.87,8.48,35.45s9,8.39,15,8.39a24,24,0,0,0,6.92-1.1l-3.62-12c-4.86,1.44-6.31,0-8.11-2.54s-6.17-18.22-6.17-28.19c0-2.76.91-4.54,3-5.78a14.77,14.77,0,0,1,7.12-1.74c2.21,30.53,12.11,76.3,25.49,90.41l5.42,5.79c0,9-2.31,33.88-27.66,42.79-35.14,12.34-63.61,23.91-63.41,23.91h0c-13,3-38,17.64-39.6,51.11C1.07,392.7.13,442.12.12,442.61L0,449H379.06ZM233.57,246.85a61.94,61.94,0,0,0,8.75,24.21C238.05,282.94,219,295.25,191,295.25h-3c-28,0-47-12.3-51.29-24.17a60.75,60.75,0,0,0,8.25-21.6c7.08,6.78,13.61,11.31,20.62,11.31h22.65s12.94.49,22.19.49C218.56,261.27,225.6,255.27,233.57,246.85ZM188,314.05h3c29,0,53.9-11.43,65-28.68a50.9,50.9,0,0,0,4.73,2.94c-9.27,19.12-37.45,32.61-70.16,32.61h-2.11c-32.71,0-60.89-13.49-70.16-32.61a50.86,50.86,0,0,0,4.72-2.93C134.12,302.62,159,314.05,188,314.05ZM126.67,29.29A29.11,29.11,0,0,0,117.59,26,66.35,66.35,0,0,1,151.35,14c34.42-2.14,57.9-1.57,61.57-.34a36.3,36.3,0,0,0,4.1,1c10,2,33.27,6.67,42,40.23.61,28.31.81,53.73.87,67.17-5.64-3.75-12.13-10.33-12.13-20.79,0-19,0-19,.5-24.38l1.46-16.58L239.2,66.7c-37.51,22.84-86.56,9.78-104.43-.13l-9.31-5.15V72.06c0,13.35-.89,31.72-.88,32.57,0,.56.82,11.72-9.45,17V47.41l-1.11.35c4.46-4,8.2-6.64,10.09-6.82l19.32-1.85ZM114.81,135c18.9-5.57,23-22.45,22.28-30.6,0,0,.55-11.23.8-22.62,20.53,8.22,60.9,17.56,97.47,1.07-.09,3.18-.09,8.08-.09,18.35,0,21.51,17,31.61,25,35.18-1.38,30.41-11.85,76.2-22.36,87.28-2.66,2.79-5.15,5.54-7.54,8.17-7.55,8.3-15.37,16.88-19.94,16.88-9,0-21.68-.48-22-.48H165.59c-5.07,0-14-9.62-22.65-18.91l-5.74-6.13C126.59,212,116,165.43,114.81,135Zm-102,301.44c.31-14.57,1.19-51.25,2.6-80.41C17,323.83,44.2,316.81,46.27,316.24c.28-.12,28.65-11.66,63.76-24,1-.35,1.72-.88,2.65-1.26,10.36,21.24,40.76,36.2,75.79,36.2h2.11c35,0,65.43-15,75.79-36.19.93.38,1.66.91,2.64,1.26,35.13,12.33,63.48,23.87,64.69,24.29.28.07,28.37,7,29.95,39.52,1.42,29.16,2.3,65.84,2.61,80.41Z"/>
            <path class="dev-svg-color-class" d="M59.51,325a42,42,0,0,0-23.12,15.5c-11.22,15.08-7.19,35.22-9.89,52.75-.92,5.92,8.14,8.47,9.07,2.5C39,373.34,33.42,340.83,62,334,67.9,332.63,65.41,323.56,59.51,325Z"/>
            <path class="dev-svg-color-class" d="M189.94,63c18.67,0,34.16-3.26,49.41-14.62,4.8-3.57.11-11.74-4.75-8.12C220.66,50.67,207,53.58,189.94,53.62,183.89,53.63,183.88,63,189.94,63Z"/>
            <ellipse class="dev-svg-color-class" cx="175.34" cy="58.92" rx="5.62" ry="5.6"/>
            <path class="dev-svg-color-class" d="M190.47,52.73c10.63-2.35,19-7.07,25.86-15.67,3.72-4.69-2.89-11.39-6.65-6.65C203.74,37.9,197.22,41.62,188,43.67,182.06,45,184.56,54,190.47,52.73Z"/>
            <ellipse class="dev-svg-color-class" cx="76.45" cy="325.21" rx="6.67" ry="6.65"/>
        </g>
    </g>
</svg>