<svg xmlns="http://www.w3.org/2000/svg" viewBox="0 0 105 104.52"><g id="e7488216-2732-40b4-9eb5-632fd613d21c" data-name="Capa 2"><g id="b0ee9add-1773-4db0-943e-56948df3703a" data-name="Capa 2"><path id="adbe8561-1961-49cd-a9fd-6dac468ea34d" data-name="Trazado 349" d="M7.79,62.52h0A1.48,1.48,0,0,1,6.31,61V36.9a1.48,1.48,0,0,1,1.48-1.48h0A1.48,1.48,0,0,1,9.27,36.9V61A1.48,1.48,0,0,1,7.79,62.52Zm1.57,5.39h0a1.54,1.54,0,0,0-1.54-1.54h0a1.55,1.55,0,0,0-1.57,1.51v0h0a1.57,1.57,0,0,0,1.57,1.57h0A1.57,1.57,0,0,0,9.36,67.91ZM7.88,22.83A1.57,1.57,0,1,0,9.45,24.4h0A1.57,1.57,0,0,0,7.88,22.83Zm6.31,0a1.57,1.57,0,1,0,1.57,1.57h0A1.58,1.58,0,0,0,14.19,22.83Zm6.31,0a1.57,1.57,0,1,0,1.57,1.57h0A1.58,1.58,0,0,0,20.5,22.83ZM85.12,72.3V96.38a5,5,0,0,1-5,5H8.17a5,5,0,0,1-5-5V32.17H33a21.08,21.08,0,0,1,.33-3H3.14V24.7a5,5,0,0,1,5-5h27.6c.45-1.07.95-2.1,1.46-3.14H8.17A8.17,8.17,0,0,0,0,24.7V96.38a8.17,8.17,0,0,0,8.17,8.14h72a8.17,8.17,0,0,0,8.17-8.14V70.82C87.25,71.35,86.19,71.85,85.12,72.3Zm-14-10.1a25.63,25.63,0,0,1-15.22-5.1,1.1,1.1,0,0,0-1.51.38h0A1.18,1.18,0,0,0,54.73,59a27.74,27.74,0,0,0,16.35,5.37,1.13,1.13,0,0,0,0-2.2Zm0-54.14a25.85,25.85,0,0,1,19,8.56c.95,1.07,2.52-.5,1.57-1.57A28.15,28.15,0,0,0,71.08,5.92a1.13,1.13,0,0,0-.93,1.29,1.11,1.11,0,0,0,.93.93Zm33.8,27.07a34.51,34.51,0,0,1-33.8,35.1,32.93,32.93,0,0,1-22.54-8.89,1.71,1.71,0,0,1-.32.5L23.69,87.34a2.45,2.45,0,0,1-3.47-.08l-.11-.12a2.72,2.72,0,0,1-.18-3.73L44.6,57.81a2.5,2.5,0,0,1,.56-.35A35.58,35.58,0,0,1,37.4,35.13,34.54,34.54,0,0,1,71.08,0,34.53,34.53,0,0,1,105,35.13Zm-3,0A31.54,31.54,0,0,0,71.08,3,31.54,31.54,0,0,0,40.34,35.13,31.53,31.53,0,0,0,71.08,67.26a31.54,31.54,0,0,0,31-32.12h-.12ZM67,7.64h0A1.57,1.57,0,0,0,65.4,6.07h0a1.57,1.57,0,0,0-1.57,1.57h0A1.57,1.57,0,0,0,65.4,9.21h0A1.57,1.57,0,0,0,67,7.64Z" /></g></g></svg>