<svg xmlns="http://www.w3.org/2000/svg" viewBox="0 0 448.93 448"><defs><style>.cls-1{fill:#fff;}</style></defs><title>icon-ui-designer</title><g id="Capa_2" data-name="Capa 2"><g id="Capa_1-2" data-name="Capa 1"><path class="cls-1" d="M40.24,107.23a6.71,6.71,0,1,1-6.71-6.68A6.69,6.69,0,0,1,40.24,107.23Zm20.12-6.68a6.68,6.68,0,1,0,6.71,6.68A6.69,6.69,0,0,0,60.36,100.54Zm26.83,0a6.68,6.68,0,1,0,6.71,6.68A6.69,6.69,0,0,0,87.18,100.54Zm275,310.71v2.11a21.34,21.34,0,0,1-21.36,21.28h-306a21.34,21.34,0,0,1-21.36-21.28V140.25H163.8l-3.54-12.6H13.41v-19.2A21.34,21.34,0,0,1,34.77,87.18H148.88l-3.76-13.36H34.77A34.75,34.75,0,0,0,0,108.46V413.36A34.75,34.75,0,0,0,34.77,448h306a34.75,34.75,0,0,0,34.77-34.64v-2.11Zm-147.9-185a7.79,7.79,0,1,0,7.82,7.79A7.81,7.81,0,0,0,214.24,226.21ZM221,347.75V261a6.73,6.73,0,0,0-6.71-6.71h0a6.73,6.73,0,0,0-6.71,6.71v86.78a6.73,6.73,0,0,0,6.71,6.71h0A6.73,6.73,0,0,0,221,347.75ZM39.88,262.67V160.74A6.73,6.73,0,0,0,33.17,154h0a6.73,6.73,0,0,0-6.71,6.71V262.67a6.73,6.73,0,0,0,6.71,6.71h0A6.73,6.73,0,0,0,39.88,262.67Zm-.07,29.69h0a6.68,6.68,0,0,0-6.66-6.66h-.09a6.68,6.68,0,0,0-6.66,6.66h0A6.68,6.68,0,0,0,33.06,299h.09A6.68,6.68,0,0,0,39.81,292.36ZM445.13,88.12a38.92,38.92,0,0,1-23.67,21.41c.38,12.44-5.26,30.12-16.42,53a21.79,21.79,0,0,1,4.79,42V349.65a51.26,51.26,0,0,1-51.2,51.2H226.28a51.25,51.25,0,0,1-51.19-51.2V203a21.75,21.75,0,0,1,9.63-40.61L159.64,72.5a11,11,0,0,1,1.79-9.13L176.34,0l44.54,46.08s.09,0,.14,0a11.23,11.23,0,0,1,7.19,7.52l30.31,108.62h4.18V39.16a37.59,37.59,0,0,1,75.18,0V146.74c10.92-32.2,22.52-52.69,34.61-60.95a38.61,38.61,0,0,1,.85-28.84c9.11-20.86,55.78-47.73,61.07-50.73l8.13-4.61,2.15,16.12C448.53,45.09,451.71,73.06,445.13,88.12ZM275.29,162.23h50V145.15H308.11a7.79,7.79,0,1,1,0-15.59h17.17V114H308.11a7.79,7.79,0,1,1,0-15.59h17.17V82.81H308.11a7.79,7.79,0,1,1,0-15.59h17.17V51.63H308.11a7.79,7.79,0,1,1,0-15.59H325a24.94,24.94,0,0,0-49.67,3.12Zm-64.51-98.9c-1.48.66-3,1.31-4.62,1.92-.64.25-1.3.47-2,.71-1.43.52-2.87,1-4.36,1.48h0l26.45,94.78h19.15L217,60.22c-1.5.89-3.21,1.76-5,2.6C211.58,63,211.17,63.16,210.78,63.33Zm-35.55-3.57c.62,0,1.27-.12,1.93-.19q2-.21,4.14-.58c1.15-.19,2.29-.39,3.49-.64,1.52-.31,3.06-.7,4.61-1.09,1.73-.43,3.42-.9,5.12-1.41s3.36-1,5-1.58c1-.35,1.92-.71,2.86-1.07,1.56-.61,3-1.23,4.37-1.86.51-.24,1-.47,1.5-.71L183.35,25.2Zm-2.52,12.75,25.05,89.72h19.75L191.72,69.75l-.82.17c-1.5.36-3,.66-4.46,1-.71.14-1.42.29-2.11.42-1.73.3-3.39.53-5,.72-.4,0-.82.12-1.21.16C176.21,72.37,174.4,72.49,172.72,72.51ZM397.24,349.65V206H187.69V349.65a38.64,38.64,0,0,0,38.59,38.6H358.64A38.65,38.65,0,0,0,397.24,349.65ZM402,174.83H186a9.29,9.29,0,0,0-9.28,9.29,9.14,9.14,0,0,0,4.45,7.73H406.87a9.14,9.14,0,0,0,4.45-7.73A9.29,9.29,0,0,0,402,174.83Zm6.84-63.28c-1,0-1.91-.23-2.87-.31a38.54,38.54,0,0,1-4.82-.52,39.26,39.26,0,0,1-7.57-2.39h0a39.26,39.26,0,0,1-7.61-4.47c-.64-.47-1.2-1-1.8-1.53a38.4,38.4,0,0,1-4.74-4.67c-.26-.31-.6-.52-.85-.84-10.5,7.9-22,31-32.55,65.41h45.25C405.2,134.91,408.65,119.74,408.88,111.55Zm23.69-89.62C413.72,33.44,389.79,50.75,384.89,62a26.2,26.2,0,0,0-.38,20.18,27,27,0,0,0,1.8,3.53,26.72,26.72,0,0,0,4.85,6.08c.29.27.6.51.9.76a24.19,24.19,0,0,0,13.19,6c.54.08,1.07.13,1.61.18a26.62,26.62,0,0,0,6.43-.15c.18,0,.37,0,.55,0l.39-.06a26.49,26.49,0,0,0,19.36-15.41C439,70.59,435.08,40,432.57,21.93Z"/></g></g></svg>