<svg xmlns="http://www.w3.org/2000/svg" viewBox="0 0 35.13 35">
    <defs>
        <style>
            .insta-fill{fill:#000;}
        </style>
    </defs>
    <title>instagram</title>
    <g id="Capa_2" data-name="Capa 2">
        <g id="Capa_1-2" data-name="Capa 1">
            <path class="insta-fill" d="M27.19,35H7.94A8,8,0,0,1,0,27.06V7.94A8,8,0,0,1,7.94,0H27.19a8,8,0,0,1,7.94,7.94V27.06A8,8,0,0,1,27.19,35ZM7.94,1A7,7,0,0,0,1,7.94V27.06A7,7,0,0,0,7.94,34H27.19a7,7,0,0,0,6.94-6.94V7.94A7,7,0,0,0,27.19,1ZM3.53,26.44V19.39a.38.38,0,0,0-.75,0v7.05a.38.38,0,0,0,.75,0Zm14.32.38A9.32,9.32,0,1,1,27.2,17.5,9.35,9.35,0,0,1,17.85,26.82Zm0-17.14A7.82,7.82,0,1,0,25.7,17.5,7.85,7.85,0,0,0,17.85,9.68Zm5.67,7a5.25,5.25,0,0,0-5.17-5.16.38.38,0,0,0,0,.75,4.48,4.48,0,0,1,4.42,4.41.38.38,0,0,0,.75,0Zm5.08-6.52a3.32,3.32,0,1,1,3.33-3.32A3.33,3.33,0,0,1,28.6,10.11ZM28.6,5a1.82,1.82,0,1,0,1.83,1.82A1.83,1.83,0,0,0,28.6,5ZM3.15,16a.5.5,0,1,0,.5.5A.5.5,0,0,0,3.15,16ZM16,11.54a.5.5,0,1,0,.5.5A.5.5,0,0,0,16,11.54Z"/>
        </g>
    </g>
</svg>