<svg xmlns="http://www.w3.org/2000/svg" viewBox="0 0 31.4 35.03"><defs><style>.cls-1{fill-rule:evenodd;}</style></defs><title>intuitivo</title><g id="Capa_2" data-name="Capa 2"><g id="Capa_1-2" data-name="Capa 1"><path class="cls-1" d="M11.73,6.21a.5.5,0,1,1,.28.65A.5.5,0,0,1,11.73,6.21Zm-6.38,14a.5.5,0,1,0-.28-.65A.5.5,0,0,0,5.35,20.19Zm19,1.69a.5.5,0,1,0-.28-.65A.5.5,0,0,0,24.35,21.88Zm-7-8.16a.5.5,0,1,0-.28-.65A.5.5,0,0,0,17.38,13.72ZM5.45,12.07a.57.57,0,0,1,1.13,0,3.67,3.67,0,0,0,6.29,2.57.57.57,0,0,1,.81.79,4.76,4.76,0,0,1-2.9,1.41A3.6,3.6,0,0,1,7.23,19.9a.57.57,0,1,1,0-1.13,2.46,2.46,0,0,0,2.4-1.93A4.81,4.81,0,0,1,5.45,12.07Zm6,10.25A3.67,3.67,0,0,0,7.79,26a3.73,3.73,0,0,0,0,.39,4.81,4.81,0,0,1,3,4.45.57.57,0,1,1-1.13,0A3.67,3.67,0,0,0,6,27.16.57.57,0,1,1,6,26a4.82,4.82,0,0,1,.64,0s0-.05,0-.08a4.81,4.81,0,0,1,4.8-4.8.57.57,0,0,1,0,1.13Zm19.09-2.69a4.75,4.75,0,0,1,.85,2.73,4.81,4.81,0,0,1-2.46,4.19,5.41,5.41,0,0,1-3.73,5.8A5.41,5.41,0,0,1,15.7,32a5.41,5.41,0,0,1-9.51.32,5.41,5.41,0,0,1-3.73-5.8A4.81,4.81,0,0,1,0,22.36a4.75,4.75,0,0,1,.85-2.73,4.8,4.8,0,0,1,.58-6.14,4.76,4.76,0,0,1-.22-1.43A4.81,4.81,0,0,1,5.1,7.35,3.6,3.6,0,0,1,7,2.71,11,11,0,0,1,13.28,0,3,3,0,0,1,15.7,1.24,3,3,0,0,1,18.12,0a11,11,0,0,1,6.26,2.71A3.6,3.6,0,0,1,26.3,7.35,4.8,4.8,0,0,1,30,13.49a4.8,4.8,0,0,1,.58,6.14Zm-15.42,10A4.28,4.28,0,0,0,12,25.5a.57.57,0,0,1,.29-1.1,5.4,5.4,0,0,1,2.87,1.91V12.67a1.86,1.86,0,0,0-1.85-1.85.57.57,0,0,1,0-1.13,3,3,0,0,1,1.85.65V3a1.86,1.86,0,0,0-1.85-1.85,8.24,8.24,0,0,0-4,1.39,3.62,3.62,0,0,1,2.4,1.93.57.57,0,0,1-1,.5A2.46,2.46,0,0,0,7.56,3.72l-.1,0A2.46,2.46,0,0,0,6.32,7.27a4.81,4.81,0,0,1,4.5,4.79.57.57,0,1,1-1.13,0,3.67,3.67,0,1,0-7.07,1.38.57.57,0,0,1-.16.65A3.67,3.67,0,0,0,4.8,20.58a.57.57,0,1,1,0,1.13,4.78,4.78,0,0,1-3.17-1.2,3.63,3.63,0,0,0-.5,1.84,3.67,3.67,0,0,0,2.18,3.35.57.57,0,0,1,.33.63,4.27,4.27,0,0,0,3.08,5,.57.57,0,0,1,.35.28,4.27,4.27,0,0,0,8.06-2Zm15.13-7.26a3.63,3.63,0,0,0-.5-1.84,4.78,4.78,0,0,1-3.17,1.2.57.57,0,1,1,0-1.13,3.67,3.67,0,0,0,2.35-6.49.57.57,0,0,1-.16-.65,3.67,3.67,0,1,0-7.07-1.38.57.57,0,1,1-1.13,0,4.81,4.81,0,0,1,4.5-4.79,2.46,2.46,0,0,0-1.14-3.52l-.1,0a2.46,2.46,0,0,0-3.08,1.23.57.57,0,0,1-1-.5,3.62,3.62,0,0,1,2.4-1.93,8.24,8.24,0,0,0-4-1.39A1.86,1.86,0,0,0,16.27,3V7.91a3,3,0,0,1,1.85-.65.57.57,0,1,1,0,1.13,1.86,1.86,0,0,0-1.85,1.85V29a.57.57,0,0,1,0,.15c0,.16,0,.31,0,.47a4.27,4.27,0,0,0,8.06,2,.57.57,0,0,1,.35-.28,4.27,4.27,0,0,0,3.08-5,.57.57,0,0,1,.33-.63A3.67,3.67,0,0,0,30.26,22.36ZM26,18.73a.57.57,0,0,1-.57.57,3.6,3.6,0,0,1-3.55-3.06,4.76,4.76,0,0,1-2.9-1.41.57.57,0,0,1,.81-.79A3.67,3.67,0,0,0,26,11.46a.57.57,0,1,1,1.13,0A4.81,4.81,0,0,1,23,16.22a2.46,2.46,0,0,0,2.4,1.93A.57.57,0,0,1,26,18.73Zm-1.82,6.66a.57.57,0,0,1-.57.57,3.67,3.67,0,0,0-3.67,3.67.57.57,0,0,1-1.13,0,4.81,4.81,0,0,1,3-4.45,3.73,3.73,0,0,0,0-.39,3.67,3.67,0,0,0-3.67-3.67.57.57,0,0,1,0-1.13,4.81,4.81,0,0,1,4.8,4.8s0,.05,0,.08a4.82,4.82,0,0,1,.64,0A.57.57,0,0,1,24.13,25.38Z"/></g></g></svg>