<svg xmlns="http://www.w3.org/2000/svg" viewBox="0 0 1540.61 2180.15">
    <g id="Capa_2" data-name="Capa 2">
        <path d="M0,429.26,143,2003.5l626.08,176.65,629.7-177.85L1540.61,429.86ZM1282.83,1917.58,776.3,2056.37h0L265,1917.58,145.43,569.26h1257ZM985.4,952v269.19l306.44-34.25L1250.38,1691h0L835.19,1799.21l-3-182.66,300.43-79.91,4.21-149-298,51.07-6.62-669.35L1325.49,767l-13.22,183.86Zm-426-184.46H712.61V1799.21l-451.84-122h0l-.6-184.46s189.16,53.24,296.83,81l1.19-400,1.17-391.88ZM621.1,0h97.7V291h-234V193.09H621.1Zm434.75,103.38h-95l95,93.14v93H818v-93s67.51-.09,94.42-.09c-46-46-62.64-61.25-94.42-93.07V1.48h237.81Z" />
    </g>
</svg>