<svg xmlns="http://www.w3.org/2000/svg" viewBox="0 0 35.2 33.56"><defs><style>.cls-1{fill:#020202;}</style></defs><title>linkedin</title><g id="Capa_2" data-name="Capa 2"><g id="Capa_1-2" data-name="Capa 1"><path class="cls-1" d="M32.72,18.66a.5.5,0,1,0-.28-.65A.5.5,0,0,0,32.72,18.66Zm2.48,1.8c0-6.5-3.34-10.39-8.94-10.39a7.65,7.65,0,0,0-6.11,2.63V10.59H11.79l0,.52c.1,2,0,21.75,0,21.94v.5h8.33V20.79a4.45,4.45,0,0,1,.21-1.59,3.54,3.54,0,0,1,3.3-2.36c2.13,0,3.21,1.5,3.21,4.47V33.56H35.2Zm-7.33.84c0-3.53-1.5-5.47-4.21-5.47a4.5,4.5,0,0,0-4.22,3,5.28,5.28,0,0,0-.28,2V32.56H12.82c0-3,.08-17.58,0-21h6.32v4.29l.92-1.41a6.79,6.79,0,0,1,6.19-3.4c5,0,7.94,3.42,7.94,9.39v12.1H27.87Zm5.24-.8-.91-3.65c.16.45.89.26.72-.2a7.2,7.2,0,0,0-7-5,.38.38,0,0,0,0,.75A6.62,6.62,0,0,1,32.2,16.85ZM2.6,32h0a.35.35,0,0,1-.35-.35V26a.35.35,0,0,1,.35-.35h0a.35.35,0,0,1,.35.35v5.66A.35.35,0,0,1,2.6,32Zm-.18-7.35A.5.5,0,1,0,2.13,24,.5.5,0,0,0,2.42,24.66ZM9.25,4.28A4.32,4.32,0,0,0,4.65,0a4.31,4.31,0,1,0,0,8.59A4.34,4.34,0,0,0,9.25,4.28Zm-1,0c0,1.94-1.5,3.3-3.7,3.3A3.28,3.28,0,0,1,1,4.3,3.33,3.33,0,0,1,4.65,1,3.32,3.32,0,0,1,8.25,4.3ZM4.67,1.41a3.07,3.07,0,0,0-3.22,3,.38.38,0,0,0,.75,0A2.31,2.31,0,0,1,4.67,2.16a.38.38,0,0,0,0-.75Zm4.09,9.18H.44v23H8.76Zm-7.33,1H7.76v21H1.44Z"/></g></g></svg>