<svg xmlns="http://www.w3.org/2000/svg" viewBox="0 0 781 318.91">
    <defs>
        <style>
            .cls-1{fill:#fff;}
            .cls-1,.cls-2{fill-rule:evenodd;}
            .cls-2{fill:#fff;}
        </style>
    </defs>
    <title>logo</title>
    <g id="Capa_2" data-name="Capa 2">
        <g id="Capa_1-2" data-name="Capa 1">
            <path class="cls-1" d="M180.28,314.42h60l29.87-141.76q-32.51,7.23-63.65,17.38Zm204.62,4.49q51.35,0,85.13-24.28,34.85-25.09,44.71-71.85c3.32-15.56,3.06-29.61-.65-42.24a57.39,57.39,0,0,0-11.65-18.75,696.33,696.33,0,0,0-172.6.46,94.24,94.24,0,0,0-18.42,18.29c-8.2,11.39-14.06,25.51-17.57,42.24q-10.05,47.64,12.69,71.85,23.52,24.31,75.76,24.28h2.6Zm16.92-51.22a16.29,16.29,0,0,1-6.31.91h-2.6c-2.93,0-4.88-.32-5.92-.91H385.3c-10.94-.59-18.81-4.49-23.63-11.65q-10.25-13.47-5.73-35.08c2.28-10.74,6.12-19.14,11.46-25.13q16.89-22.45,46.47-22.45h.85q27.82,0,36.12,22.45c3.12,7.16,3.71,15.56,1.69,25.13-3.06,14.38-9.83,26.1-20.43,35.08q-14.45,10.74-28.57,11.65h-1.69Zm292.1-53.11c-1.24,3.06-2.54,6.12-3.84,9.11q-13.28,29.68-28.38,39.5-12.79,7.23-23.23,7.22a28.1,28.1,0,0,1-19.4-7.22q-12.69-9.86-13-39.5a271.2,271.2,0,0,1,2.73-40.16q-29.19-8.49-59.42-14.32-16.11,83.18,5.08,115.52,23.23,34.17,73.74,34.17t84-31.44c13.08-11.78,24.41-27.33,34.17-46.73Q720.87,226.59,693.93,214.58ZM0,314.42H45.88l11.39-54.15a646.1,646.1,0,0,0-54,38.33Z"/>
            <path class="cls-2" d="M274.46,152.23,298.8,36.84c1.89-9,.39-16.47-4.43-22.46s-11.58-9-20.31-9H256.69Q242.63,35,219.46,48T177.09,61.11L167.66,106h56.56l-12.56,59.42C232.22,160.24,253.18,155.88,274.46,152.23Zm220.44-9.31a78.39,78.39,0,0,0,22.65-19.85q12.88-16.21,18.29-39.51t-3.52-43.15c-2.8-6-5.4-10.15-7.74-12.56-.39-1.17-1.56-2.41-3.65-3.58q-10.06-10-26.49-16.66T453.7.91L451.29,0h-.91l-3.65.91q-24.41,0-43.61,6.7a137.78,137.78,0,0,0-33.52,16.66A21.36,21.36,0,0,1,367.07,26a25.49,25.49,0,0,0-2.6,1.82A40.23,40.23,0,0,0,352.3,40.42Q335,60.24,330.17,83.57t1.24,39.51a48.34,48.34,0,0,0,14.64,20c24.67-2.08,49.79-3.19,75.11-3.19Q458.55,139.87,494.9,142.92ZM439.77,50.31c13.93,0,23.89,3.78,29.81,11.26s7.88,16.27,5.73,26.49a45.55,45.55,0,0,1-16,26.49c-8.4,6.9-20.17,10.35-35.21,10.35q-23.53,0-31.31-10.35c-5.21-6.9-6.71-15.75-4.43-26.49,2.15-10.22,7.75-19,16.86-26.49S425.85,50.31,439.77,50.31Zm245.11,0c8.07,0,14.51,2.41,19.33,7.16Q714.95,68.3,716.12,98t-5.86,62.87c-1.89,9-4.1,17.77-6.7,26.42,19.07,6.7,37.81,14.06,56,22.06a393.29,393.29,0,0,0,13.47-49.4q18.55-88.06-6.31-126.65Q744.11,0,695.42,0,645,0,611.21,32.35q-38.86,36.41-57.67,117.54,30.07,4.59,59.23,11.26l.26-1.24A308.65,308.65,0,0,1,633.14,97.5c8.79-19.46,18.23-32.8,28.44-40A39.82,39.82,0,0,1,684.88,50.31ZM75.3,62.81c16.47,0,34.63-14.25,38.34-31.76,3.58-17-7.61-29.42-23.69-29.42-16.46,0-34.62,14.25-38.27,31.76C48.1,50.38,59.29,62.81,75.3,62.81ZM66.45,216.73,93.4,89H47.51L15,243.15Q40,229.1,66.45,216.73Z"/>
        </g>
    </g>
</svg>