<svg xmlns="http://www.w3.org/2000/svg" viewBox="0 0 31.01 35.07"><title>mail</title><g id="Capa_2" data-name="Capa 2"><g id="Capa_1-2" data-name="Capa 1"><path d="M29,23.26a.5.5,0,1,1-.28-.65A.5.5,0,0,1,29,23.26Zm-.82,1.92q0,1.56,0,3.13a.38.38,0,0,0,.75,0q0-1.56,0-3.13A.38.38,0,0,0,28.23,25.18ZM31,13.74V33a2,2,0,0,1-2,2H2a2,2,0,0,1-2-2V13.75l2.79-2.54V5.39h6.4L15.13,0l6.23,5.39h6.86v5.93ZM30,32.67V15.07l-2,1.74-7.39,6.75ZM10.48,23.56l-7.53-7L1,14.75V33s0,.06,0,.09ZM28.22,12.65v2.67L29.75,14ZM10.68,5.39h9.15L15.14,1.34Zm-6.89,1v9.54L15.51,26.55,27.22,16.2V6.39Zm-1,6.17L1.44,13.79,2.79,15ZM29,34.07a1,1,0,0,0,.73-.3l-9.79-9.53-4.41,4-4.29-4L1.59,34a1,1,0,0,0,.45.11ZM5.87,9.82a.43.43,0,0,0-.43.43v2.86a.43.43,0,1,0,.87,0V10.25A.43.43,0,0,0,5.87,9.82Zm0,4.47a.43.43,0,0,0-.43.43v.62a.43.43,0,0,0,.87,0v-.62A.43.43,0,0,0,5.87,14.29Zm0-5.19h0a.43.43,0,0,0,.43-.43h0a.43.43,0,0,0-.43-.43h0a.43.43,0,0,0-.43.43h0A.43.43,0,0,0,5.87,9.1Z"/></g></g></svg>