<svg xmlns="http://www.w3.org/2000/svg" viewBox="0 0 137.26 74.51"><g id="Capa_2" data-name="Capa 2"><g id="Capa_1-2" data-name="Capa 1"><path d="M126.15,47.14c-.15,0-.3.36-.3.53,0,1.18-.06,4.32-.06,6.44a.21.21,0,0,0,.18.18c.44,0,1.5.06,2.42.06a6.25,6.25,0,0,0,2.42-.36,3.13,3.13,0,0,0,1.57-3c0-2.87-2-4-5-4a5.16,5.16,0,0,0-1.24.06Zm7.62,13.21c0-2.93-2.16-4.55-6.06-4.55a16.85,16.85,0,0,0-1.71,0c-.09,0-.21.08-.21.17,0,2.1,0,5.44.06,6.74a2.25,2.25,0,0,0,1,1.6,6.78,6.78,0,0,0,2.57.35A4,4,0,0,0,133.77,61,3.86,3.86,0,0,0,133.77,60.35ZM120.12,45.52c.3,0,1.18.08,3.46.08s3.87-.05,6-.05c2.57,0,6.12.91,6.12,4.75a4.64,4.64,0,0,1-3.07,4.14c-.09,0-.09.09,0,.12,2.48.62,4.67,2.15,4.67,5s-1.78,4.64-4.35,5.76a13.91,13.91,0,0,1-5.49.91c-1.51,0-5.56-.17-7.8-.11-.24-.09.2-1.16.41-1.33a5.54,5.54,0,0,0,1.51-.24c.8-.21.88-.44,1-1.65.06-1,.06-4.7.06-7.3,0-3.58,0-6,0-7.18,0-.92-.36-1.21-1-1.39s-1.33-.21-2-.3C119.44,46.64,119.94,45.63,120.12,45.52Zm-17,18.37a5.9,5.9,0,0,0,3.33.8A6.57,6.57,0,0,0,111.14,63c1.57-1.42,2.66-3.6,2.66-7.09s-1.27-6.06-3.87-7.65a10.44,10.44,0,0,0-5.55-1.3,4.46,4.46,0,0,0-1.66.2.9.9,0,0,0-.3.48c-.06.59-.06,5.14-.06,7.8s0,6.58.06,7a1.86,1.86,0,0,0,.65,1.41ZM96.37,45.52c.56,0,2.72.09,3.75.09,1.86,0,3.19-.09,6.71-.09a10.93,10.93,0,0,1,7.21,2.3,9.56,9.56,0,0,1,3.27,7.56,9.9,9.9,0,0,1-4.07,8.51c-2,1.51-4.7,2.39-8.48,2.39-2,0-5.47-.06-8.33-.09h0c-.14-.26.24-1.3.48-1.33a4.89,4.89,0,0,0,1.36-.26c.62-.24.73-.56.82-1.66.09-2,.06-4.49.06-7.26,0-2,0-5.85,0-7.09-.09-1-.53-1.3-1.42-1.48a18.62,18.62,0,0,0-1.86-.3c-.12-.21.42-1.12.56-1.3ZM60.62,65a5.62,5.62,0,0,1-1.92-.5.91.91,0,0,1-.23-.47c-.06-1-.06-4-.06-6a7.06,7.06,0,0,0-.95-4A4,4,0,0,0,54,52.37a7.93,7.93,0,0,0-4.49,2.13s-.27.24-.24-.09.06-1,.09-1.42a.79.79,0,0,0-.2-.62,19.29,19.29,0,0,1-4.58,1.18c-.71.15-.89.83-.15,1.07h0a6.6,6.6,0,0,1,1.74.77.93.93,0,0,1,.27.82c0,2.22,0,5.62-.06,7.48,0,.74-.24,1-.77,1.12l.06,0c-.41.1-.83.18-1.24.24a1.71,1.71,0,0,0,0,1.33c.32,0,2-.09,3.45-.09,1.95,0,3,.09,3.46.09A1.92,1.92,0,0,0,51.56,65a5.21,5.21,0,0,1-1.36-.21c-.53-.12-.68-.38-.71-1-.06-1.57-.06-4.88-.06-7.12a1.41,1.41,0,0,1,.36-1.09,4.35,4.35,0,0,1,2.74-1,3,3,0,0,1,2,.68,2.9,2.9,0,0,1,1,1.86c.14,1.27.09,3.78.09,6,0,1.19-.09,1.48-.54,1.63a6.21,6.21,0,0,1-1.35.27,1.71,1.71,0,0,0,0,1.33c.85,0,1.86-.09,3.33-.09,1.83,0,3,.09,3.49.09a2.15,2.15,0,0,0,.09-1.28Zm8.19-11.28c-1.57,0-2.54,1.21-2.54,3.1S67.12,61,69.54,61a2.26,2.26,0,0,0,1.54-.6,3.9,3.9,0,0,0,1-2.71c0-2.46-1.21-3.93-3.22-3.93ZM68.6,66.82a2.45,2.45,0,0,0-1.27.32c-1.24.8-1.8,1.57-1.8,2.48a2.6,2.6,0,0,0,1,2.13,5.27,5.27,0,0,0,3.55,1.09c3,0,4.34-1.62,4.34-3.22a2.26,2.26,0,0,0-1.71-2.27A11.86,11.86,0,0,0,68.6,66.82Zm.21,7.68a6.53,6.53,0,0,1-4.23-1.24A3.92,3.92,0,0,1,63,70.33a2.26,2.26,0,0,1,.59-1.48,15.49,15.49,0,0,1,2.72-2.18.13.13,0,0,0,.08-.12.21.21,0,0,0-.11-.15,2.76,2.76,0,0,1-1.92-1.86v-.06a.42.42,0,0,1,.17-.53c.21-.15.5-.32.83-.53a11,11,0,0,0,1.36-.89.21.21,0,0,0,.06-.17.2.2,0,0,0-.12-.15,4.32,4.32,0,0,1-3.1-4.52A4.48,4.48,0,0,1,65.47,54a8.65,8.65,0,0,1,4.25-1.45h.09a8.87,8.87,0,0,1,3.25.71,5.71,5.71,0,0,0,1.92.3,2.55,2.55,0,0,0,2.07-.77,1.52,1.52,0,0,1,.12.59,2.21,2.21,0,0,1-.39,1.36,1.65,1.65,0,0,1-1.3.56h-.14a4.94,4.94,0,0,1-.77-.12l-.12.06c0,.06,0,.12,0,.21l0,.06a9,9,0,0,1,.18,1.27,4.78,4.78,0,0,1-2,4.28,6.71,6.71,0,0,1-3.46,1.33l-.41,0c-.15,0-.35,0-.38,0h0c-.24.06-.83.35-.83.86s.27,1,1.54,1.06c.26,0,.53,0,.82.06a26.25,26.25,0,0,1,4.76.59,3.32,3.32,0,0,1,2.22,3.16c0,2.19-1.57,4.23-4.17,5.5a9.48,9.48,0,0,1-3.93.85ZM85.65,53.91a2.73,2.73,0,0,0-1.6.44c-1.16.71-1.75,2.13-1.75,4.19,0,3.87,2,6.59,4.73,6.59a3,3,0,0,0,2-.71c.85-.71,1.3-2.12,1.3-4.1,0-3.84-1.92-6.41-4.73-6.41Zm.53,12.64c-5,0-6.83-3.69-6.83-7.15a6.4,6.4,0,0,1,2.93-5.61,8.92,8.92,0,0,1,4.52-1.33,6.32,6.32,0,0,1,6.53,6.11q0,.3,0,.6a6.87,6.87,0,0,1-3.1,6.11,8.22,8.22,0,0,1-4,1.27ZM33.53,53.91a2.77,2.77,0,0,0-1.6.44c-1.15.71-1.74,2.13-1.74,4.19,0,3.87,1.95,6.59,4.73,6.59a3,3,0,0,0,2-.71c.85-.71,1.3-2.12,1.3-4.1C38.26,56.47,36.37,53.91,33.53,53.91Zm.54,12.64c-5,0-6.83-3.69-6.83-7.15a6.4,6.4,0,0,1,2.93-5.61,8.89,8.89,0,0,1,4.52-1.33,6.32,6.32,0,0,1,6.53,6.11,4,4,0,0,1,0,.6,6.82,6.82,0,0,1-3.1,6.11,8,8,0,0,1-4,1.27ZM.3,66.25a1.31,1.31,0,0,1-.09-.68,1.12,1.12,0,0,1,.09-.44,9.68,9.68,0,0,0,1.3-.27c.59-.14.83-.47.86-1.21.09-1.77.09-5.14.06-7.47v-.06a.92.92,0,0,0-.33-.83,6.44,6.44,0,0,0-1.77-.76c-.27-.09-.45-.24-.42-.42s.18-.38.57-.44a22.21,22.21,0,0,0,4.52-1.15.71.71,0,0,1,.14.47l0,.33c0,.32,0,.7,0,1.09a.23.23,0,0,0,.23.21.64.64,0,0,0,.18-.06,8.27,8.27,0,0,1,4.49-2,3.83,3.83,0,0,1,3.43,2.1.24.24,0,0,0,.2.12.24.24,0,0,0,.18-.09,9,9,0,0,1,4.64-2.13c2.74,0,4.37,2,4.37,5.49,0,1,0,2.25,0,3.4s0,2,0,2.66a1,1,0,0,0,.53.71,6.37,6.37,0,0,0,1.72.42h0a2.38,2.38,0,0,1-.18,1.12c-.25,0-.5,0-.74,0q-1.12-.06-2.25-.06c-1.83,0-2.77,0-3.69.09a3,3,0,0,1,0-1.12A10.16,10.16,0,0,0,19.35,65c.6-.18.74-.44.77-1.21,0-.56.12-5.35-.06-6.5a2.92,2.92,0,0,0-3-2.58,5.27,5.27,0,0,0-3,1.16.53.53,0,0,0-.12.3v0A13.91,13.91,0,0,1,14,58.57v1.92c0,1.33,0,2.57,0,3.52a.85.85,0,0,0,.71.91l.44.09,1,.21a1.67,1.67,0,0,1,0,.83.56.56,0,0,1-.12.3c-1,0-2-.06-3.55-.06-.44,0-1.21,0-1.86,0s-1,0-1.33,0a1.68,1.68,0,0,1-.08-.59.93.93,0,0,1,.11-.54,3,3,0,0,1,.42-.06c.35,0,.65-.11.94-.17.5-.15.68-.42.71-1.07a50.83,50.83,0,0,0,0-6.76,2.78,2.78,0,0,0-2.9-2.57,5.4,5.4,0,0,0-3,1.15,1,1,0,0,0-.27.68v1.74c0,2.13,0,4.79,0,5.94A.92.92,0,0,0,6,65c.22,0,.45.09.68.12l.53.08a2.41,2.41,0,0,1-.09,1.13c-.3,0-.65,0-1.06,0-.62,0-1.42-.06-2.3-.06-1,0-1.77,0-2.36.06a6.76,6.76,0,0,0-1.1-.06ZM75.22,21.93A26,26,0,0,0,74.85,18c-2.4-10.54-8-14-8.66-15.32A14.82,14.82,0,0,1,64.86.12h0V.4c0-.13,0-.27-.06-.4a2.74,2.74,0,0,1-1,2.25c-2,1.53-8.42,7.44-8.95,18.9a20.07,20.07,0,0,0,1.21,8A22.9,22.9,0,0,0,59.34,35a23.85,23.85,0,0,0,4.75,4.77,9.21,9.21,0,0,1,.57,2.15,20.61,20.61,0,0,1,.2,3.14l1.21.41h0a22.47,22.47,0,0,1,.12-4.78,4.41,4.41,0,0,1,.75-1.34,13.53,13.53,0,0,0,1.31-1.08.33.33,0,0,1,.1-.06v0A21.36,21.36,0,0,0,75.22,21.93ZM64.71,37.8c0-.13.05-.27.07-.4a23.89,23.89,0,0,1-4.49-6.16A19.61,19.61,0,0,1,58.2,21.4a26.74,26.74,0,0,1,2.71-10.78,23.86,23.86,0,0,1,4-5.73l.37,24.56s-.17,1.74-.17,3.76a17.46,17.46,0,0,0,.47,4.59Z" style="fill:#fff;fill-rule:evenodd"/></g></g></svg>