<svg xmlns="http://www.w3.org/2000/svg" viewBox="0 0 109.47 74.34"><g id="Capa_2" data-name="Capa 2"><g id="Capa_1-2" data-name="Capa 1"><path d="M26.32,67.72H22.09Q21.87,57,20.86,47.61h0L14.39,67.72H11.18L4.78,47.61h0q-.72,9-.9,20.11H0Q.38,54.27,1.87,42.49H7.1L13.2,61h0l6.14-18.54h5Q26,56.29,26.32,67.72M44.64,49.1q-2.58,14-6.8,20.35-3.3,4.89-7.22,4.89A7.24,7.24,0,0,1,28,73.71V71.46a11.56,11.56,0,0,0,1.76.11,4.23,4.23,0,0,0,3-1A3.69,3.69,0,0,0,34.1,67.8a18.76,18.76,0,0,0-1.05-4.3L28.41,49.1h4.15l3.33,10.77A14.69,14.69,0,0,1,36.83,65,70.54,70.54,0,0,0,40.64,49.1Zm56.22,18.62h-12V42.49h4V64.62h8Zm-15.14.61L81.08,66a7.68,7.68,0,0,0,1.16-1.12q3-3.48,3-10.28,0-12.53-9.83-12.53a9.34,9.34,0,0,0-7.52,3.18q-3,3.48-2.95,10.24t2.62,9.76c1.59,1.87,4,2.8,7.21,2.81a11.48,11.48,0,0,0,3.3-.45l6,3.52Zm-15-5.66q-1.53-2.46-1.53-7.92,0-9.53,5.8-9.53a4.85,4.85,0,0,1,4.45,2.28q1.53,2.46,1.53,7.85,0,9.6-5.79,9.61a4.86,4.86,0,0,1-4.45-2.29m-7.56-1.94A6.7,6.7,0,0,1,60.79,66a9.33,9.33,0,0,1-6.32,2.06,12.7,12.7,0,0,1-7.18-2.36l1.09-2.17A12.4,12.4,0,0,0,53.8,65a5.69,5.69,0,0,0,3.57-1,3.42,3.42,0,0,0,1.37-2.8c0-1.5-1-2.78-3-3.85s-5.31-3-5.31-3A6,6,0,0,1,47.6,49a6.3,6.3,0,0,1,2.14-5,8.13,8.13,0,0,1,5.55-1.89A11.47,11.47,0,0,1,61.68,44l-1,2.17a12.48,12.48,0,0,0-4.86-1,4.3,4.3,0,0,0-3,.94,3.09,3.09,0,0,0-1.13,2.39c0,1.49,1.06,2.79,3,3.89,1.8,1,5.42,3,5.42,3a5.94,5.94,0,0,1,3,5.33M105.93,34a14.06,14.06,0,0,0-5.92.86c-.45.18-1.18.18-1.25.76.25.25.28.64.49,1a7.1,7.1,0,0,0,1.59,1.86c.64.49,1.28,1,2,1.4,1.19.73,2.53,1.16,3.69,1.89.67.43,1.34,1,2,1.44.33.24.55.64,1,.79v-.09c-.22-.28-.28-.68-.49-1l-.92-.88A14.25,14.25,0,0,0,104.89,39c-1-.67-3.11-1.59-3.5-2.71l-.07-.06a12.35,12.35,0,0,0,2.1-.5c1-.27,2-.21,3-.48.49-.12,1-.28,1.47-.43v-.27c-.55-.55-1-1.28-1.53-1.8a40.14,40.14,0,0,0-5-3.76c-.95-.61-2.16-1-3.17-1.52-.36-.18-1-.27-1.19-.58a12.31,12.31,0,0,1-1.25-2.35c-.88-1.67-1.74-3.53-2.5-5.31a32.59,32.59,0,0,0-1.56-3.47,30.7,30.7,0,0,0-11.8-11.4A14.33,14.33,0,0,0,76,3.09L73.72,3a13,13,0,0,1-1.4-1.07c-1.74-1.1-6.22-3.48-7.5-.34C64,3.55,66,5.5,66.75,6.51A13.66,13.66,0,0,1,68.3,8.79c.22.52.28,1.07.49,1.62a37.44,37.44,0,0,0,1.59,4.08,14.91,14.91,0,0,0,1.12,1.89c.25.34.68.48.77,1a8.61,8.61,0,0,0-.7,2.28A13.46,13.46,0,0,0,72.45,30c.49.76,1.65,2.44,3.2,1.8,1.38-.55,1.07-2.29,1.47-3.81.09-.37,0-.61.21-.85v.06c.43.85.86,1.67,1.25,2.53a17.67,17.67,0,0,0,4,4.08c.73.55,1.31,1.5,2.22,1.83V35.5h-.06a3.41,3.41,0,0,0-.7-.61,13.74,13.74,0,0,1-1.58-1.83A39,39,0,0,1,79,27.51c-.49-1-.91-2-1.31-2.93-.18-.36-.18-.91-.49-1.1a11.61,11.61,0,0,0-1.46,2.08,17.63,17.63,0,0,0-.86,4.6l-.12.06c-1-.24-1.31-1.25-1.68-2.1A13.24,13.24,0,0,1,72.82,20c.21-.64,1.13-2.65.76-3.26-.18-.58-.79-.92-1.12-1.38a11.35,11.35,0,0,1-1.1-1.95c-.74-1.71-1.1-3.6-1.89-5.3a16.31,16.31,0,0,0-1.53-2.35,15.94,15.94,0,0,1-1.68-2.38c-.15-.33-.36-.88-.12-1.25a.5.5,0,0,1,.43-.4c.4-.33,1.52.09,1.92.28a15,15,0,0,1,3,1.52c.42.31.88.89,1.43,1h.64c1,.21,2.07.06,3,.33A19.69,19.69,0,0,1,81,7a27.11,27.11,0,0,1,9.51,10.43c.37.7.52,1.35.85,2.08.65,1.5,1.44,3,2.08,4.48a20.51,20.51,0,0,0,2.16,4.09c.46.64,2.29,1,3.12,1.31a21,21,0,0,1,2.1.85c1,.64,2.07,1.37,3,2.07.49.37,2,1.13,2.1,1.74M74.82,7.53a4.82,4.82,0,0,0-1.25.16v.06h.07a10.71,10.71,0,0,0,1,1.25c.25.49.46,1,.7,1.46l.06-.06A1.7,1.7,0,0,0,76,8.87a5.07,5.07,0,0,1-.37-.64c-.18-.3-.58-.45-.82-.7m34,60.19h.63V64.63h-1l-.77,2.11-.84-2.11H106v3.09h.6V65.37h0l.88,2.35H108l.88-2.35Zm-5.09,0h.67V65.15h.87v-.52h-2.45v.52h.91v2.57Z" style="fill:#fff"/></g></g></svg>