<svg xmlns="http://www.w3.org/2000/svg" viewBox="0 0 66.07 74.5"><g id="Capa_2" data-name="Capa 2"><g id="Capa_1-2" data-name="Capa 1"><path id="Capa_2-2" data-name="Capa 2" d="M33,74.5a5.66,5.66,0,0,1-2.86-.77l-9.12-5.38c-1.37-.76-.68-1-.25-1.19a17.69,17.69,0,0,0,4.1-1.88.71.71,0,0,1,.69.06l7,4.15a.86.86,0,0,0,.85,0L60.76,53.73a.86.86,0,0,0,.41-.73V21.49a.88.88,0,0,0-.42-.75L33.49,5a.84.84,0,0,0-.84,0L5.33,20.74a.87.87,0,0,0-.43.74V53a.83.83,0,0,0,.43.73L12.81,58c4.06,2.05,6.54-.36,6.54-2.73V24.18a.78.78,0,0,1,.78-.79h3.48a.78.78,0,0,1,.79.78h0V55.29c0,5.41-2.95,8.52-8.08,8.52-1.58,0-2.83,0-6.29-1.71L2.86,58A5.76,5.76,0,0,1,0,53V21.49a5.76,5.76,0,0,1,2.86-5L30.17.73a6,6,0,0,1,5.74,0L63.2,16.51a5.77,5.77,0,0,1,2.87,5V53a5.77,5.77,0,0,1-2.87,5L35.9,73.74A5.76,5.76,0,0,1,33,74.5Zm8.43-21.7C29.52,52.8,27,47.33,27,42.71a.79.79,0,0,1,.78-.79h3.53a.81.81,0,0,1,.79.69c.53,3.59,2.11,5.4,9.34,5.4,5.76,0,8.2-1.3,8.2-4.35,0-1.76-.68-3.06-9.63-3.94-7.47-.76-12.09-2.4-12.09-8.38,0-5.5,4.65-8.78,12.43-8.78,8.75,0,13.07,3,13.62,9.56a.79.79,0,0,1-.72.86H49.66a.78.78,0,0,1-.77-.61c-.84-3.81-2.91-5-8.52-5-6.28,0-7,2.19-7,3.83,0,2,.86,2.56,9.34,3.68s12.38,2.68,12.38,8.58S50.12,52.8,41.46,52.8Z" style="fill:#fff"/></g></g></svg>