<svg xmlns="http://www.w3.org/2000/svg" viewBox="0 0 74.1 74.87"><g id="Capa_2" data-name="Capa 2"><g id="Capa_1-2" data-name="Capa 1"><g id="php"><path id="Sustracción_3" data-name="Sustracción 3" d="M37.39,74.87A37.28,37.28,0,0,1,5.06,56.19H6.33L7.85,48H15.4a10.9,10.9,0,0,0,9.35-4.63,18.16,18.16,0,0,0,2.9-7.67,8.53,8.53,0,0,0-2-6.57,8.38,8.38,0,0,0-6.59-2.87H5.32L1.4,47.42A37.3,37.3,0,1,1,73.22,27.21a9,9,0,0,0-4.16-1H55.32L49.79,56.19h6.55L57.85,48H65.4a10.9,10.9,0,0,0,8.7-3.8A37.28,37.28,0,0,1,37.39,74.87Zm-5.23-56.6L26.62,48.21h6.53L36.33,31H40.5c2,0,3.2.32,3.81,1a2.52,2.52,0,0,1,.44,2.12C44.36,36.68,42.1,48,42.08,48.09H48.7c0-.12,2.57-12.71,3-16.21a4.31,4.31,0,0,0-1.06-3.47,7.34,7.34,0,0,0-5.46-2.06h-8l1.49-8.08ZM63.8,43.34H58.71L61,31h5.19c1.95,0,3.35.46,4.15,1.38a4.94,4.94,0,0,1,.72,4,9.76,9.76,0,0,1-1.79,4.35A6.55,6.55,0,0,1,63.8,43.34Zm-50,0H8.71L11,31h5.19c1.95,0,3.35.46,4.15,1.38a5,5,0,0,1,.72,4,9.81,9.81,0,0,1-1.79,4.35,6.55,6.55,0,0,1-5.46,2.62Z" style="fill:#fff"/></g></g></g></svg>