<svg xmlns="http://www.w3.org/2000/svg" viewBox="0 0 26.86 34.99">
    <title>pinterest</title>
    <g id="Capa_2" data-name="Capa 2">
        <g id="Capa_1-2" data-name="Capa 1">
            <path d="M5.65,34.15l-.12-.81C4.81,28.21,5.94,24.05,7,20c.38-1.39.74-2.7,1-4.05a7.15,7.15,0,0,1,.82-7.41A3.46,3.46,0,0,1,13,7.47c2.81,1.09,1.79,4.24.9,7-.62,1.94-1.27,3.94-.63,5a2.17,2.17,0,0,0,1.56.92c2.69.54,4.3-1.64,5-3,1.79-3.35,2-8.87-.37-11.25s-6.32-2.92-9.8-1.14a8.47,8.47,0,0,0-4.86,8.87,4.23,4.23,0,0,0,.69,1.56,3.48,3.48,0,0,1,.1,4.22L5.43,20l-.36-.08C1.5,19.16-.16,16.53,0,11.9.26,5.06,6.23.72,11.71.12c7.8-.86,14.11,3.1,15,9.43a15.09,15.09,0,0,1-3.45,12.21,9.27,9.27,0,0,1-7.7,3,6.78,6.78,0,0,1-3.62-1.48l-.45-.3c-.88,4.39-2,8.44-5.16,10.69Zm6-26a2.58,2.58,0,0,0-2,1A6.2,6.2,0,0,0,9,15.63l.1.17,0,.19c-.3,1.45-.69,2.9-1.07,4.3-1,3.69-2,7.49-1.58,12C8.91,30,9.84,26.18,10.64,22.08l.14-.7.61.37c.41.24.76.49,1.1.72a5.81,5.81,0,0,0,3.14,1.3,8.34,8.34,0,0,0,6.9-2.69A14.08,14.08,0,0,0,25.71,9.68C24.8,3.15,18,.42,11.82,1.11,6.75,1.67,1.24,5.65,1,11.93c-.15,4,1.1,6.17,3.91,6.94A2.44,2.44,0,0,0,4.66,16a5.15,5.15,0,0,1-.82-1.92A9.45,9.45,0,0,1,9.23,4.17c3.87-2,8.17-1.47,11,1.32s2.5,8.77.55,12.43c-1.44,2.7-3.67,4-6.09,3.49A3.13,3.13,0,0,1,12.42,20c-.87-1.48-.15-3.69.54-5.84,1-3.12,1.49-5.07-.31-5.77A2.84,2.84,0,0,0,11.61,8.2Zm-.82,21.12a10,10,0,0,1-3.7,5c-.41.26,0,.91.38.65a10.9,10.9,0,0,0,4-5.41c.18-.45-.54-.64-.72-.2ZM3.1,15.93a10.27,10.27,0,0,1,.44-8.09c.21-.43-.44-.81-.65-.38a11.07,11.07,0,0,0-.44,8.84c.19.44.83.06.65-.38ZM4.43,5.38a.5.5,0,1,0,.51.5A.5.5,0,0,0,4.43,5.38Zm7.45,21.72a.5.5,0,1,0,.51.5A.5.5,0,0,0,11.88,27.09Z"/>
        </g>
    </g>
</svg>