<svg xmlns="http://www.w3.org/2000/svg" viewBox="0 0 35.23 35.12"><g id="Capa_2" data-name="Capa 2"><g id="Capa_1-2" data-name="Capa 1"><path d="M2.63,20.94h0a.5.5,0,0,1-.5-.5V12.29a.51.51,0,0,1,.5-.5h0a.5.5,0,0,1,.5.5v8.15A.5.5,0,0,1,2.63,20.94Zm.53,1.83h0a.53.53,0,0,0-.53-.53h0a.53.53,0,0,0-.53.53h0a.53.53,0,0,0,.53.53h0A.53.53,0,0,0,3.16,22.77ZM2.66,7.55a.53.53,0,0,0-.53.53.53.53,0,0,0,.53.53.53.53,0,0,0,.53-.53A.52.52,0,0,0,2.66,7.55Zm2.13,0a.53.53,0,0,0-.53.53.53.53,0,0,0,1.06,0A.53.53,0,0,0,4.79,7.55Zm2.13,0a.53.53,0,0,0-.53.53.53.53,0,0,0,1.06,0A.53.53,0,0,0,6.92,7.55Zm28.31,2V26.88h0a.41.41,0,0,1,0,.16v0l0,.07,0,0,0,0a.57.57,0,0,1-.13.08h0a.41.41,0,0,1-.16,0H12.93a.92.92,0,0,1-.86-.6L7.82,14.88a.91.91,0,0,1,.11-.83.94.94,0,0,1,.75-.38h2.75V10a.91.91,0,0,1,.91-.91h.92V5.47a.91.91,0,0,1,.92-.91h1.37V3.19a.91.91,0,0,1,.91-.91h1.38V.91A.91.91,0,0,1,18.75,0h11a.91.91,0,0,1,.91.91v8.2h4.12l.09,0h.08L35,9.2l.06,0,0,.07,0,.07a.25.25,0,0,1,0,.07.44.44,0,0,1,0,.1Zm-4.58,4.17,2,.33L34.12,10H30.65ZM18.75,2.28h8.7a.92.92,0,0,1,.92.91V13.67h1.37V.91h-11ZM16.46,4.56h8.7a.91.91,0,0,1,.92.91v8.2h1.37V3.19h-11Zm-2.28,9.11h11V5.47h-11Zm-1.84,0h.92V10h-.92ZM34.12,26.42,29.87,14.58H8.68l4.25,11.84Zm.2-14.27-.82,2.23a.9.9,0,0,1-1,.58l-1.6-.26,3.43,9.55Zm-4.84,8.18-3.4,1.94h-11a2.18,2.18,0,0,1-2.17-2.18A2.05,2.05,0,0,1,15,18H26.08ZM15.54,18.79H15a1.3,1.3,0,0,0-1.3,1.3,1.42,1.42,0,0,0,1.42,1.43h.46ZM26,20.54H16.29v1H26Zm0-1.75H16.29v1H26Zm.8,2.28,1.37-.78-1.37-.93Zm1.91,7.17v4.13a1.69,1.69,0,0,1-1.69,1.69H2.76a1.7,1.7,0,0,1-1.7-1.69V10.7h9.46v-1H1.06V8.17a1.7,1.7,0,0,1,1.7-1.69h9.58V5.42H2.76A2.76,2.76,0,0,0,0,8.17v24.2a2.76,2.76,0,0,0,2.76,2.75H27.05a2.76,2.76,0,0,0,2.76-2.75V28.24ZM23.55,7.9h0a.44.44,0,0,0-.44.43v1.86a.44.44,0,0,0,.44.43h0a.43.43,0,0,0,.43-.43V8.33A.43.43,0,0,0,23.55,7.9Zm0,3.43h0a.44.44,0,0,0-.44.44v.62a.44.44,0,0,0,.44.43h0a.43.43,0,0,0,.43-.43v-.62A.44.44,0,0,0,23.55,11.33Zm0-5h0a.43.43,0,0,0-.43.43h0a.43.43,0,0,0,.43.43h0A.43.43,0,0,0,24,6.75h0A.43.43,0,0,0,23.54,6.31Z"/></g></g></svg>