<svg xmlns="http://www.w3.org/2000/svg" viewBox="0 0 35.2 35.05"><title>responsivo</title><g id="Capa_2" data-name="Capa 2"><g id="Capa_1-2" data-name="Capa 1"><path d="M33.28,17.17V20a.43.43,0,0,1-.43.43h0a.43.43,0,0,1-.43-.43V17.17a.43.43,0,0,1,.43-.43h0A.43.43,0,0,1,33.28,17.17Zm-.43,4h0a.43.43,0,0,0-.43.43v.62a.43.43,0,0,0,.43.43h0a.43.43,0,0,0,.43-.43v-.62A.43.43,0,0,0,32.85,21.21Zm0-6.06h0a.43.43,0,0,0-.43.43h0a.43.43,0,0,0,.43.43h0a.43.43,0,0,0,.43-.43h0A.43.43,0,0,0,32.85,15.16ZM2.16,8h0a.37.37,0,0,0,.37-.37v0a.37.37,0,0,0-.37-.37h0a.37.37,0,0,0-.37.37v0A.37.37,0,0,0,2.16,8Zm.45-2.07a3.87,3.87,0,0,1,.35-2A2.85,2.85,0,0,1,5.4,2.49c.48,0,.48-.77,0-.75A3.62,3.62,0,0,0,2.53,3.23a4.34,4.34,0,0,0-.66,2.7.38.38,0,0,0,.75,0Zm8.67,19.3a.27.27,0,0,0-.27.27v1.81a.27.27,0,1,0,.55,0V25.51A.27.27,0,0,0,11.28,25.23Zm0,2.83a.28.28,0,0,0-.27.27v.39a.27.27,0,0,0,.55,0v-.39A.28.28,0,0,0,11.28,28.07Zm0-3.29h0a.27.27,0,0,0,.27-.27h0a.27.27,0,0,0-.27-.27h0a.27.27,0,0,0-.27.27h0A.27.27,0,0,0,11.28,24.78ZM1.78,18a.23.23,0,0,0-.23.23h0a.23.23,0,1,0,.47,0H2A.23.23,0,0,0,1.78,18Zm11.38-2.63V32.14A2.82,2.82,0,0,1,10.34,35H2.9A2.82,2.82,0,0,1,.09,32.14V15.41A2.82,2.82,0,0,1,2.9,12.6h7.44A2.82,2.82,0,0,1,13.16,15.41Zm-12.33,0V30.18H12.41V15.41a2.07,2.07,0,0,0-2.07-2.07H2.9A2.07,2.07,0,0,0,.84,15.41ZM12.41,32.14V30.68H.84v1.46A2.07,2.07,0,0,0,2.9,34.21h7.44A2.07,2.07,0,0,0,12.41,32.14ZM2,17.2c0-.35,0-.71,0-1.07a1.82,1.82,0,0,1,1.77-1.71c.3,0,.31-.49,0-.48a2.3,2.3,0,0,0-2.07,1.39,4.74,4.74,0,0,0-.18,1.87A.24.24,0,0,0,2,17.2ZM7.8,32.55a1.17,1.17,0,1,1-1.17-1.18A1.18,1.18,0,0,1,7.8,32.55Zm-.47,0a.7.7,0,1,0-.7.71A.7.7,0,0,0,7.32,32.55Zm1-18.7H4.91v.68H8.3ZM30.61,0h-26A4.59,4.59,0,0,0,0,4.59v7.13a3,3,0,0,1,1-.47V4.59A3.59,3.59,0,0,1,4.59,1h26A3.59,3.59,0,0,1,34.2,4.59V23.38H14.42v1H34.2v1.41a3.59,3.59,0,0,1-3.59,3.59H14.42v1h5.91a5.68,5.68,0,0,0,1.3,3.14H14.41a3,3,0,0,1-.49,1.54H24.67a.75.75,0,0,0,.75-.75v0a.75.75,0,0,0-.75-.75H23.42a2.2,2.2,0,0,1-.76-.37,4.15,4.15,0,0,1-1.32-2.76h9.27a4.59,4.59,0,0,0,4.59-4.59V4.59A4.59,4.59,0,0,0,30.61,0Z"/></g></g></svg>