<svg xmlns="http://www.w3.org/2000/svg" viewBox="0 0 30.62 35.1"><title>tik-tok</title><g id="Capa_2" data-name="Capa 2"><g id="Capa_1-2" data-name="Capa 1"><path d="M11,35.1a11,11,0,0,1-5.51-1.54A11.2,11.2,0,0,1,0,25.05c0-.82,0-1.53,0-2.18a11.13,11.13,0,0,1,3.84-7.41A11,11,0,0,1,13,12.91l.4.08v.41c0,1.21,0,2.42,0,3.63,0,.89,0,1.79,0,2.68v.69l-.65-.21a4.39,4.39,0,0,0-5.6,2.7,4.21,4.21,0,0,0-.17,1.75V25a4.35,4.35,0,0,0,8,1.54l0-.09a2.69,2.69,0,0,0,.46-1.17c.1-1.85.1-3.73.1-5.54,0-.69,0-1.37,0-2.06q0-3.06,0-6.12c0-3.68,0-7.36,0-11V0h.49c1.07,0,2.13,0,3.19,0h2.84l0,.48a8.28,8.28,0,0,0,2.33,5.59,9.69,9.69,0,0,0,5.73,2.4l.44,0v6.68l-.52,0a15.47,15.47,0,0,1-6.16-1.42,14.4,14.4,0,0,1-1.59-.86q0,1.66,0,3.31c0,2.74,0,5.48,0,8.21a11.39,11.39,0,0,1-2,5.88,11,11,0,0,1-8.79,4.77Zm.18-21.36a10.26,10.26,0,0,0-6.64,2.49A10.12,10.12,0,0,0,1,22.94c0,.59,0,1.27,0,2A10.18,10.18,0,0,0,6,32.69a9.9,9.9,0,0,0,5.51,1.39,10,10,0,0,0,8-4.34,10.37,10.37,0,0,0,1.83-5.35c0-2.71,0-5.44,0-8.18q0-2.11,0-4.23v-.92l.77.5a17,17,0,0,0,2.23,1.28,14.29,14.29,0,0,0,5.26,1.31V9.41a10.23,10.23,0,0,1-5.87-2.63A9.13,9.13,0,0,1,21.15,1H16.56c0,3.49,0,7,0,10.48q0,3.08,0,6.18c0,.69,0,1.37,0,2.06,0,1.83,0,3.71-.1,5.58a3.52,3.52,0,0,1-.59,1.63l-.06.1a5.35,5.35,0,0,1-9.84-2l0-.4a5,5,0,0,1,.24-2.14A5.39,5.39,0,0,1,8.3,19.82a5.29,5.29,0,0,1,4.06-.75c0-.68,0-1.37,0-2.05,0-1.06,0-2.12,0-3.18A9.18,9.18,0,0,0,11.15,13.74ZM3.27,20.11A.5.5,0,1,0,3,19.47.5.5,0,0,0,3.27,20.11Zm1.56-1.48a7.44,7.44,0,0,1,6.35-3.44.38.38,0,0,0,0-.75,8.21,8.21,0,0,0-7,3.81c-.26.41.39.78.65.38ZM17.49,1.8V8.85a.38.38,0,0,0,.75,0V1.8a.38.38,0,0,0-.75,0Zm.38,10.42a.5.5,0,1,0-.5-.5A.5.5,0,0,0,17.87,12.23Z"/></g></g></svg>