<svg xmlns="http://www.w3.org/2000/svg" viewBox="0 0 35.28 26.87"><defs><style>.cls-1{fill-rule:evenodd;}</style></defs><title>twitter</title><g id="Capa_2" data-name="Capa 2"><g id="Capa_1-2" data-name="Capa 1"><path class="cls-1" d="M7.39,7.4A.5.5,0,1,1,7.67,8,.5.5,0,0,1,7.39,7.4ZM27.67,14a.5.5,0,1,0-.28-.65A.5.5,0,0,0,27.67,14Zm3.49-6.17q0-.3,0-.59A13.67,13.67,0,0,0,34.32,4l1-1.43-1.58.7A12.44,12.44,0,0,1,32,3.82,7,7,0,0,0,33.5,1.25L33.9,0,32.77.67A12.57,12.57,0,0,1,29,2.13a7,7,0,0,0-12,5,7,7,0,0,0,.06.94A18.11,18.11,0,0,1,4.71,1.5L4.25.94l-.36.62A7,7,0,0,0,4.67,9.7a6,6,0,0,1-1-.46l-.74-.33v.85a7,7,0,0,0,3.55,6.08,6,6,0,0,1-.67-.09l-.83-.16.26.8a7,7,0,0,0,5.21,4.71A12.55,12.55,0,0,1,3.66,23,12.85,12.85,0,0,1,2.16,23L0,22.7l1.83,1.17a19.05,19.05,0,0,0,10.27,3A18.84,18.84,0,0,0,31.17,7.88ZM12.07,21.15l1.11-.87-1.41,0a6,6,0,0,1-5.33-3.41,7.11,7.11,0,0,0,2.3-.23l2-.56-2.08-.42a6,6,0,0,1-4.78-5.15,7,7,0,0,0,2.39.5L8.07,11l-1.46-1A6,6,0,0,1,4.42,2.71a19.11,19.11,0,0,0,13.32,6.4l.66,0-.15-.65A6,6,0,0,1,28.52,3l.19.2L29,3.17a13.59,13.59,0,0,0,3-1A6,6,0,0,1,29.9,4.27l-2,1.2,2.33-.28a13.72,13.72,0,0,0,2.24-.46,12.67,12.67,0,0,1-2.1,1.9l-.22.16v.27q0,.41,0,.82c0,7.47-5.6,18-18.06,18A18,18,0,0,1,4.16,24,13.52,13.52,0,0,0,12.07,21.15Zm9.45,1a19.71,19.71,0,0,0,5.59-6.76c.22-.43-.43-.81-.65-.38a18.92,18.92,0,0,1-5.32,6.49c-.38.29,0,.94.38.65ZM2.38,8.68m15.38,1.55a19.11,19.11,0,0,1-7.63-2.11c-.43-.22-.81.43-.38.65a20.11,20.11,0,0,0,8,2.21c.48,0,.48-.72,0-.75Z"/></g></g></svg>