<svg xmlns="http://www.w3.org/2000/svg" viewBox="0 0 347.07 253.09"><defs><style>.cls-1{fill:#1e1e1e;}.cls-2{fill:#d8d8d8;}.cls-3{fill:#fff;}.cls-4{fill:#b2b2b2;}.cls-5{fill:#ececec;}.cls-6{fill:#606060;}.cls-7{fill:#a9adb4;}.cls-8{fill:#f68461;}.cls-9{fill:#9e9e9e;}.cls-10{fill:#fec96f;}.cls-11{fill:#f57c00;}.cls-12{fill:#fff9c4;}.cls-13{fill:#bf360c;}.cls-14{fill:#942a09;}</style></defs><title>ui-desktop</title><g id="Capa_2" data-name="Capa 2"><g id="svg8"><rect id="rect4485" class="cls-1" width="347.07" height="190.26" rx="8.62" ry="8.62"/><path id="rect4487" class="cls-2" d="M150.88,190.18l-9.81,58.6H206l-9.81-58.6H150.88Z"/><rect id="rect4507" class="cls-3" x="11.64" y="8.93" width="323.79" height="149.37" rx="2.23" ry="2.23"/><path id="path4542" class="cls-4" d="M103.83,248.32c-.64,0-.75.4-1.16.7l-4.51,3.36c-.41.3.52.7,1.16.7H247.75c.64,0,1.56-.4,1.16-.7L244.4,249c-.4-.3-.52-.7-1.16-.7H103.83Z"/><path id="rect4663" class="cls-5" d="M0,163.39v18.24a8.6,8.6,0,0,0,8.62,8.62H338.45a8.6,8.6,0,0,0,8.62-8.62V163.39Z"/><circle id="path4801" class="cls-4" cx="173.54" cy="176.83" r="7.23"/><rect id="rect4852" class="cls-6" x="224.18" y="111.65" width="80.92" height="12.41"/><rect id="rect4852-2" data-name="rect4852" class="cls-6" x="41.98" y="111.65" width="80.92" height="12.41"/><rect id="rect4852-3" data-name="rect4852" class="cls-7" x="50.16" y="99.69" width="24.63" height="3.36"/><rect id="rect4852-4" data-name="rect4852" class="cls-8" x="42.24" y="69.11" width="40.47" height="27.06" rx="0.73" ry="0.73"/><rect id="rect4852-5" data-name="rect4852" class="cls-7" x="123.83" y="99.69" width="24.63" height="3.36"/><rect id="rect4852-6" data-name="rect4852" class="cls-8" x="115.91" y="69.11" width="40.47" height="27.06" rx="0.73" ry="0.73"/><rect id="rect4852-7" data-name="rect4852" class="cls-7" x="197.49" y="99.69" width="24.63" height="3.36"/><rect id="rect4852-8" data-name="rect4852" class="cls-8" x="189.58" y="69.11" width="40.47" height="27.06" rx="0.73" ry="0.73"/><rect id="rect4852-9" data-name="rect4852" class="cls-7" x="271.16" y="99.69" width="24.63" height="3.36"/><rect id="rect4852-10" data-name="rect4852" class="cls-8" x="263.25" y="69.11" width="40.47" height="27.06" rx="0.73" ry="0.73"/><rect id="rect4854" class="cls-9" x="224.18" y="128.86" width="80.92" height="5.39"/><rect id="rect4856" class="cls-9" x="224.18" y="138.74" width="80.92" height="5.39"/><rect id="rect4858" class="cls-9" x="224.18" y="148.61" width="53.54" height="5.39"/><rect id="rect4854-2" data-name="rect4854" class="cls-9" x="41.92" y="128.86" width="80.92" height="5.39"/><rect id="rect4856-2" data-name="rect4856" class="cls-9" x="41.92" y="138.74" width="80.92" height="5.39"/><rect id="rect4858-2" data-name="rect4858" class="cls-9" x="41.92" y="148.61" width="53.54" height="5.39"/><rect id="rect4735" class="cls-10" x="31.19" y="9" width="284.7" height="53.18" rx="1.31" ry="1.31"/><polygon class="cls-4" points="197.27 196.64 196.19 190.18 173.53 190.18 150.88 190.18 149.8 196.64 197.27 196.64"/><rect id="rect4734" class="cls-3" x="296.18" y="13.61" width="8.7" height="2.05" rx="0.8" ry="0.8"/><rect id="rect4736" class="cls-3" x="253.27" y="13.61" width="18.15" height="2.05" rx="0.8" ry="0.8"/><rect id="rect4736-2" data-name="rect4736" class="cls-3" x="231.84" y="13.61" width="18.15" height="2.05" rx="0.8" ry="0.8"/><rect id="rect4738" class="cls-3" x="274.94" y="13.61" width="18.15" height="2.05" rx="0.8" ry="0.8"/><rect id="rect4852-11" data-name="rect4852" class="cls-3" x="133.87" y="30.36" width="85.22" height="6.41" rx="1.18" ry="1.18"/><rect id="rect4852-12" data-name="rect4852" class="cls-3" x="37.09" y="11.07" width="7.37" height="7.37" rx="0.25" ry="0.25"/><rect id="rect4852-13" data-name="rect4852" class="cls-3" x="157.24" y="39.61" width="38.49" height="2.83" rx="0.98" ry="0.98"/><path class="cls-11" d="M213.92,158.21V115.08a3.48,3.48,0,0,0-3.47-3.47H136.34a3.48,3.48,0,0,0-3.47,3.47v43.13Z"/><circle class="cls-12" cx="193.66" cy="129.62" r="6.75"/><polygon class="cls-13" points="198.52 158.21 189.16 146.5 179.79 158.21 198.52 158.21"/><polygon class="cls-14" points="181.1 158.21 164.39 133.9 147.69 158.21 181.1 158.21"/></g></g></svg>