<svg xmlns="http://www.w3.org/2000/svg" viewBox="0 0 74.08 148.95"><defs><style>.cls-1{fill:#fff;}.cls-2{fill:#383838;}.cls-3{fill:#fec96f;}.cls-4{fill:#a9adb4;}.cls-5{fill:#f68461;}.cls-6{fill:#606060;}.cls-7{fill:#9e9e9e;}.cls-8{fill:#f57c00;}.cls-9{fill:#fff9c4;}.cls-10{fill:#942a09;}.cls-11{fill:#bf360c;}.cls-12{fill:#1e1e1e;}</style></defs><title>ui-movil</title><g id="Capa_2" data-name="Capa 2"><g id="svg8"><rect class="cls-1" x="1.92" y="1.24" width="70.49" height="145.73" rx="10.71" ry="10.71"/><rect class="cls-2" x="23.75" y="4.41" width="28.75" height="1.9" rx="0.95" ry="0.95"/><path class="cls-3" d="M10.82,1.66H63.6a6.28,6.28,0,0,1,6.28,6.28V26.63a.91.91,0,0,1-.91.91H5.12a.91.91,0,0,1-.91-.91V8.27A6.61,6.61,0,0,1,10.82,1.66Z"/><rect id="rect4852" class="cls-1" x="7.64" y="14.57" width="7.37" height="7.37" rx="0.25" ry="0.25"/><rect class="cls-1" x="61.55" y="16.62" width="5.63" height="0.77" rx="0.38" ry="0.38"/><rect class="cls-1" x="61.55" y="17.87" width="5.63" height="0.77" rx="0.38" ry="0.38"/><rect class="cls-1" x="61.55" y="19.12" width="5.63" height="0.77" rx="0.38" ry="0.38"/><rect id="rect4852-2" data-name="rect4852" class="cls-4" x="8.94" y="45.6" width="21.77" height="2.31"/><path id="rect4852-3" data-name="rect4852" class="cls-5" d="M4.93,32.1H34.72c.31,0,.56.14.56.31v11c0,.17-.25.31-.56.31H4.93c-.31,0-.56-.14-.56-.31v-11C4.37,32.24,4.62,32.1,4.93,32.1Z"/><rect id="rect4852-4" data-name="rect4852" class="cls-4" x="43.39" y="45.6" width="21.77" height="2.31"/><path id="rect4852-5" data-name="rect4852" class="cls-5" d="M39.38,32.1H69.17c.31,0,.56.14.56.31v11c0,.17-.25.31-.56.31H39.38c-.31,0-.56-.14-.56-.31v-11C38.82,32.24,39.07,32.1,39.38,32.1Z"/><rect id="rect4852-6" data-name="rect4852" class="cls-6" x="4.54" y="53.31" width="65.17" height="6.99"/><path id="rect4852-7" data-name="rect4852" class="cls-5" d="M6.08,83.07h62a1.6,1.6,0,0,1,1.6,1.6v60a1.6,1.6,0,0,1-1.6,1.6h-62a1.6,1.6,0,0,1-1.6-1.6v-60A1.6,1.6,0,0,1,6.08,83.07Z"/><rect id="rect4854" class="cls-7" x="4.49" y="64.56" width="31.07" height="3.68"/><rect id="rect4854-2" data-name="rect4854" class="cls-7" x="38.13" y="64.56" width="31.32" height="3.68"/><rect id="rect4854-3" data-name="rect4854" class="cls-7" x="4.49" y="69.88" width="31.07" height="3.68"/><rect id="rect4854-4" data-name="rect4854" class="cls-7" x="38.13" y="69.88" width="31.32" height="3.68"/><rect id="rect4854-5" data-name="rect4854" class="cls-7" x="4.49" y="74.96" width="31.07" height="3.68"/><rect id="rect4854-6" data-name="rect4854" class="cls-1" x="11.02" y="122.36" width="52.09" height="2.57"/><rect id="rect4854-7" data-name="rect4854" class="cls-1" x="11.02" y="126.63" width="52.09" height="2.57"/><rect id="rect4854-8" data-name="rect4854" class="cls-1" x="11.02" y="130.99" width="52.09" height="2.57"/><rect id="rect4854-9" data-name="rect4854" class="cls-1" x="11.02" y="135.26" width="30.76" height="2.57"/><rect id="rect4854-10" data-name="rect4854" class="cls-7" x="38.13" y="74.96" width="22.81" height="3.68"/><path class="cls-8" d="M56.24,118.89H18.15a1,1,0,0,1-1-1V88.7a1,1,0,0,1,1-1H56.24a1,1,0,0,1,1,1v29.17A1,1,0,0,1,56.24,118.89Z"/><circle class="cls-9" cx="47.23" cy="96.59" r="3.35"/><polygon class="cls-10" points="32.73 98.71 22.7 113.32 42.77 113.32 32.73 98.71"/><polygon class="cls-11" points="45 104.95 38.31 113.32 51.69 113.32 45 104.95"/><path class="cls-12" d="M62.52,0h-51A11.55,11.55,0,0,0,0,11.55V137.4A11.55,11.55,0,0,0,11.55,149h51A11.55,11.55,0,0,0,74.08,137.4V11.55A11.55,11.55,0,0,0,62.52,0Zm8.61,135.75A10.26,10.26,0,0,1,60.87,146H13.38A10.26,10.26,0,0,1,3.12,135.75v-123A10.26,10.26,0,0,1,13.38,2.49h4.68V6.92A3.12,3.12,0,0,0,21.18,10H54.9A3.12,3.12,0,0,0,58,6.92V2.49h2.85A10.26,10.26,0,0,1,71.13,12.75Z"/></g></g></svg>