<svg xmlns="http://www.w3.org/2000/svg" viewBox="0 0 35.31 24.37">
    <title>velocidad</title>
    <g id="Capa_2" data-name="Capa 2">
        <g id="Capa_1-2" data-name="Capa 1">
            <path d="M13.33,21.79a.38.38,0,0,1,0,.75H6.27a.38.38,0,0,1,0-.75Zm-9.42.38a.5.5,0,1,0,.5-.5A.5.5,0,0,0,3.9,22.16Zm14.67-4.24,3.26-2.49c.38-.29,0-.94-.38-.65L18.2,17.27c-.38.29,0,.94.38.65Zm4.8-4.13a.5.5,0,1,0-.1.7A.5.5,0,0,0,23.37,13.8ZM32.3,6.52a.5.5,0,1,0-.1.7A.5.5,0,0,0,32.3,6.52ZM21.34.87A15.92,15.92,0,0,1,30,5.39c.41.4,1-.23.63-.63a16.74,16.74,0,0,0-9-4.76c-.56-.09-.8.77-.24.86Zm-.47,19.31.08-.1,6.49-8.92a1.07,1.07,0,0,0-1.5-1.5L17,16.15l-.1.08a3.3,3.3,0,1,0,3.95,3.95Zm5.51-9.91a.32.32,0,0,1,.42,0,.32.32,0,0,1,0,.42l-6.54,9-.1.09,0,.13a2.55,2.55,0,1,1-3-3l.19-.08,9-6.59Zm8.93,9.16A17.84,17.84,0,0,1,34.7,24l-.1.37H.71L.61,24a17.68,17.68,0,0,1,17-22.29A17.71,17.71,0,0,1,35.31,19.43Zm-1.48,3.94a16.87,16.87,0,0,0,.47-3.44H32.43v-1h1.85a16.66,16.66,0,0,0-1.05-5.35l-1.78.73-.38-.93,1.79-.73A16.77,16.77,0,0,0,29.8,8L28.39,9.38l-.7-.72L29.1,7.3a16.69,16.69,0,0,0-4.55-3.09l-.83,1.9-.92-.4.82-1.89a16.47,16.47,0,0,0-5.43-1.1v2h-1v-2a16.47,16.47,0,0,0-5.51,1.11l.82,1.89-.92.4-.83-1.9A16.69,16.69,0,0,0,6.21,7.3l1.4,1.36-.7.72L5.51,8a16.77,16.77,0,0,0-3.06,4.62l1.79.73-.38.93-1.78-.73a16.67,16.67,0,0,0-1,5.35H2.88v1H1a16.87,16.87,0,0,0,.47,3.44Z"/>
        </g>
    </g>
</svg>