<svg xmlns="http://www.w3.org/2000/svg" viewBox="0 0 35.16 35.02"><title>whatsapp</title><g id="Capa_2" data-name="Capa 2"><g id="Capa_1-2" data-name="Capa 1"><path d="M26.08,20.12h0a1.51,1.51,0,0,0-.71-.52l-.2-.1S23,18.44,22.59,18.3a1.07,1.07,0,0,0-1.41.37C21,19,20.27,19.8,20,20.09a.51.51,0,0,1-.18-.07l-.27-.12A9,9,0,0,1,17,18.29a11.91,11.91,0,0,1-2-2.41.92.92,0,0,1,.12-.13c.12-.12.26-.28.39-.45l.19-.22a2.57,2.57,0,0,0,.39-.61l0-.1a1.15,1.15,0,0,0,0-1.09c-.06-.12-.4-.94-.71-1.68l-.42-1c-.36-.86-.85-.94-1.29-.92h-.3l-.41,0a1.94,1.94,0,0,0-1.42.69,4.52,4.52,0,0,0-1.36,3.31,7.36,7.36,0,0,0,1.61,4.08l.06.09a14.75,14.75,0,0,0,6.46,5.58,11.77,11.77,0,0,0,3.78,1.07,2.6,2.6,0,0,0,.64-.08l.24,0a4.19,4.19,0,0,0,2.92-2.06A3.26,3.26,0,0,0,26.08,20.12ZM25,21.94a3.28,3.28,0,0,1-2.07,1.41,2.63,2.63,0,0,0-.38.07c-.38.09-.86.21-3.82-.95a13.77,13.77,0,0,1-6-5.21l-.09-.13a6.51,6.51,0,0,1-1.4-3.47A3.55,3.55,0,0,1,12.29,11l.08-.08a.86.86,0,0,1,.62-.3h.35l.36,0h.18s.08.05.19.31l.42,1c.42,1,.67,1.62.74,1.75s0,.15,0,.19l-.05.11a1.59,1.59,0,0,1-.25.4l-.2.24c-.12.14-.23.28-.33.38a1,1,0,0,0-.24,1.35A11.66,11.66,0,0,0,16.33,19a10.1,10.1,0,0,0,2.86,1.79l.22.1a1.07,1.07,0,0,0,1.4-.21A17.36,17.36,0,0,0,22,19.17h0l.23.06c.28.1,1.9.88,2.47,1.16l.21.1.27.14A3.53,3.53,0,0,1,25,21.94Z"/><path d="M0,35l3.24-9.54A16.77,16.77,0,0,1,.91,16.94a17.13,17.13,0,0,1,34.25,0A17.05,17.05,0,0,1,18,33.87a17.3,17.3,0,0,1-8.09-2ZM18,1A16.05,16.05,0,0,0,1.91,16.94a15.77,15.77,0,0,0,2.31,8.23l.12.2-2.76,8.1L10,30.79l.19.1a16.29,16.29,0,0,0,7.8,2A16,16,0,0,0,34.16,16.94,16,16,0,0,0,18,1ZM7,24.37A13.13,13.13,0,0,1,6.66,10.9c.23-.42-.42-.8-.65-.38a13.9,13.9,0,0,0,.33,14.22A.38.38,0,0,0,7,24.37Zm19.44-3.64M7.28,8.39A.65.65,0,1,0,7.93,9,.65.65,0,0,0,7.28,8.39Zm22.3,14.32a13.45,13.45,0,0,1-3.69,4.59c-.38.3.16.83.53.53a13.94,13.94,0,0,0,3.81-4.74c.21-.43-.43-.81-.65-.38Zm1-8a13.4,13.4,0,0,1-.2,6,.38.38,0,0,0,.72.2,14.32,14.32,0,0,0,.2-6.36c-.09-.47-.81-.27-.72.2ZM24.43,29.39a.65.65,0,1,0-.37-.84A.65.65,0,0,0,24.43,29.39Z"/></g></g></svg>