<svg xmlns="http://www.w3.org/2000/svg" viewBox="0 0 63.54 63.54"><g id="Capa_2" data-name="Capa 2"><g id="wordpress"><path id="Trazado_323" data-name="Trazado 323" d="M4.51,31.77A27.28,27.28,0,0,0,19.87,56.3l-13-35.62A27.34,27.34,0,0,0,4.51,31.77Zm45.66-1.38a14.38,14.38,0,0,0-2.25-7.51c-1.38-2.25-2.68-4.15-2.68-6.39a4.73,4.73,0,0,1,4.58-4.84l.35,0a27.25,27.25,0,0,0-38.5,1.69A27.76,27.76,0,0,0,9,16.8l1.75,0c2.85,0,7.26-.34,7.26-.34a1.12,1.12,0,0,1,.18,2.24s-1.48.18-3.12.26L25,48.51l6-17.89L26.71,19c-1.47-.09-2.86-.26-2.86-.26A1.12,1.12,0,0,1,24,16.49s4.5.34,7.17.34c2.85,0,7.27-.34,7.27-.34a1.11,1.11,0,0,1,1.19,1.05,1.13,1.13,0,0,1-1,1.19s-1.48.17-3.12.26l9.85,29.3,2.72-9.09c1.18-3.77,2.08-6.48,2.08-8.81ZM32.25,34.15,24.07,57.91a27.24,27.24,0,0,0,16.75-.43,2.75,2.75,0,0,1-.2-.38l-8.38-23ZM55.68,18.69a20.25,20.25,0,0,1,.18,2.8,25.66,25.66,0,0,1-2.07,9.77L45.47,55.33A27.27,27.27,0,0,0,55.68,18.69ZM31.77,0A31.77,31.77,0,1,0,63.54,31.77,31.77,31.77,0,0,0,31.77,0Zm0,62.08A30.31,30.31,0,1,1,62.08,31.77h0A30.35,30.35,0,0,1,31.77,62.08Z" style="fill:#fff"/></g></g></svg>