<svg xmlns="http://www.w3.org/2000/svg" viewBox="0 0 35.2 24.65"><defs><style>.cls-1{fill:#050505;fill-rule:evenodd;}</style></defs><title>youtube</title><g id="Capa_2" data-name="Capa 2"><g id="Capa_1-2" data-name="Capa 1"><path class="cls-1" d="M3.2,16.19a.5.5,0,1,1-.5-.5A.5.5,0,0,1,3.2,16.19ZM26.7,2a.5.5,0,1,0,.5.5A.5.5,0,0,0,26.7,2Zm8.5,13.37V9.27c0-6.6-.36-9.27-9.44-9.27H9.44C0,0,0,3.1,0,9.27v6.1c0,6.15,1.46,9.27,9.44,9.27H25.76C33.08,24.65,35.2,22.56,35.2,15.37ZM25.76,1C34.2,1,34.2,3.08,34.2,9.27v6.1c0,6.65-1.66,8.27-8.44,8.27H9.44C2.17,23.65,1,21.21,1,15.37V9.27C1,3.08,1,1,9.44,1ZM14.13,2.88H25.07a.38.38,0,0,0,0-.75H14.13a.38.38,0,0,0,0,.75Zm-6,19.39a6.29,6.29,0,0,1-3.72-1.48,5.36,5.36,0,0,1-1.33-3c-.08-.48-.8-.27-.72.2A5.85,5.85,0,0,0,4,21.47,7.35,7.35,0,0,0,8.09,23c.48.06.47-.69,0-.75ZM24.41,12.15,13.61,6.56V17.78Zm-2.17,0-7.63,4V8.21Z"/></g></g></svg>