<svg xmlns="http://www.w3.org/2000/svg" viewBox="0 0 32 32"><g id="Capa_2" data-name="Capa 2"><g id="Capa_1-2" data-name="Capa 1"><rect width="32" height="32" rx="16" style="fill:#3fa9f5"/><path d="M19.29,22a.21.21,0,0,1,.08.16.23.23,0,0,1-.08.16l-1.55,1.28a.3.3,0,0,1-.38,0,.2.2,0,0,1,0-.31l1.37-1.13L17.36,21a.2.2,0,0,1,0-.31.3.3,0,0,1,.38,0ZM14.18,20.7a.3.3,0,0,0-.38,0L12.25,22a.17.17,0,0,0-.07.16.18.18,0,0,0,.07.16l1.55,1.28a.3.3,0,0,0,.38,0,.19.19,0,0,0,0-.31l-1.36-1.13L14.18,21A.19.19,0,0,0,14.18,20.7Zm2.16.06-1.64,3c0,.09,0,.18.13.18a.39.39,0,0,0,.32-.18l1.65-3c.05-.09,0-.17-.13-.17A.43.43,0,0,0,16.34,20.76Zm8.55,4.61H7.11v-.16s0-2.38.13-4.15A2.45,2.45,0,0,1,9,18.75H9s1.36-.56,3-1.15a2.21,2.21,0,0,0,1.4-2.23h0a3.65,3.65,0,0,0-.27-.3,5.35,5.35,0,0,1-.86-2.18,1.24,1.24,0,0,1-.23,0,.75.75,0,0,1-.61-.34A4.23,4.23,0,0,1,11.09,11a.83.83,0,0,1,.9-.82V7l-.52.17-.38.13.18-.36a2.64,2.64,0,0,1,1.09-1.15,2.46,2.46,0,0,0-.55,0l-.4,0,.26-.31a3.82,3.82,0,0,1,2.48-1.19,16,16,0,0,1,3.12,0l.13,0a2.81,2.81,0,0,1,2.37,2.29c0,1.68.05,3.13.05,3.6a.94.94,0,0,1,.65.23.77.77,0,0,1,.24.58,4.23,4.23,0,0,1-.38,1.61.71.71,0,0,1-.6.35,1.09,1.09,0,0,1-.24,0,5.22,5.22,0,0,1-.85,2.12l-.14.15a2.35,2.35,0,0,0,1.44,2.36c1.69.59,3,1.15,3.06,1.15a2.45,2.45,0,0,1,1.76,2.31c.09,1.77.13,4.12.13,4.15ZM19.56,12.66a.41.41,0,0,0,.5-.18,3.93,3.93,0,0,0,.32-1.43.42.42,0,0,0-.13-.34.6.6,0,0,0-.42-.13A13.35,13.35,0,0,1,19.56,12.66Zm-7.45-6,.21-.06v3.55a1,1,0,0,0,.72-1s0-.91,0-1.54V7.27l.24.13a5.63,5.63,0,0,0,5.12,0l.27-.16,0,.52a8.11,8.11,0,0,0,0,1.17,1.38,1.38,0,0,0,.85,1.23c0-.54,0-1.92,0-3.47a2.5,2.5,0,0,0-2.11-2l-.18,0a15.87,15.87,0,0,0-3,0,3.45,3.45,0,0,0-2,.8,2,2,0,0,1,.72.18l.39.2-.43.1a2,2,0,0,0-1.11.8Zm.13,6A13.78,13.78,0,0,1,12,10.48c-.2,0-.55.09-.55.49a3.92,3.92,0,0,0,.32,1.42A.41.41,0,0,0,12.24,12.57Zm1.44,2.56c.45.49.88.95,1.18.95H16l1.05,0c.27,0,.63-.39,1.05-.85l.35-.39c.59-.61,1.07-3,1.11-4.34a1.79,1.79,0,0,1-1.19-1.59c0-.79,0-.91,0-1.09a6,6,0,0,1-4.92,0c0,.6-.05,1.27-.05,1.28a1.3,1.3,0,0,1-1.06,1.36c0,1.33.51,3.77,1.11,4.4Zm-.39,1.95a2.74,2.74,0,0,0,2.64,1.31h.14a2.76,2.76,0,0,0,2.65-1.31,3.06,3.06,0,0,1-.53-1.5c-.44.48-.8.85-1.19.85s-1.06,0-1.06,0H14.86c-.35,0-.69-.29-1.09-.7A2.76,2.76,0,0,1,13.29,17.08Zm-.73.65c.38,1,1.77,1.66,3.39,1.66h.1c1.62,0,3-.69,3.39-1.67a2,2,0,0,1-.37-.25,3.37,3.37,0,0,1-3,1.4h-.14a3.4,3.4,0,0,1-3-1.39A2.65,2.65,0,0,1,12.56,17.73Zm12,7.32c0-.57,0-2.48-.12-4a2.15,2.15,0,0,0-1.54-2s-1.39-.56-3.07-1.15l-.1-.05c-.44,1.08-1.94,1.86-3.68,1.86H16c-1.74,0-3.24-.78-3.68-1.86l-.1.05c-1.68.59-3,1.14-3.05,1.14a2.14,2.14,0,0,0-1.56,2c-.07,1.5-.11,3.41-.12,4Z" style="fill:#fff"/></g></g></svg>